<?xml version="1.0" encoding="UTF-8"?>
<svg version="1.1" xmlns="http://www.w3.org/2000/svg" width="426" height="426">
<path d="M0 0 C140.58 0 281.16 0 426 0 C426 140.58 426 281.16 426 426 C285.42 426 144.84 426 0 426 C0 285.42 0 144.84 0 0 Z " fill="#040405" transform="translate(0,0)"/>
<path d="M0 0 C1.27481232 -0.00043808 1.27481232 -0.00043808 2.57537842 -0.00088501 C5.3510604 0.00049501 8.12646522 0.0159929 10.90209961 0.03173828 C12.83979648 0.03547314 14.77749526 0.03831788 16.7151947 0.04031372 C21.79012356 0.04791293 26.86493611 0.06752919 31.93981934 0.08972168 C37.12840197 0.11026045 42.31700358 0.11933255 47.50561523 0.12939453 C57.66777543 0.15077886 67.82984968 0.18486953 77.99194336 0.22705078 C77.99194336 1.21705078 77.99194336 2.20705078 77.99194336 3.22705078 C77.20819336 3.47455078 76.42444336 3.72205078 75.61694336 3.97705078 C72.48714756 5.46742973 72.42271459 6.20000866 70.99194336 9.22705078 C69.88654016 10.80347554 68.75974897 12.36502615 67.61694336 13.91455078 C64.80620522 17.87062088 62.64592639 21.73176207 60.81616211 26.21923828 C59.97051751 28.27924456 58.99694692 30.24084296 57.99194336 32.22705078 C56.84587364 32.23251923 56.84587364 32.23251923 55.676651 32.23809814 C48.39718276 32.27631713 41.11820736 32.33354326 33.83905888 32.41095352 C30.09874545 32.45009092 26.35865556 32.48244125 22.61816406 32.49804688 C-5.40162852 32.62346458 -28.05712522 34.6399397 -49.25805664 55.10205078 C-56.15150029 62.24715983 -61.59693402 69.88057481 -65.00805664 79.22705078 C-65.67708008 80.90734375 -65.67708008 80.90734375 -66.35961914 82.62158203 C-71.8279507 97.59313056 -71.9648771 115.62547458 -69.00805664 131.22705078 C-67.62748768 133.88065823 -67.62748768 133.88065823 -66.00805664 136.22705078 C-65.29713384 138.02265359 -64.6304181 139.836364 -64.00805664 141.66455078 C-61.57993371 148.49078318 -59.29742779 153.1781056 -54.00805664 158.22705078 C-52.89524326 159.51127552 -51.79174404 160.80360556 -50.69555664 162.10205078 C-39.36549208 175.02994496 -24.17474107 183.88668425 -7.00805664 186.22705078 C-3.46003483 186.41970493 0.08794135 186.48264897 3.64038086 186.54345703 C4.53861572 186.56210815 5.43685059 186.58075928 6.36230469 186.59997559 C9.69709032 186.66794341 13.03202755 186.7283019 16.36694336 186.78955078 C23.83319336 186.93392578 31.29944336 187.07830078 38.99194336 187.22705078 C38.99194336 171.05705078 38.99194336 154.88705078 38.99194336 138.22705078 C25.79194336 138.22705078 12.59194336 138.22705078 -1.00805664 138.22705078 C-1.00805664 128.32705078 -1.00805664 118.42705078 -1.00805664 108.22705078 C22.42194336 108.22705078 45.85194336 108.22705078 69.99194336 108.22705078 C69.99194336 144.52705078 69.99194336 180.82705078 69.99194336 218.22705078 C58.05006836 218.30955078 46.10819336 218.39205078 33.80444336 218.47705078 C30.0801001 218.5134668 26.35575684 218.54988281 22.51855469 218.58740234 C5.94758054 218.67971884 -9.86993442 218.5559279 -26.00805664 214.22705078 C-26.00805664 213.56705078 -26.00805664 212.90705078 -26.00805664 212.22705078 C-27.92618164 211.85580078 -27.92618164 211.85580078 -29.88305664 211.47705078 C-39.58437354 209.27909617 -47.9936823 205.13237925 -56.00805664 199.22705078 C-56.33805664 198.56705078 -56.66805664 197.90705078 -57.00805664 197.22705078 C-58.7007423 196.2887596 -60.39354925 195.35068612 -62.0871582 194.4140625 C-65.26057573 192.45306148 -67.78068635 189.94173674 -70.38305664 187.28955078 C-71.22441162 186.43792358 -71.22441162 186.43792358 -72.08276367 185.5690918 C-77.50953452 179.93503228 -81.85483413 173.86406322 -86.00805664 167.22705078 C-86.64485352 166.22802734 -87.28165039 165.22900391 -87.93774414 164.19970703 C-102.26483357 140.8028936 -106.96155177 108.21573555 -100.62451172 81.29956055 C-99.62625591 77.84223497 -98.42971007 74.53204146 -97.00805664 71.22705078 C-96.71334473 70.5391748 -96.41863281 69.85129883 -96.11499023 69.14257812 C-89.74734216 54.74831594 -81.07030531 42.38951495 -70.00805664 31.22705078 C-69.15469727 30.36080078 -68.30133789 29.49455078 -67.42211914 28.60205078 C-55.54745109 17.19095836 -41.80705061 9.61566022 -26.00805664 5.22705078 C-24.71250546 4.73720395 -23.42097076 4.23663885 -22.13305664 3.72705078 C-14.82291717 0.94787728 -7.79026287 -0.07170941 0 0 Z " fill="#F8F8F7" transform="translate(140.008056640625,44.77294921875)"/>
<path d="M0 0 C1.03382813 -0.01224609 2.06765625 -0.02449219 3.1328125 -0.03710938 C9.74427063 -0.04959954 15.82700081 0.61209789 22.25 2.1875 C22.25 2.8475 22.25 3.5075 22.25 4.1875 C22.91 4.290625 23.57 4.39375 24.25 4.5 C28.06863232 5.37510324 31.62271456 6.73789768 35.25 8.1875 C35.95253906 8.44144531 36.65507812 8.69539063 37.37890625 8.95703125 C47.26123304 12.82864049 54.72265223 20.50466272 62.1875 27.8125 C62.73116211 28.33835693 63.27482422 28.86421387 63.83496094 29.40600586 C72.25 37.83808472 72.25 37.83808472 72.25 43.1875 C72.91 43.1875 73.57 43.1875 74.25 43.1875 C85.9843173 62.16214074 86.06438848 84.20825472 82.0625 105.375 C81.76883545 106.95220825 81.76883545 106.95220825 81.46923828 108.5612793 C80.1082053 115.06347094 78.06275196 119.78941042 74.25 125.1875 C73.62738281 126.25613281 73.00476563 127.32476562 72.36328125 128.42578125 C59.642892 150.14149999 40.93967028 161.35448426 17.25 168.1875 C11.45803189 169.52896892 5.73289493 169.44957074 -0.1875 169.5 C-1.28771484 169.52900391 -2.38792969 169.55800781 -3.52148438 169.58789062 C-12.77964558 169.65806911 -18.24500922 167.90321165 -27.75 165.1875 C-27.75 187.9575 -27.75 210.7275 -27.75 234.1875 C-37.98 234.1875 -48.21 234.1875 -58.75 234.1875 C-58.75 195.5775 -58.75 156.9675 -58.75 117.1875 C-41.75 117.1875 -41.75 117.1875 -35.875 122.625 C-35.13507813 123.63433594 -34.39515625 124.64367187 -33.6328125 125.68359375 C-31.92858828 128.44362855 -31.92858828 128.44362855 -28.75 129.1875 C-28.30527344 129.64898437 -27.86054688 130.11046875 -27.40234375 130.5859375 C-25.25785382 132.66452112 -23.0378821 133.60697142 -20.3125 134.8125 C-19.36503906 135.23789063 -18.41757812 135.66328125 -17.44140625 136.1015625 C-6.97636214 140.32403313 7.62340494 140.15085064 18.0559082 136.03735352 C31.77774051 129.79833571 41.49901799 120.627243 48.25 107.1875 C48.91 107.1875 49.57 107.1875 50.25 107.1875 C50.394375 105.929375 50.53875 104.67125 50.6875 103.375 C50.98748686 100.76082877 51.40813297 98.71310108 52.25 96.1875 C53.64065868 79.26558161 52.48226193 64.62356016 41.25 51.1875 C37.24474191 46.55698669 33.10783934 43.20713363 27.75390625 40.23046875 C27.25761719 39.88628906 26.76132812 39.54210937 26.25 39.1875 C26.25 38.5275 26.25 37.8675 26.25 37.1875 C24.63416836 36.73085193 23.01757539 36.27681419 21.3984375 35.83203125 C19.25 35.1875 19.25 35.1875 17.2265625 34.38671875 C6.11539538 30.27363759 -8.13635481 30.50006781 -19.11328125 34.86328125 C-28.48295227 39.56893825 -37.79001141 46.28752852 -41.75 56.1875 C-52.97 56.1875 -64.19 56.1875 -75.75 56.1875 C-74.6249049 47.18673918 -74.6249049 47.18673918 -72.97265625 44.44921875 C-72.62396484 43.85689453 -72.27527344 43.26457031 -71.91601562 42.65429688 C-71.55185547 42.06712891 -71.18769531 41.47996094 -70.8125 40.875 C-70.45220703 40.26849609 -70.09191406 39.66199219 -69.72070312 39.03710938 C-68.12927047 36.37299836 -66.47145473 33.76968209 -64.75 31.1875 C-64.09 31.1875 -63.43 31.1875 -62.75 31.1875 C-62.48574219 30.60226563 -62.22148437 30.01703125 -61.94921875 29.4140625 C-54.32835424 15.26457464 -34.33561612 6.56221174 -19.91796875 1.765625 C-13.29545091 -0.00037976 -6.80973325 0.00418288 0 0 Z " fill="#F8F8F7" transform="translate(291.75,28.8125)"/>
<path d="M0 0 C5.24961515 3.59824614 10.73662435 8.26922096 12.96875 14.421875 C14.06076307 20.55898846 14.33851812 27.67975815 12.359375 33.6171875 C11.699375 33.6171875 11.039375 33.6171875 10.359375 33.6171875 C9.988125 34.9475 9.988125 34.9475 9.609375 36.3046875 C7.26004463 42.53041297 3.98719423 45.13824738 -1.8359375 47.91796875 C-3.640625 48.6171875 -3.640625 48.6171875 -5.640625 48.6171875 C-5.640625 49.2771875 -5.640625 49.9371875 -5.640625 50.6171875 C-24.276101 51.2647523 -24.276101 51.2647523 -32.640625 43.6171875 C-33.300625 42.6271875 -33.960625 41.6371875 -34.640625 40.6171875 C-36.53748614 40.15674481 -36.53748614 40.15674481 -38.75344849 40.21846008 C-40.04493805 40.19965286 -40.04493805 40.19965286 -41.36251831 40.1804657 C-42.30910309 40.18190079 -43.25568787 40.18333588 -44.23095703 40.18481445 C-45.72369141 40.16952698 -45.72369141 40.16952698 -47.24658203 40.15393066 C-50.54725669 40.12365318 -53.84764187 40.11451216 -57.1484375 40.10546875 C-59.43245418 40.08863302 -61.71646153 40.07048429 -64.00045776 40.05107117 C-70.02070196 40.00344509 -76.04090836 39.97371732 -82.0612793 39.94763184 C-88.2010851 39.91788981 -94.34076046 39.87133776 -100.48046875 39.82617188 C-112.53378611 39.73999535 -124.58713022 39.67271401 -136.640625 39.6171875 C-135.35230726 35.75223429 -132.99739546 34.41175559 -129.828125 32.1171875 C-124.05919269 27.82588908 -118.79248198 23.21553338 -113.58984375 18.2578125 C-112.61660156 17.38640625 -111.64335937 16.515 -110.640625 15.6171875 C-110.143918 15.10503693 -109.647211 14.59288635 -109.13545227 14.06521606 C-103.21226202 8.66028735 -97.37041928 8.849895 -89.63117981 9.04213333 C-87.44326212 9.0947385 -85.2582183 9.10729297 -83.06970215 9.10971069 C-77.63992387 9.12268135 -72.21133595 9.19251762 -66.7822876 9.28033447 C-62.18249429 9.35469603 -57.58475122 9.39750624 -52.98432922 9.39475632 C-50.84012456 9.40602275 -48.70035525 9.46345586 -46.55700684 9.52212524 C-39.42739924 9.6509659 -39.42739924 9.6509659 -33.07617188 6.87078857 C-30.95486629 4.79523063 -30.95486629 4.79523063 -29.27893066 2.58358765 C-22.02797162 -6.11948116 -8.96411339 -5.05301933 0 0 Z " fill="#F6F7F5" transform="translate(305.640625,90.3828125)"/>
<path d="M0 0 C0.67991145 1.53587141 1.3433154 3.07905501 2 4.625 C2.37125 5.48351562 2.7425 6.34203125 3.125 7.2265625 C4 10 4 10 4 16 C8.29 16.33 12.58 16.66 17 17 C17.495 21.95 17.495 21.95 18 27 C23.15749424 18.3675983 26.66071382 9.43762797 30 0 C34.88523811 -0.19157797 37.31489886 0.12595954 42 2 C41.34 5.63 40.68 9.26 40 13 C52.54 13 65.08 13 78 13 C78 16.96 78 20.92 78 25 C63.48 25 48.96 25 34 25 C33.34 26.65 32.68 28.3 32 30 C30.83766335 31.80135883 29.62763815 33.57272479 28.375 35.3125 C27.74335938 36.19550781 27.11171875 37.07851563 26.4609375 37.98828125 C25.97882813 38.65214844 25.49671875 39.31601562 25 40 C20.12548139 39.35861597 17.66590839 38.34244589 14 35 C14.33 33.35 14.66 31.7 15 30 C9.06 30 3.12 30 -3 30 C-3 33.63 -3 37.26 -3 41 C3.6 41 10.2 41 17 41 C17.18142622 55.66528576 17.29286594 70.29862922 16.25 84.9375 C16.18828613 85.95320068 16.12657227 86.96890137 16.06298828 88.01538086 C15.57314695 94.03655938 14.64189506 98.1165498 11 103 C7.1455842 106.19365881 4.1038501 106.33648031 -0.8125 106.1875 C-2.55466797 106.14689453 -2.55466797 106.14689453 -4.33203125 106.10546875 C-5.21246094 106.07066406 -6.09289062 106.03585937 -7 106 C-7.495 101.05 -7.495 101.05 -8 96 C-3.545 95.505 -3.545 95.505 1 95 C2.90649016 90.09468902 3.40359463 85.72681742 3.6328125 80.5390625 C3.67437469 79.74849457 3.71593689 78.95792664 3.75875854 78.1434021 C3.88869895 75.6375946 4.00702361 73.13139639 4.125 70.625 C4.21147084 68.91792964 4.29870252 67.21089763 4.38671875 65.50390625 C4.59995176 61.33632978 4.80277483 57.16836344 5 53 C1.7 53 -1.6 53 -5 53 C-4.938125 54.32 -4.87625 55.64 -4.8125 57 C-4.83095258 70.06442944 -8.0308872 86.94157307 -15 98 C-15.69579454 100.19130534 -15.69579454 100.19130534 -16 102 C-16.66 102 -17.32 102 -18 102 C-18.66 103.32 -19.32 104.64 -20 106 C-23.55313263 105.01301871 -24.98292632 104.0197004 -27.4375 101.1875 C-29 98 -29 98 -28.375 95.1875 C-27 93 -27 93 -25 92 C-24.06573416 89.39783009 -23.2545097 86.84200229 -22.5 84.1875 C-22.18095703 83.12885742 -22.18095703 83.12885742 -21.85546875 82.04882812 C-18.36445186 70.02302453 -17.63445386 58.17946167 -17.375 45.75 C-17.33670984 44.21482429 -17.29765224 42.67966753 -17.2578125 41.14453125 C-17.163049 37.42986343 -17.07859495 33.71504929 -17 30 C-17.71027344 30.01160156 -18.42054688 30.02320313 -19.15234375 30.03515625 C-20.07144531 30.04417969 -20.99054688 30.05320312 -21.9375 30.0625 C-22.85402344 30.07410156 -23.77054688 30.08570313 -24.71484375 30.09765625 C-27 30 -27 30 -28 29 C-28.14355117 24.99779347 -28.04216403 21.00558317 -28 17 C-21.4 17 -14.8 17 -8 17 C-8.66 15.453125 -9.32 13.90625 -10 12.3125 C-11.55050009 8.67851541 -12.22822613 5.95829688 -12 2 C-7.84055256 0.69507531 -4.34963091 -0.12019705 0 0 Z " fill="#F1F1F0" transform="translate(181,305)"/>
<path d="M0 0 C0.66 0.99 1.32 1.98 2 3 C2.99 3.33 3.98 3.66 5 4 C6.75 5.875 6.75 5.875 8 8 C7.67 8.99 7.34 9.98 7 11 C4.890625 11.94921875 4.890625 11.94921875 2.25 12.6875 C1.38890625 12.93886719 0.5278125 13.19023437 -0.359375 13.44921875 C-2.98817853 13.99753428 -5.32352338 14.10108994 -8 14 C-7.71125 15.13179688 -7.4225 16.26359375 -7.125 17.4296875 C-6.74987608 18.91142697 -6.37488286 20.39319953 -6 21.875 C-5.80921875 22.62136719 -5.6184375 23.36773437 -5.421875 24.13671875 C-4 29.7734375 -4 29.7734375 -4 32 C-3.25234375 31.41089844 -2.5046875 30.82179688 -1.734375 30.21484375 C-0.74953125 29.46332031 0.2353125 28.71179688 1.25 27.9375 C2.22453125 27.18339844 3.1990625 26.42929687 4.203125 25.65234375 C7 24 7 24 9.1875 24.10546875 C12.082717 25.53435818 13.91783694 27.57080976 16 30 C16 30.99 16 31.98 16 33 C14.65478516 34.25854492 14.65478516 34.25854492 12.7890625 35.48046875 C12.12132812 35.92197266 11.45359375 36.36347656 10.765625 36.81835938 C10.05921875 37.27017578 9.3528125 37.72199219 8.625 38.1875 C7.92632812 38.65091797 7.22765625 39.11433594 6.5078125 39.59179688 C1.28758975 43 1.28758975 43 -1 43 C-0.505 45.97 -0.505 45.97 0 49 C0.66 49 1.32 49 2 49 C2.474375 50.0725 2.94875 51.145 3.4375 52.25 C6.24184969 57.8890714 11.24641541 67.12320771 17 70 C16.49394035 74.38585031 13.79780785 76.78252098 11 80 C10.67 80.66 10.34 81.32 10 82 C6.02470978 81.47995095 4.60986381 79.78082405 2.1875 76.6875 C-11.29136384 58.94032927 -16.69288631 39.88462131 -19 18 C-20.98 17.67 -22.96 17.34 -25 17 C-25 32.84 -25 48.68 -25 65 C-17.93472447 63.71610882 -17.93472447 63.71610882 -14 60 C-13.01 60 -12.02 60 -11 60 C-10.89184775 61.76949095 -10.81433917 63.54087487 -10.75 65.3125 C-10.70359375 66.29863281 -10.6571875 67.28476562 -10.609375 68.30078125 C-11 71 -11 71 -12.7890625 72.765625 C-15.33658375 74.18791601 -17.96191789 75.20405536 -20.7109375 76.171875 C-24.0945482 77.39597989 -27.39229714 78.82283971 -30.703125 80.23046875 C-33 81 -33 81 -37 81 C-40.06476484 75.72860447 -40.06476484 75.72860447 -39.75 72.1875 C-39 70 -39 70 -38 69 C-37.87655973 67.12903889 -37.82207606 65.25349072 -37.79467773 63.37866211 C-37.77473251 62.17749252 -37.75478729 60.97632294 -37.73423767 59.73875427 C-37.71752518 58.4314888 -37.70081268 57.12422333 -37.68359375 55.77734375 C-37.66303042 54.43355153 -37.64203412 53.08976588 -37.62062073 51.74598694 C-37.56533581 48.20325013 -37.51595502 44.66045433 -37.46777344 41.11761475 C-37.41760513 37.5047885 -37.36189475 33.89204828 -37.30664062 30.27929688 C-37.19898063 23.18627253 -37.0975532 16.09317112 -37 9 C-36.01870117 8.8138916 -35.03740234 8.6277832 -34.02636719 8.43603516 C-26.98871297 7.07955314 -20.05705917 5.65339584 -13.25 3.375 C-12.24453125 3.05015625 -12.24453125 3.05015625 -11.21875 2.71875 C-2.8275463 0 -2.8275463 0 0 0 Z " fill="#EFEFED" transform="translate(363,328)"/>
<path d="M0 0 C2.8125 2.375 2.8125 2.375 5 5 C5 5.99 5 6.98 5 8 C3.29422658 8.65256456 1.58523911 9.29673041 -0.125 9.9375 C-1.07632813 10.29714844 -2.02765625 10.65679687 -3.0078125 11.02734375 C-6.00371165 12.00120653 -8.88487963 12.56092517 -12 13 C-11.68954268 14.9169986 -11.37655329 16.83358723 -11.0625 18.75 C-10.88847656 19.81734375 -10.71445313 20.8846875 -10.53515625 21.984375 C-10.11295829 24.36347593 -9.62797116 26.66915211 -9 29 C-7.70756532 27.8758824 -6.41607925 26.75067408 -5.125 25.625 C-4.40570313 24.99851562 -3.68640625 24.37203125 -2.9453125 23.7265625 C-1.5923402 22.52573166 -0.2791655 21.2791655 1 20 C4.28288776 20.11320303 5.30354487 21.28284863 7.75 23.5625 C8.86375 24.7690625 8.86375 24.7690625 10 26 C8.57904457 29.3326532 6.8834126 31.23606522 4.125 33.5625 C3.44695312 34.14128906 2.76890625 34.72007812 2.0703125 35.31640625 C0.08348175 36.93211201 -1.93937141 38.4799399 -4 40 C-2.8405153 48.10133463 1.9920267 56.11595271 7.5 62.0625 C10 65 10 65 9.84765625 66.94921875 C8.86800898 69.31933311 7.65432375 70.85053543 5.9375 72.75 C5.38964844 73.36359375 4.84179688 73.9771875 4.27734375 74.609375 C3.64505859 75.29773438 3.64505859 75.29773438 3 76 C-7.30323233 71.58752876 -13.28948595 56.702362 -17.2890625 46.8125 C-20.40984609 37.47397201 -21.64526724 27.71918121 -23 18 C-25.31 18 -27.62 18 -30 18 C-30 31.2 -30 44.4 -30 58 C-26.04 57.34 -22.08 56.68 -18 56 C-17.0318352 59.8726592 -16.92377142 63.03611362 -17 67 C-18.43554025 67.50559908 -19.8735202 68.0042749 -21.3125 68.5 C-22.11300781 68.7784375 -22.91351563 69.056875 -23.73828125 69.34375 C-26 70 -26 70 -29 70 C-29 70.66 -29 71.32 -29 72 C-30.58199631 72.64910154 -32.16565724 73.29414694 -33.75 73.9375 C-35.07257813 74.47697266 -35.07257813 74.47697266 -36.421875 75.02734375 C-38.61186104 75.85356576 -40.71898271 76.49369943 -43 77 C-43.33 74.69 -43.66 72.38 -44 70 C-44.99 69.67 -45.98 69.34 -47 69 C-45.125 64.125 -45.125 64.125 -44 63 C-43.87727151 61.40486107 -43.82218957 59.80445068 -43.79467773 58.20483398 C-43.77473251 57.18385117 -43.75478729 56.16286835 -43.73423767 55.11094666 C-43.71752518 54.0005452 -43.70081268 52.89014374 -43.68359375 51.74609375 C-43.66281265 50.61551041 -43.64203156 49.48492706 -43.62062073 48.32008362 C-43.55500203 44.69262015 -43.49618323 41.06508167 -43.4375 37.4375 C-43.39432649 34.98501814 -43.3507126 32.532544 -43.30664062 30.08007812 C-43.19930816 24.05346573 -43.0975651 18.02677799 -43 12 C-41.25427255 11.36032758 -39.50808997 10.72189716 -37.76171875 10.08398438 C-36.78936279 9.72832397 -35.81700684 9.37266357 -34.81518555 9.00622559 C-31.23687754 7.72723882 -27.63662011 6.60290938 -24 5.5 C-18.33269904 3.7778957 -12.81273593 1.86289262 -7.33203125 -0.3984375 C-4.4889553 -1.13182728 -2.78698556 -0.8801007 0 0 Z " fill="#F0F0EE" transform="translate(249,334)"/>
<path d="M0 0 C2.21484375 1.75 2.21484375 1.75 3.9375 4 C4.52402344 4.7425 5.11054688 5.485 5.71484375 6.25 C6.35099609 7.11625 6.35099609 7.11625 7 8 C6 10 6 10 3.82421875 10.859375 C-4.77573945 13.30120622 -13.46128484 15.31376207 -22.1875 17.25 C-23.37448486 17.52038086 -24.56146973 17.79076172 -25.78442383 18.06933594 C-32.96907588 19.62315255 -39.65150294 20.3699002 -47 20 C-46.98952637 20.94504395 -46.97905273 21.89008789 -46.96826172 22.86376953 C-46.46385667 72.90938397 -46.46385667 72.90938397 -53 90 C-53.25910156 90.763125 -53.51820313 91.52625 -53.78515625 92.3125 C-55.37256757 96.892572 -57.50566625 100.87144759 -60 105 C-64.19360449 104.32902328 -67.40334352 102.1441606 -71 100 C-70.25 94.25 -70.25 94.25 -68 92 C-67.10179982 89.38024949 -66.27551524 86.78055218 -65.5 84.125 C-63.23972603 76.46746575 -63.23972603 76.46746575 -61.90625 73.8671875 C-59.85634441 69.64367512 -59.86782772 64.7971219 -59.79467773 60.17822266 C-59.7647599 58.49715927 -59.7647599 58.49715927 -59.73423767 56.78213501 C-59.70916893 54.99118912 -59.70916893 54.99118912 -59.68359375 53.1640625 C-59.6524221 51.31232925 -59.6524221 51.31232925 -59.62062073 49.42318726 C-59.55538164 45.49051329 -59.49635948 41.55777411 -59.4375 37.625 C-59.39479388 34.95441143 -59.35067536 32.28384851 -59.30664062 29.61328125 C-59.19972653 23.07558921 -59.09791299 16.53783271 -59 10 C-58.28668015 9.89584778 -57.57336029 9.79169556 -56.83842468 9.68438721 C-37.69885324 6.87569088 -37.69885324 6.87569088 -18.8125 2.75 C-5.073978 -0.71167484 -5.073978 -0.71167484 0 0 Z " fill="#EFEFEE" transform="translate(366,306)"/>
<path d="M0 0 C21.45 0 42.9 0 65 0 C65 3.96 65 7.92 65 12 C59.39 12 53.78 12 48 12 C48 27.51 48 43.02 48 59 C47.34 59 46.68 59 46 59 C45.9175 59.598125 45.835 60.19625 45.75 60.8125 C44.77705573 63.65025411 43.55550687 64.49676067 41 66 C40.01 66 39.02 66 38 66 C38 66.66 38 67.32 38 68 C31.4 68 24.8 68 18 68 C17.51171875 65.49348958 17.0234375 62.98697917 16.53515625 60.48046875 C16.02258847 57.88602829 16.02258847 57.88602829 15 55 C21.27 55 27.54 55 34 55 C34 40.81 34 26.62 34 12 C22.78 12 11.56 12 0 12 C0 8.04 0 4.08 0 0 Z " fill="#F2F1EF" transform="translate(77,344)"/>
<path d="M0 0 C0.99 0 1.98 0 3 0 C3 0.66 3 1.32 3 2 C3.9075 1.938125 4.815 1.87625 5.75 1.8125 C9.28982642 2.01672076 10.44931155 2.64551835 13 5 C11.61972723 9.05712007 9.70317751 11.66848596 6.9375 14.91137695 C1.99822255 21.59549268 1.87675851 27.30918359 2 35.41796875 C1.99246229 36.76990583 1.98141144 38.12182739 1.96704102 39.47370911 C1.93887388 42.99397554 1.95771471 46.51239951 1.98712158 50.03259277 C2.00867871 53.63968272 1.98471504 57.24645812 1.96484375 60.85351562 C1.93258655 67.90278033 1.95431832 74.95074587 2 82 C-2.62 82 -7.24 82 -12 82 C-12 67.81 -12 53.62 -12 39 C-14.97 40.98 -17.94 42.96 -21 45 C-25.04467269 43.98883183 -25.75839408 43.64722076 -28.3125 40.6875 C-28.84488281 40.09324219 -29.37726562 39.49898438 -29.92578125 38.88671875 C-31 37 -31 37 -30.98828125 35.0390625 C-29.55524246 32.08235796 -27.4703314 30.67819698 -24.875 28.6875 C-16.21399507 22.0058106 -10.192543 14.77629311 -4.1875 5.70117188 C-3.68734375 4.96576172 -3.1871875 4.23035156 -2.671875 3.47265625 C-2.2294043 2.80500244 -1.78693359 2.13734863 -1.33105469 1.44946289 C-0.67218262 0.73197876 -0.67218262 0.73197876 0 0 Z " fill="#F0F0EF" transform="translate(63,330)"/>
<path d="M0 0 C4.88523811 -0.19157797 7.31489886 0.12595954 12 2 C11.34 5.63 10.68 9.26 10 13 C22.54 13 35.08 13 48 13 C48 16.96 48 20.92 48 25 C33.48 25 18.96 25 4 25 C3.34 26.65 2.68 28.3 2 30 C0.83766335 31.80135883 -0.37236185 33.57272479 -1.625 35.3125 C-2.25664062 36.19550781 -2.88828125 37.07851563 -3.5390625 37.98828125 C-4.02117187 38.65214844 -4.50328125 39.31601562 -5 40 C-9.87451861 39.35861597 -12.33409161 38.34244589 -16 35 C-15.67 33.35 -15.34 31.7 -15 30 C-20.94 30 -26.88 30 -33 30 C-33 33.63 -33 37.26 -33 41 C-26.4 41 -19.8 41 -13 41 C-13 50.9 -13 60.8 -13 71 C-13.33 71 -13.66 71 -14 71 C-14 61.43 -14 51.86 -14 42 C-20.6 42 -27.2 42 -34 42 C-34 37.71 -34 33.42 -34 29 C-27.4 29 -20.8 29 -14 29 C-14 25.37 -14 21.74 -14 18 C-19.28 18 -24.56 18 -30 18 C-30 17.34 -30 16.68 -30 16 C-24.39 16.33 -18.78 16.66 -13 17 C-12.67 20.3 -12.34 23.6 -12 27 C-6.84250576 18.3675983 -3.33928618 9.43762797 0 0 Z " fill="#EBECEA" transform="translate(211,305)"/>
<path d="M0 0 C18.81 0 37.62 0 57 0 C57 4.29 57 8.58 57 13 C38.19 13 19.38 13 0 13 C0 8.71 0 4.42 0 0 Z " fill="#E7E7E7" transform="translate(81,311)"/>
<path d="M0 0 C1.98 0 3.96 0 6 0 C7.7112458 4.56803631 8.40658756 8.7783652 8.875 13.625 C9.97209685 23.53422507 12.95922963 32.31873375 17.36328125 41.2578125 C17.67845703 42.12019531 17.67845703 42.12019531 18 43 C17.67 43.66 17.34 44.32 17 45 C16.505 44.505 16.505 44.505 16 44 C15.67 47.63 15.34 51.26 15 55 C14.34 54.67 13.68 54.34 13 54 C13.33 50.37 13.66 46.74 14 43 C11.525 43.495 11.525 43.495 9 44 C8.67 44.99 8.34 45.98 8 47 C5.36 47.33 2.72 47.66 0 48 C0 32.16 0 16.32 0 0 Z " fill="#222321" transform="translate(338,345)"/>
<path d="M0 0 C0.74636719 0.2475 1.49273437 0.495 2.26171875 0.75 C2.26171875 1.41 2.26171875 2.07 2.26171875 2.75 C4.57171875 3.41 6.88171875 4.07 9.26171875 4.75 C9.26171875 7.75 9.26171875 7.75 7.32421875 9.8125 C6.8653125 10.24046875 6.40640625 10.6684375 5.93359375 11.109375 C3.84941579 13.15459636 1.9845019 15.35415848 0.07421875 17.5625 C-4.42066398 22.59857262 -9.34388261 26.71584696 -14.73828125 30.75 C-15.87330078 31.60271484 -15.87330078 31.60271484 -17.03125 32.47265625 C-17.87623047 33.10494141 -17.87623047 33.10494141 -18.73828125 33.75 C-22.56620993 32.1904735 -25.10187989 29.91368164 -27.73828125 26.75 C-27.54983437 24.12744763 -26.96997665 22.99787363 -25.171875 21.07421875 C-24.51316406 20.53410156 -23.85445312 19.99398438 -23.17578125 19.4375 C-22.45261719 18.83035156 -21.72945312 18.22320312 -20.984375 17.59765625 C-20.24316406 16.98792969 -19.50195312 16.37820313 -18.73828125 15.75 C-13.44475982 11.33363241 -8.9503534 6.82145235 -4.6953125 1.375 C-2.73828125 -0.25 -2.73828125 -0.25 0 0 Z " fill="#EBEBE8" transform="translate(61.73828125,305.25)"/>
<path d="M0 0 C6.89460154 2.48971722 6.89460154 2.48971722 9 5 C9.53756826 13.12868375 5.52037536 19.95924928 2 27 C1.525625 28.134375 1.05125 29.26875 0.5625 30.4375 C-1.06700949 34.15278164 -2.93600224 37.51255551 -5 41 C-8.99455527 40.38545304 -11.74466336 38.29353263 -15 36 C-14.59969925 31.09631576 -13.66271776 28.00223607 -11.03515625 23.7265625 C-8.77837228 19.96241716 -7.31296397 15.83224496 -5.7734375 11.73828125 C-5.33257812 10.56652344 -4.89171875 9.39476562 -4.4375 8.1875 C-4.02371094 7.06730469 -3.60992187 5.94710938 -3.18359375 4.79296875 C-2 2 -2 2 0 0 Z " fill="#ECECEB" transform="translate(289,368)"/>
<path d="M0 0 C2.31 0 4.62 0 7 0 C8.24292844 4.86675536 9.39381644 9.73774269 10.44628906 14.64892578 C11.93639092 21.59137849 13.52877028 28.32767977 16 35 C15.34 35 14.68 35 14 35 C14 39.29 14 43.58 14 48 C13.67 48 13.34 48 13 48 C12.67 44.7 12.34 41.4 12 38 C10.9790625 38.495 10.9790625 38.495 9.9375 39 C7 40 7 40 0 40 C0 26.8 0 13.6 0 0 Z " fill="#1C1C1D" transform="translate(219,352)"/>
<path d="M0 0 C3.51583039 -0.04782193 6.97791313 0.1553548 10.48144531 0.42922974 C11.93821758 0.49453332 13.39527207 0.55383288 14.85253906 0.60696411 C18.40143012 0.74934548 21.93962003 0.97297593 25.48144531 1.24172974 C25.97644531 2.72672974 25.97644531 2.72672974 26.48144531 4.24172974 C12.92921086 9.11079601 -0.61375368 13.44951128 -14.51855469 17.24172974 C-14.51855469 34.07172974 -14.51855469 50.90172974 -14.51855469 68.24172974 C-14.84855469 68.24172974 -15.17855469 68.24172974 -15.51855469 68.24172974 C-15.51855469 51.41172974 -15.51855469 34.58172974 -15.51855469 17.24172974 C-16.17855469 16.91172974 -16.83855469 16.58172974 -17.51855469 16.24172974 C-16.92558594 16.047323 -16.33261719 15.85291626 -15.72167969 15.65261841 C-12.56881179 13.63351119 -11.84543978 11.02875392 -10.26855469 7.66751099 C-7.76101703 3.07970608 -5.49386326 0.49357863 0 0 Z " fill="#1B1C1C" transform="translate(220.5185546875,328.7582702636719)"/>
<path d="M0 0 C6.51171469 1.46513581 12.57644516 3.86867638 17 9 C17.66 9.33 18.32 9.66 19 10 C18.39301257 14.12751449 16.96189209 17.3321148 15 21 C10.15409462 20.55946315 6.51858133 18.25494123 3 15 C3 14.34 3 13.68 3 13 C0.03 12.01 -2.94 11.02 -6 10 C-4.6302836 6.00499382 -2.74277578 3.19990508 0 0 Z " fill="#E8E8E6" transform="translate(277,337)"/>
<path d="M0 0 C4.15617601 0.67877246 7.54247583 2.85077201 11.125 4.9375 C11.75792969 5.29779297 12.39085937 5.65808594 13.04296875 6.02929688 C15.63036512 7.52075784 17.87897973 8.87897973 20 11 C20 14 20 14 17.5625 16.5625 C16.716875 17.366875 15.87125 18.17125 15 19 C14.67 19.66 14.34 20.32 14 21 C12.0625 20.6875 12.0625 20.6875 10 20 C9.67 19.01 9.34 18.02 9 17 C7.67412916 16.63812241 6.3385174 16.31186545 5 16 C3.05163037 14.86526517 1.13634147 13.67260454 -0.75 12.4375 C-1.73484375 11.79683594 -2.7196875 11.15617187 -3.734375 10.49609375 C-4.48203125 10.00238281 -5.2296875 9.50867188 -6 9 C-4.38617243 5.59787701 -2.41396234 2.89675481 0 0 Z " fill="#E8E8E7" transform="translate(282,307)"/>
<path d="M0 0 C0.33 0 0.66 0 1 0 C1 9.57 1 19.14 1 29 C14.2 29 27.4 29 41 29 C41 45.17 41 61.34 41 78 C25.82 78 10.64 78 -5 78 C-5 77.67 -5 77.34 -5 77 C9.52 77 24.04 77 39 77 C39 61.82 39 46.64 39 31 C26.13 31 13.26 31 0 31 C0 20.77 0 10.54 0 0 Z " fill="#5D5C5C" transform="translate(138,154)"/>
<path d="M0 0 C5.61 0.33 11.22 0.66 17 1 C18.31413613 13.64856021 18.31413613 13.64856021 16 19 C15.34 19 14.68 19 14 19 C14.33 17.35 14.66 15.7 15 14 C9.06 14 3.12 14 -3 14 C-3 17.63 -3 21.26 -3 25 C3.6 25 10.2 25 17 25 C17 34.9 17 44.8 17 55 C16.67 55 16.34 55 16 55 C16 45.43 16 35.86 16 26 C9.4 26 2.8 26 -4 26 C-4 21.71 -4 17.42 -4 13 C2.6 13 9.2 13 16 13 C16 9.37 16 5.74 16 2 C10.72 2 5.44 2 0 2 C0 1.34 0 0.68 0 0 Z " fill="#818582" transform="translate(181,321)"/>
<path d="M0 0 C0.99435406 3.09354597 0.87840996 4.90279155 0 8 C4.3782512 8.02469081 8.75646567 8.04285557 13.13476562 8.05493164 C14.62468166 8.05996514 16.11459274 8.06679242 17.60449219 8.07543945 C19.74415304 8.08754805 21.88374868 8.09323807 24.0234375 8.09765625 C25.95582275 8.10551147 25.95582275 8.10551147 27.92724609 8.11352539 C30.91405228 8.21542631 30.91405228 8.21542631 33 7 C32.67 7.99 32.34 8.98 32 10 C20.78 10 9.56 10 -2 10 C-1 2 -1 2 0 0 Z " fill="#B2B1B0" transform="translate(218,75)"/>
<path d="M0 0 C0.33 0.99 0.66 1.98 1 3 C0.46890625 3.51949219 -0.0621875 4.03898437 -0.609375 4.57421875 C-3.69827594 7.62366292 -6.67753091 10.59267062 -9.375 14 C-9.91125 14.66 -10.4475 15.32 -11 16 C-11.66 16 -12.32 16 -13 16 C-13.061875 16.721875 -13.12375 17.44375 -13.1875 18.1875 C-14.24456647 21.84657625 -16.20550071 23.49211602 -19 26 C-19 16.98523645 -7.23095827 7.2777609 -1.234375 1.21484375 C-0.82703125 0.81394531 -0.4196875 0.41304688 0 0 Z " fill="#C3C3C4" transform="translate(72,74)"/>
<path d="M0 0 C0.99 0 1.98 0 3 0 C3 0.66 3 1.32 3 2 C4.98 2 6.96 2 9 2 C9.33 2.66 9.66 3.32 10 4 C7.03 3.505 7.03 3.505 4 3 C3.67 3.99 3.34 4.98 3 6 C2.34 5.34 1.68 4.68 1 4 C0.59007812 4.5775 0.18015625 5.155 -0.2421875 5.75 C-1.05042969 6.86375 -1.05042969 6.86375 -1.875 8 C-2.40867187 8.7425 -2.94234375 9.485 -3.4921875 10.25 C-3.98976562 10.8275 -4.48734375 11.405 -5 12 C-5.66 12 -6.32 12 -7 12 C-5.52410328 7.57230983 -3.26930159 3.3663135 0 0 Z " fill="#BEC1C0" transform="translate(63,330)"/>
<path d="M0 0 C-1.45546502 3.39608504 -3.40860299 5.40860299 -6 8 C-6.33 8.70125 -6.66 9.4025 -7 10.125 C-8.72917292 13.36719922 -11.65322561 13.88440854 -15 15 C-13.387672 10.96918 -10.53765404 8.24055863 -7.5 5.25 C-7.00113281 4.74339844 -6.50226563 4.23679687 -5.98828125 3.71484375 C-2.25341139 0 -2.25341139 0 0 0 Z " fill="#2C2C2A" transform="translate(100,92)"/>
<path d="M0 0 C0.66 0.33 1.32 0.66 2 1 C0.90241493 1.84198307 -0.20335317 2.67330671 -1.3125 3.5 C-1.92738281 3.9640625 -2.54226562 4.428125 -3.17578125 4.90625 C-5 6 -5 6 -8 6 C-8 6.66 -8 7.32 -8 8 C-11 10 -11 10 -13.1875 9.625 C-13.785625 9.41875 -14.38375 9.2125 -15 9 C-13.06537998 7.68325862 -11.12720303 6.37174202 -9.1875 5.0625 C-8.10855469 4.33160156 -7.02960938 3.60070312 -5.91796875 2.84765625 C-3 1 -3 1 0 0 Z " fill="#484644" transform="translate(115,82)"/>
<path d="M0 0 C0.33 0.66 0.66 1.32 1 2 C0.04882866 3.1725131 -0.91117009 4.33787015 -1.875 5.5 C-2.67550781 6.47453125 -2.67550781 6.47453125 -3.4921875 7.46875 C-4.23855469 8.22671875 -4.23855469 8.22671875 -5 9 C-5.66 9 -6.32 9 -7 9 C-7.103125 9.639375 -7.20625 10.27875 -7.3125 10.9375 C-7.539375 11.618125 -7.76625 12.29875 -8 13 C-8.99 13.33 -9.98 13.66 -11 14 C-9.5 11 -9.5 11 -8 8 C-7.34 8 -6.68 8 -6 8 C-5.7525 7.4225 -5.505 6.845 -5.25 6.25 C-3.83316683 3.6997003 -2.12372463 1.98214299 0 0 Z " fill="#C2BEC0" transform="translate(235,52)"/>
<path d="M0 0 C3.63 0 7.26 0 11 0 C11 0.33 11 0.66 11 1 C8.69 1 6.38 1 4 1 C4 5.29 4 9.58 4 14 C3.67 14 3.34 14 3 14 C3 10.04 3 6.08 3 2 C2.01 2.33 1.02 2.66 0 3 C0 2.01 0 1.02 0 0 Z " fill="#1C1D1C" transform="translate(77,310)"/>
<path d="M0 0 C3.63 0 7.26 0 11 0 C10.67 0.66 10.34 1.32 10 2 C2.58823529 3.29411765 2.58823529 3.29411765 0 2 C0 1.34 0 0.68 0 0 Z " fill="#0E060B" transform="translate(287,200)"/>
<path d="M0 0 C0.33 0.99 0.66 1.98 1 3 C-1.31 5.31 -3.62 7.62 -6 10 C-6.33 9.01 -6.66 8.02 -7 7 C-4.69 4.69 -2.38 2.38 0 0 Z " fill="#D2D2D1" transform="translate(72,74)"/>
<path d="M0 0 C0.66 0 1.32 0 2 0 C1.52354792 4.28806873 0.34097516 6.26647487 -3 9 C-3.66 9 -4.32 9 -5 9 C-3.50079488 5.88626628 -1.91847864 2.87771795 0 0 Z " fill="#373A35" transform="translate(259,399)"/>
<path d="M0 0 C0.66 0.33 1.32 0.66 2 1 C0.68799596 2.35432675 -0.64631404 3.68733482 -2 5 C-2.33 5 -2.66 5 -3 5 C-3.33 6.65 -3.66 8.3 -4 10 C-6 7 -6 7 -6 4 C-3 1.8125 -3 1.8125 0 0 Z " fill="#494B47" transform="translate(368,367)"/>
<path d="M0 0 C0 0.66 0 1.32 0 2 C-2.61373889 4.53906064 -4.12889581 5.92256852 -7.8125 6.25 C-8.534375 6.1675 -9.25625 6.085 -10 6 C-4.4 0 -4.4 0 0 0 Z " fill="#B2B0B1" transform="translate(99,56)"/>
<path d="M0 0 C5.94 0 11.88 0 18 0 C18 0.33 18 0.66 18 1 C15.56257869 1.16789126 13.12507454 1.33436133 10.6875 1.5 C9.99720703 1.54769531 9.30691406 1.59539062 8.59570312 1.64453125 C5.72337641 1.83879489 2.87986212 2 0 2 C0 1.34 0 0.68 0 0 Z " fill="#DBDBD8" transform="translate(92,399)"/>
<path d="M0 0 C0.99 1.32 1.98 2.64 3 4 C3.66 3.67 4.32 3.34 5 3 C5.66 3.66 6.32 4.32 7 5 C5.625 6.5 5.625 6.5 4 8 C3.34 8 2.68 8 2 8 C0.23537317 4.91190305 0 3.76687864 0 0 Z " fill="#28282A" transform="translate(238,355)"/>
<path d="M0 0 C2.5 2.3125 2.5 2.3125 5 5 C5 5.99 5 6.98 5 8 C2.83125748 7.49396008 1.00032373 7.00016187 -1 6 C-1 5.34 -1 4.68 -1 4 C-0.34 4 0.32 4 1 4 C0.67 2.68 0.34 1.36 0 0 Z " fill="#373736" transform="translate(57,217)"/>
<path d="M0 0 C0.33 0.99 0.66 1.98 1 3 C-1.15343189 6.23014784 -2.27059611 7.75686537 -6 9 C-4.47291037 5.56404834 -2.40072955 2.88087546 0 0 Z " fill="#BDBDBD" transform="translate(64,82)"/>
<path d="M0 0 C0.33 0.99 0.66 1.98 1 3 C2.32 2.67 3.64 2.34 5 2 C5.33 3.32 5.66 4.64 6 6 C2.22454612 4.90931332 -0.47043472 4.0916909 -3 1 C-2.01 0.67 -1.02 0.34 0 0 Z " fill="#444345" transform="translate(266,158)"/>
<path d="M0 0 C0.33 0.66 0.66 1.32 1 2 C0.34 2 -0.32 2 -1 2 C-1.061875 2.598125 -1.12375 3.19625 -1.1875 3.8125 C-2.3236757 6.87143458 -4.17330142 7.55041099 -7 9 C-5.44499019 5.18315774 -2.96404505 2.80804268 0 0 Z " fill="#444040" transform="translate(215,49)"/>
<path d="M0 0 C0.66 0.33 1.32 0.66 2 1 C-0.25 3.5625 -0.25 3.5625 -3 6 C-4.32 5.67 -5.64 5.34 -7 5 C-4.69 3.35 -2.38 1.7 0 0 Z " fill="#BFBDBE" transform="translate(249,41)"/>
<path d="M0 0 C2.56616632 3.84924948 2.55097676 6.4349304 3 11 C2.01 10.67 1.02 10.34 0 10 C0 6.7 0 3.4 0 0 Z " fill="#2F342F" transform="translate(349,372)"/>
<path d="M0 0 C1.65 0 3.3 0 5 0 C5.33 0.66 5.66 1.32 6 2 C6.66 1.67 7.32 1.34 8 1 C7.67 1.99 7.34 2.98 7 4 C4.625 3.6875 4.625 3.6875 2 3 C1.34 2.01 0.68 1.02 0 0 Z " fill="#ADADAA" transform="translate(285,354)"/>
<path d="M0 0 C1.32 0.33 2.64 0.66 4 1 C3.67 1.33 3.34 1.66 3 2 C2.63239269 4.32817964 2.29758419 6.6618385 2 9 C0.14223235 5.86501708 -0.20140476 3.62528568 0 0 Z " fill="#545553" transform="translate(355,342)"/>
<path d="M0 0 C1.67542976 0.28604898 3.34385343 0.61781233 5 1 C3.68 2.32 2.36 3.64 1 5 C0.34 3.68 -0.32 2.36 -1 1 C-0.67 0.67 -0.34 0.34 0 0 Z " fill="#222223" transform="translate(173,120)"/>
<path d="M0 0 C1.32 0 2.64 0 4 0 C4 0.66 4 1.32 4 2 C4.66 2.33 5.32 2.66 6 3 C4.02 3.33 2.04 3.66 0 4 C-0.33 3.01 -0.66 2.02 -1 1 C-0.67 0.67 -0.34 0.34 0 0 Z " fill="#1B191A" transform="translate(263,30)"/>
</svg>
