<?xml version="1.0" encoding="UTF-8"?>
<svg version="1.1" xmlns="http://www.w3.org/2000/svg" width="646" height="646">
<path d="M0 0 C213.18 0 426.36 0 646 0 C646 213.18 646 426.36 646 646 C432.82 646 219.64 646 0 646 C0 432.82 0 219.64 0 0 Z " fill="#2B3540" transform="translate(0,0)"/>
<path d="M0 0 C1.42089684 -0.00021904 1.42089684 -0.00021904 2.87049866 -0.0004425 C5.97618973 0.00024964 9.08181951 0.00800913 12.1875 0.01586914 C14.35082974 0.0177358 16.51415991 0.01915853 18.67749023 0.02015686 C24.35244935 0.02396248 30.0273826 0.03377598 35.70233154 0.04486084 C41.50076955 0.05511709 47.29921177 0.05966349 53.09765625 0.06469727 C64.46094882 0.07540009 75.82422225 0.09245291 87.1875 0.11352539 C85.37752037 3.92519589 82.98559596 7.07138527 80.375 10.36352539 C74.71634296 17.63561789 70.22251952 24.41705904 66.984375 33.10961914 C66.1875 35.11352539 66.1875 35.11352539 65.1875 36.11352539 C62.92019434 36.22193575 60.64950605 36.25984545 58.37963867 36.27124023 C57.66725037 36.27632095 56.95486206 36.28140167 56.22088623 36.28663635 C54.66688977 36.29736709 53.11287759 36.30597658 51.55885887 36.31275558 C49.0896386 36.32453843 46.62059374 36.34399627 44.15144348 36.36587524 C37.12812263 36.42746411 30.10481338 36.48126781 23.08129883 36.51489258 C18.78761623 36.53600262 14.49424307 36.57144957 10.20073891 36.61565018 C8.5723266 36.62969961 6.94385941 36.63850729 5.31538963 36.64170456 C-17.93958926 36.69213219 -37.99194514 44.09073682 -55.8125 59.11352539 C-57.07707031 60.08999023 -57.07707031 60.08999023 -58.3671875 61.08618164 C-71.85595639 72.26936224 -81.58942918 92.01071542 -84.453125 108.99243164 C-84.8125 111.11352539 -84.8125 111.11352539 -85.32226562 112.93359375 C-87.92080968 124.48857376 -86.65117148 139.04618684 -82.8125 150.11352539 C-82.54566406 151.05454102 -82.27882812 151.99555664 -82.00390625 152.96508789 C-78.17684917 165.85801795 -71.57847229 176.98566244 -62.8125 187.11352539 C-61.69875 188.62946289 -61.69875 188.62946289 -60.5625 190.17602539 C-48.6999533 204.17383049 -27.93718368 213.35481255 -9.8125 215.11352539 C-5.8670543 215.30313431 -1.92194137 215.36885637 2.02734375 215.42993164 C3.52062195 215.45790833 3.52062195 215.45790833 5.04406738 215.4864502 C8.73762743 215.55438323 12.43132328 215.61476374 16.125 215.67602539 C24.395625 215.82040039 32.66625 215.96477539 41.1875 216.11352539 C41.1875 197.63352539 41.1875 179.15352539 41.1875 160.11352539 C26.0075 160.11352539 10.8275 160.11352539 -4.8125 160.11352539 C-4.8125 148.56352539 -4.8125 137.01352539 -4.8125 125.11352539 C22.2475 125.11352539 49.3075 125.11352539 77.1875 125.11352539 C77.1875 167.02352539 77.1875 208.93352539 77.1875 252.11352539 C63.100625 252.19602539 49.01375 252.27852539 34.5 252.36352539 C27.895448 252.41814941 27.895448 252.41814941 21.1574707 252.47387695 C15.66638184 252.49194336 15.66638184 252.49194336 13.07365417 252.49530029 C11.31120225 252.50133342 9.54876387 252.51516552 7.78642273 252.53582764 C-22.61647541 252.87360175 -54.60401002 244.97049436 -77.8125 224.11352539 C-77.8125 223.45352539 -77.8125 222.79352539 -77.8125 222.11352539 C-78.35648438 221.89051758 -78.90046875 221.66750977 -79.4609375 221.43774414 C-99.61835647 210.08663944 -112.64339624 180.22650048 -118.9375 159.23852539 C-127.48942015 127.79170091 -122.85947086 93.44872095 -106.921875 65.03100586 C-89.71378846 35.28797953 -62.72206568 13.13257603 -29.37915039 3.9675293 C-19.49929512 1.33791002 -10.23359637 -0.04189264 0 0 Z " fill="#CFA773" transform="translate(250.8125,137.886474609375)"/>
<path d="M0 0 C1.25103516 -0.020625 2.50207031 -0.04125 3.79101562 -0.0625 C11.92258208 -0.09636389 19.04805071 0.84278029 26.8125 3.25 C27.50545166 3.45947266 28.19840332 3.66894531 28.91235352 3.88476562 C36.31264017 6.22996188 43.21828225 9.15042018 49.8125 13.25 C49.8125 13.91 49.8125 14.57 49.8125 15.25 C50.38226563 15.34796875 50.95203125 15.4459375 51.5390625 15.546875 C54.29301184 16.39861191 55.94763378 17.69238867 58.1875 19.5 C59.37085938 20.45326172 59.37085938 20.45326172 60.578125 21.42578125 C61.31546875 22.02777344 62.0528125 22.62976563 62.8125 23.25 C63.84375 24.054375 64.875 24.85875 65.9375 25.6875 C83.30288407 41.16534233 95.42979633 65.28824346 97.03833008 88.51025391 C97.98794181 117.63027659 91.66596911 140.54187425 72.8125 163.25 C72.11382812 164.17167969 71.41515625 165.09335937 70.6953125 166.04296875 C69.76332031 167.13544922 69.76332031 167.13544922 68.8125 168.25 C68.1525 168.25 67.4925 168.25 66.8125 168.25 C66.8125 168.91 66.8125 169.57 66.8125 170.25 C64.984375 171.87109375 64.984375 171.87109375 62.5625 173.6875 C61.77359375 174.28433594 60.9846875 174.88117188 60.171875 175.49609375 C59.00398438 176.36427734 59.00398438 176.36427734 57.8125 177.25 C57.11640625 177.81847656 56.4203125 178.38695312 55.703125 178.97265625 C53.8125 180.25 53.8125 180.25 50.8125 180.25 C50.8125 180.91 50.8125 181.57 50.8125 182.25 C47.8425 183.24 47.8425 183.24 44.8125 184.25 C44.8125 184.91 44.8125 185.57 44.8125 186.25 C43.10454966 186.87604585 41.39612002 187.50078415 39.6875 188.125 C38.26050781 188.64707031 38.26050781 188.64707031 36.8046875 189.1796875 C24.84324377 193.45832403 13.74031201 195.77506257 1 195.625 C-0.21888916 195.61774902 -1.43777832 195.61049805 -2.69360352 195.60302734 C-13.73287512 195.43428723 -23.86855557 194.37757777 -34.1875 190.25 C-34.1875 216.65 -34.1875 243.05 -34.1875 270.25 C-45.7375 270.25 -57.2875 270.25 -69.1875 270.25 C-69.1875 225.7 -69.1875 181.15 -69.1875 135.25 C-63.2475 135.25 -57.3075 135.25 -51.1875 135.25 C-48.7125 137.725 -48.7125 137.725 -46.1875 140.25 C-44.34437979 141.97024553 -42.49005082 143.678556 -40.625 145.375 C-39.69558594 146.22320312 -38.76617187 147.07140625 -37.80859375 147.9453125 C-33.06727396 152.2005879 -33.06727396 152.2005879 -27.1875 154.25 C-27.1875 154.91 -27.1875 155.57 -27.1875 156.25 C-26.33285156 156.38277344 -25.47820312 156.51554688 -24.59765625 156.65234375 C-23.49292969 156.82894531 -22.38820313 157.00554687 -21.25 157.1875 C-20.14785156 157.36152344 -19.04570312 157.53554688 -17.91015625 157.71484375 C-15.1875 158.25 -15.1875 158.25 -14.1875 159.25 C6.30130478 160.9947009 24.14065401 158.62931084 40.375 145.1171875 C51.70608041 134.4368786 59.53478765 119.89217235 60.11328125 104.19921875 C60.13239451 102.4454123 60.13593359 100.69137652 60.125 98.9375 C60.12081055 98.01614258 60.11662109 97.09478516 60.11230469 96.14550781 C59.88490702 82.40004483 55.89243169 71.24768481 47.8125 60.25 C47.8125 59.59 47.8125 58.93 47.8125 58.25 C47.1525 58.25 46.4925 58.25 45.8125 58.25 C45.008125 57.26 44.20375 56.27 43.375 55.25 C38.85955066 49.77334115 32.59415074 44.51055025 25.8125 42.25 C25.8125 41.59 25.8125 40.93 25.8125 40.25 C25.07386719 40.11722656 24.33523438 39.98445313 23.57421875 39.84765625 C21.1096984 39.31431592 18.97572665 38.57383956 16.625 37.6875 C6.60639868 34.61873924 -6.25229259 34.9634485 -16.1875 38.25 C-17.03054688 38.49492187 -17.87359375 38.73984375 -18.7421875 38.9921875 C-32.45830073 43.38289797 -43.25817713 52.3560157 -51.1875 64.25 C-54.1670099 64.51653946 -56.9363582 64.59767784 -59.9140625 64.54296875 C-60.77687836 64.53872391 -61.63969421 64.53447906 -62.52865601 64.53010559 C-65.29025197 64.51328392 -68.05112383 64.47562598 -70.8125 64.4375 C-72.68228114 64.42245764 -74.5520737 64.40876846 -76.421875 64.39648438 C-81.01069658 64.36336906 -85.59897544 64.31156339 -90.1875 64.25 C-88.6216977 53.8602307 -82.31708043 45.57161582 -76.1875 37.25 C-75.65511719 36.48816406 -75.12273437 35.72632813 -74.57421875 34.94140625 C-69.96213879 28.59016487 -64.38215901 24.013729 -58.1875 19.25 C-57.55328125 18.71632812 -56.9190625 18.18265625 -56.265625 17.6328125 C-40.18742614 4.47145502 -20.27911079 0.08230994 0 0 Z " fill="#3E5D48" transform="translate(425.1875,119.75)"/>
<path d="M0 0 C4.5308609 1.13271522 7.16075461 3.24645933 10.6875 6.125 C11.95555627 7.14214266 13.22378494 8.15907045 14.4921875 9.17578125 C15.1015918 9.66771973 15.71099609 10.1596582 16.33886719 10.66650391 C18.30681089 12.24629646 20.30601229 13.78206133 22.3125 15.3125 C27.43435486 19.28241353 32.39971458 23.44300567 37.39160156 27.57397461 C44.1687742 33.16896037 51.0591552 38.61012052 58 44 C56.67216283 47.02959848 55.3422999 48.825697 52.76171875 50.8828125 C52.11332031 51.40488281 51.46492187 51.92695313 50.796875 52.46484375 C50.10078125 53.01269531 49.4046875 53.56054688 48.6875 54.125 C47.60662109 54.98931641 47.60662109 54.98931641 46.50390625 55.87109375 C41.17555696 60.1168279 35.77390374 64.26346157 30.359375 68.3984375 C21.16024127 75.47767459 12.07758331 82.7709886 3.6015625 90.70703125 C2 92 2 92 0 92 C0 82.43 0 72.86 0 63 C-42.24 63 -84.48 63 -128 63 C-125.93998646 58.87997293 -123.71393748 56.76733149 -120.25 53.9375 C-119.67797852 53.46143311 -119.10595703 52.98536621 -118.51660156 52.49487305 C-113.74484766 48.54800273 -108.87034464 44.73403537 -103.97851562 40.93774414 C-99.71614095 37.61393474 -95.64905724 34.12413167 -91.671875 30.4609375 C-88.03133617 27.27971899 -84.28737884 27.86623185 -79.69482422 27.88647461 C-78.83621796 27.88632858 -77.97761169 27.88618256 -77.09298706 27.8860321 C-74.24686176 27.88673037 -71.40080141 27.89451875 -68.5546875 27.90234375 C-66.58456457 27.90420824 -64.61444118 27.90563199 -62.64431763 27.90663147 C-57.45260341 27.91045424 -52.26091706 27.92028249 -47.06921387 27.93133545 C-41.774011 27.94155472 -36.47880363 27.9461302 -31.18359375 27.95117188 C-20.78904827 27.96190496 -10.39453081 27.97949983 0 28 C0 18.76 0 9.52 0 0 Z " fill="#C17544" transform="translate(409,173)"/>
<path d="M0 0 C27.06 0 54.12 0 82 0 C82 41.91 82 83.82 82 127 C52.96 127 23.92 127 -6 127 C-6 126.67 -6 126.34 -6 126 C11.49 126 28.98 126 47 126 C46.67 124.68 46.34 123.36 46 122 C45.91802387 119.68351312 45.89252207 117.36479111 45.90234375 115.046875 C45.90484131 113.83870117 45.90733887 112.63052734 45.90991211 111.38574219 C45.91901611 109.85594727 45.92812012 108.32615234 45.9375 106.75 C45.9684375 99.44875 45.9684375 99.44875 46 92 C30.82 92 15.64 92 0 92 C0 91.67 0 91.34 0 91 C15.18 91 30.36 91 46 91 C46 72.52 46 54.04 46 35 C30.82 35 15.64 35 0 35 C0 23.45 0 11.9 0 0 Z " fill="#C67846" transform="translate(246,263)"/>
<path d="M0 0 C9.3740625 -0.12375 9.3740625 -0.12375 18.9375 -0.25 C20.89163818 -0.28641602 22.84577637 -0.32283203 24.85913086 -0.36035156 C26.43602404 -0.37205158 28.01292946 -0.38224028 29.58984375 -0.390625 C30.38588013 -0.41108887 31.1819165 -0.43155273 32.0020752 -0.45263672 C38.98149552 -0.45690352 44.7315898 1.56096935 50.33984375 5.74609375 C50.86707031 6.30425781 51.39429688 6.86242187 51.9375 7.4375 C52.48277344 7.99308594 53.02804687 8.54867188 53.58984375 9.12109375 C58.56155013 15.74544491 57.98748819 25.08618616 57 33 C54.85772591 39.39004504 49.87100695 43.7842956 44.1027832 47.0859375 C37.93173836 50.11837796 32.73426279 50.49399466 25.9375 50.25 C21.0184375 50.12625 21.0184375 50.12625 16 50 C16 57.59 16 65.18 16 73 C10.72 73 5.44 73 0 73 C0 48.91 0 24.82 0 0 Z " fill="#E7DCCC" transform="translate(282,442)"/>
<path d="M0 0 C1.3782881 0.88717395 2.70466394 1.85462744 4.01171875 2.84375 C3.40837566 6.54878641 1.78697638 8.70343148 -0.55078125 11.59375 C-1.19144531 12.39296875 -1.83210938 13.1921875 -2.4921875 14.015625 C-2.98589844 14.61890625 -3.47960937 15.2221875 -3.98828125 15.84375 C-6.62217225 14.84139609 -8.79438544 13.99064076 -11.05078125 12.28125 C-16.25240694 8.42197933 -23.85207714 9.30750245 -29.98828125 9.84375 C-35.08540455 12.16062423 -38.75661321 16.30678282 -41.98828125 20.84375 C-44.17918811 27.41647059 -44.10706058 36.10110705 -42.1171875 42.7578125 C-39.43071787 48.02505459 -36.31934664 50.42968265 -30.98828125 52.84375 C-30.32828125 53.17375 -29.66828125 53.50375 -28.98828125 53.84375 C-21.75951428 54.2469108 -14.8124065 54.44341676 -7.98828125 51.84375 C-7.98828125 47.88375 -7.98828125 43.92375 -7.98828125 39.84375 C-12.93828125 39.84375 -17.88828125 39.84375 -22.98828125 39.84375 C-22.98828125 35.55375 -22.98828125 31.26375 -22.98828125 26.84375 C-13.08828125 26.84375 -3.18828125 26.84375 7.01171875 26.84375 C7.1266701 31.3294073 7.22613364 35.80994019 7.28637695 40.29589844 C7.31148978 41.8208143 7.34558758 43.34561015 7.38891602 44.87011719 C7.44971919 47.06475426 7.47795762 49.2577981 7.5 51.453125 C7.52618408 52.77280273 7.55236816 54.09248047 7.5793457 55.45214844 C7.01171875 58.84375 7.01171875 58.84375 4.66918945 61.21508789 C1.81049462 62.96707257 -0.99751341 64.2935327 -4.11328125 65.53125 C-5.14710938 65.94761719 -6.1809375 66.36398437 -7.24609375 66.79296875 C-12.87748155 68.95086521 -17.57038969 69.09719413 -23.55078125 69.15625 C-24.50275391 69.18525391 -25.45472656 69.21425781 -26.43554688 69.24414062 C-37.37913869 69.34098657 -44.9248396 65.78744705 -52.7890625 58.28125 C-59.87266198 50.43015573 -62.42856007 41.72262654 -62.23828125 31.29296875 C-61.41398991 19.92032416 -57.98451711 11.37335811 -49.67578125 3.59375 C-36.07344536 -7.94556495 -15.35314568 -8.92835191 0 0 Z " fill="#E5DBCC" transform="translate(190.98828125,446.15625)"/>
<path d="M0 0 C5.71826801 5.09094747 8.46457941 11.11699851 9.35546875 18.67578125 C9.73118895 29.06262665 6.94030609 36.1448369 -0.08984375 43.734375 C-8.39632858 51.15147862 -18.46022103 51.05212068 -29.0234375 50.4609375 C-36.69465191 49.14414637 -42.21684888 44.09158831 -46.859375 38.0859375 C-51.67013813 30.49712805 -52.16063301 23.26921499 -51.0234375 14.4609375 C-49.07069099 6.9995172 -42.80409182 0.2342674 -36.70703125 -4.23828125 C-24.94707996 -9.93851965 -10.06845502 -7.65824571 0 0 Z " fill="#E7DCCE" transform="translate(260.0234375,464.5390625)"/>
<path d="M0 0 C7.57134939 4.74523807 12.80815857 10.2326343 15 19 C15 23.62 15 28.24 15 33 C2.46 33 -10.08 33 -23 33 C-20.80155286 39.72660666 -20.80155286 39.72660666 -17.4375 41.9375 C-12.38249009 43.49995761 -6.91260248 44.40007339 -1.9765625 42.02734375 C-1.38617188 41.64707031 -0.79578125 41.26679688 -0.1875 40.875 C3 39 3 39 5.6875 39.5 C8.23218701 41.15060779 10.15116993 42.58229914 12 45 C11.7508388 47.46229894 11.34477248 48.65617731 9.58203125 50.4140625 C8.99808594 50.81367188 8.41414062 51.21328125 7.8125 51.625 C7.24144531 52.02976562 6.67039062 52.43453125 6.08203125 52.8515625 C-2.22398239 57.43311599 -12.41799882 57.20929663 -21.4375 54.875 C-28.8682061 52.26816212 -34.16417895 46.77262154 -38 40 C-41.0279846 32.64632312 -41.43505747 23.68600094 -38.4375 16.25 C-30.93287368 1.71472377 -15.98424744 -6.80810539 0 0 Z " fill="#E3D8C8" transform="translate(506,459)"/>
<path d="M0 0 C1.2694043 -0.01740234 1.2694043 -0.01740234 2.56445312 -0.03515625 C9.03096453 -0.00524178 14.46754324 1.00261306 19.92578125 4.734375 C20.36277344 5.19328125 20.79976563 5.6521875 21.25 6.125 C21.69988281 6.57359375 22.14976562 7.0221875 22.61328125 7.484375 C26.79983712 13.46164061 27.36134349 18.71858781 27.23046875 25.80859375 C27.22622391 26.68653091 27.22197906 27.56446808 27.21760559 28.4690094 C27.2009229 31.2504958 27.16329085 34.03123564 27.125 36.8125 C27.10993968 38.70767177 27.09625364 40.60285498 27.08398438 42.49804688 C27.0510536 47.12398197 26.99934428 51.74936477 26.9375 56.375 C22.3175 56.375 17.6975 56.375 12.9375 56.375 C12.9375 54.725 12.9375 53.075 12.9375 51.375 C12.050625 51.99375 11.16375 52.6125 10.25 53.25 C4.96769015 56.6386516 1.23942202 57.65216346 -5.0625 57.625 C-6.856875 57.63273438 -6.856875 57.63273438 -8.6875 57.640625 C-13.87129191 57.23264138 -17.23126178 55.76974564 -20.875 52.0625 C-24.75602301 47.42730439 -24.8951454 43.26101534 -24.5546875 37.37109375 C-23.7019592 32.18027942 -21.35236163 29.66486163 -17.75 26.0625 C-9.8001816 21.07075357 3.05088064 22.72167547 11.9375 24.375 C11.67093428 21.44056598 11.67093428 21.44056598 10.9375 18.375 C9.9475 17.715 8.9575 17.055 7.9375 16.375 C7.9375 15.715 7.9375 15.055 7.9375 14.375 C-4.22511741 13.9674089 -4.22511741 13.9674089 -16.0625 16.375 C-16.76430531 14.9653653 -17.44843958 13.54692359 -18.125 12.125 C-18.50785156 11.33609375 -18.89070313 10.5471875 -19.28515625 9.734375 C-20.18066759 7.01634057 -20.12605763 5.99957521 -19.0625 3.375 C-13.37906945 -0.05531289 -6.43890114 -0.08867653 0 0 Z " fill="#E7DDCF" transform="translate(370.0625,457.625)"/>
<path d="M0 0 C1.84375 1.578125 1.84375 1.578125 3 3 C2.90546875 5.9304688 1.98397203 7.01861313 0.0625 9.25 C-2 11 -2 11 -4 11 C-4 11.66 -4 12.32 -4 13 C-7.37462715 12.45276317 -9.08235 11.9451 -12 10 C-12 9.34 -12 8.68 -12 8 C-13.72985242 8.11512153 -15.45888751 8.24255677 -17.1875 8.375 C-18.15042969 8.44460938 -19.11335938 8.51421875 -20.10546875 8.5859375 C-23.04683317 9.00669948 -25.33649081 9.69408192 -28 11 C-29.30065921 12.93383287 -29.30065921 12.93383287 -30 15 C-30.33 15.66 -30.66 16.32 -31 17 C-31.6847645 24.39770173 -31.66385432 30.04063059 -27 36 C-22.82075744 38.56849283 -18.77991947 38.82412405 -14 38 C-11.75448021 36.79633825 -9.81961329 35.47969355 -7.82421875 33.8984375 C-6 33 -6 33 -3.97265625 33.66796875 C-2.03898648 34.97367448 -0.40510542 36.29493325 1.25 37.9375 C1.77078125 38.44152344 2.2915625 38.94554687 2.828125 39.46484375 C4 41 4 41 4 44 C2.20703125 45.53515625 2.20703125 45.53515625 -0.1875 47.0625 C-0.96480469 47.56910156 -1.74210937 48.07570313 -2.54296875 48.59765625 C-7.66359516 51.52023953 -11.8732345 52.36015505 -17.75 52.3125 C-18.45938721 52.30758545 -19.16877441 52.3026709 -19.8996582 52.29760742 C-26.89657151 52.14162273 -32.27332522 51.28279749 -37.6875 46.75 C-38.450625 45.8425 -39.21375 44.935 -40 44 C-40.515625 43.47277344 -41.03125 42.94554687 -41.5625 42.40234375 C-48.20818317 35.38923098 -48.53485821 27.7579551 -48.375 18.40625 C-47.45805978 10.07737631 -42.19915234 4.26640951 -36 -1 C-24.59308083 -9.2700164 -11.28945069 -7.26128988 0 0 Z " fill="#E3D9CA" transform="translate(456,463)"/>
<path d="M0 0 C4.33264109 1.9996805 7.28023376 4.49164084 9 9 C9.65840044 14.42797575 9.92282673 20.09423787 7.375 25.0625 C4.14323704 29.0596805 1.67274421 30.48753995 -3.36328125 31.453125 C-7.38063991 31.81889362 -9.92920791 31.85238143 -13.1640625 29.27734375 C-18.31874383 23.43325031 -19.35562961 19.75165337 -19.28125 11.98828125 C-18.80299081 6.90677739 -16.5765456 4.39106965 -12.875 1.125 C-8.53723335 -0.57238695 -4.58889386 -0.77196345 0 0 Z " fill="#303A43" transform="translate(244,471)"/>
<path d="M0 0 C27.06 0 54.12 0 82 0 C82 41.91 82 83.82 82 127 C52.96 127 23.92 127 -6 127 C-6 126.67 -6 126.34 -6 126 C11.49 126 28.98 126 47 126 C46.67 124.68 46.34 123.36 46 122 C45.91802387 119.68351312 45.89252207 117.36479111 45.90234375 115.046875 C45.90484131 113.83870117 45.90733887 112.63052734 45.90991211 111.38574219 C45.91901611 109.85594727 45.92812012 108.32615234 45.9375 106.75 C45.9684375 99.44875 45.9684375 99.44875 46 92 C30.82 92 15.64 92 0 92 C0 91.67 0 91.34 0 91 C15.18 91 30.36 91 46 91 C46 72.52 46 54.04 46 35 C30.82 35 15.64 35 0 35 C0 23.45 0 11.9 0 0 Z M1 1 C1 11.89 1 22.78 1 34 C5.85525391 34.09087891 5.85525391 34.09087891 10.80859375 34.18359375 C13.92946842 34.24532994 17.05030488 34.30873965 20.17114258 34.37231445 C22.34688953 34.41573507 24.52267214 34.45740471 26.69848633 34.49731445 C29.81863168 34.55484502 32.93859633 34.61858823 36.05859375 34.68359375 C37.03775253 34.70030624 38.01691132 34.71701874 39.02574158 34.73423767 C40.37702904 34.7641555 40.37702904 34.7641555 41.75561523 34.79467773 C42.55281479 34.81022202 43.35001434 34.8257663 44.17137146 34.84178162 C46 35 46 35 47 36 C47.08849948 37.68247747 47.10689078 39.36868867 47.09765625 41.0534668 C47.09439331 42.13869629 47.09113037 43.22392578 47.08776855 44.34204102 C47.07942993 45.53240967 47.07109131 46.72277832 47.0625 47.94921875 C47.05394335 50.48331674 47.04548353 53.01741507 47.03710938 55.55151367 C47.03102986 56.89610885 47.02476102 58.24070318 47.01831055 59.58529663 C46.98672219 66.35891773 46.97395263 73.1325612 46.96875 79.90625 C46.96820114 80.56944433 46.96765228 81.23263866 46.96708679 81.91592979 C46.96059013 96.3064317 47.36455209 110.62299095 48 125 C58.89 125 69.78 125 81 125 C81 84.08 81 43.16 81 1 C54.6 1 28.2 1 1 1 Z " fill="#A07354" transform="translate(246,263)"/>
<path d="M0 0 C2.84625 -0.0825 5.6925 -0.165 8.625 -0.25 C9.51010254 -0.28641602 10.39520508 -0.32283203 11.30712891 -0.36035156 C16.68827905 -0.43544301 19.75397618 0.38351283 24 4 C25.59799033 7.19598065 25.36773555 10.52322756 25 14 C23.20889451 18.24209195 21.13558803 20.06419284 17 22 C14.04816804 22.35289333 11.15470686 22.28374755 8.1875 22.1875 C4.1346875 22.0946875 4.1346875 22.0946875 0 22 C0 14.74 0 7.48 0 0 Z " fill="#303941" transform="translate(298,456)"/>
<path d="M0 0 C0.66 0.33 1.32 0.66 2 1 C4.56193316 1.08792563 7.09620578 1.1152713 9.65795898 1.09765625 C10.84690765 1.09546585 10.84690765 1.09546585 12.05987549 1.0932312 C13.79116367 1.08941483 15.5224479 1.08328748 17.25372124 1.07516479 C20.03170927 1.06233552 22.80964899 1.05586399 25.58766174 1.05102539 C32.5196069 1.03767758 39.45150906 1.01403925 46.38342285 0.98962402 C53.12930685 0.96618218 59.87517611 0.94776422 66.62109375 0.9375 C67.56606091 0.93597931 68.51102806 0.93445862 69.48463058 0.93289185 C87.66981949 0.91401596 105.82799438 1.33002736 124 2 C124 2.66 124 3.32 124 4 C81.76 4 39.52 4 -4 4 C-4 3.34 -4 2.68 -4 2 C-2.125 0.9375 -2.125 0.9375 0 0 Z " fill="#A7724F" transform="translate(285,232)"/>
<path d="M0 0 C1.12664062 0.01289063 2.25328125 0.02578125 3.4140625 0.0390625 C6.375 0.375 6.375 0.375 9.375 2.375 C9.97266769 6.21714944 9.68305554 7.89698278 7.5625 11.1875 C4.24700576 14.50299424 1.37975178 14.55234271 -3.125 14.625 C-4.0840625 14.65078125 -5.043125 14.6765625 -6.03125 14.703125 C-8.625 14.375 -8.625 14.375 -10.4375 13.07421875 C-12.47788069 10.15459506 -12.10584311 7.80100713 -11.625 4.375 C-7.90908316 0.51510852 -5.27659355 -0.1334311 0 0 Z " fill="#3B444A" transform="translate(372.625,489.625)"/>
<path d="M0 0 C2.85834497 1.35175898 3.85208454 2.47619933 6 5 C6.33 7.31 6.66 9.62 7 12 C-0.59 12 -8.18 12 -16 12 C-15 5 -15 5 -12.5 2.0625 C-8.5903286 -0.76637282 -4.63967806 -1.01907215 0 0 Z " fill="#323C43" transform="translate(499,470)"/>
<path d="M0 0 C0.33 0 0.66 0 1 0 C1 8.91 1 17.82 1 27 C-1.54759033 26.98316162 -4.09518066 26.96632324 -6.7199707 26.94897461 C-15.16981955 26.89972879 -23.61914871 26.9002753 -32.06908894 26.92484188 C-37.18881442 26.93821637 -42.30740321 26.93520742 -47.42700195 26.89379883 C-52.37482363 26.85439831 -57.32086012 26.85928522 -62.26869774 26.89392281 C-64.14919141 26.89948971 -66.02980193 26.88952739 -67.91012001 26.86323357 C-80.51760609 26.57098465 -80.51760609 26.57098465 -91.41870117 32.31469727 C-92.96623117 33.85622317 -94.49443957 35.41745806 -96 37 C-97.7077506 38.38107661 -99.43423002 39.73968894 -101.1875 41.0625 C-101.92355469 41.63097656 -102.65960938 42.19945312 -103.41796875 42.78515625 C-103.94003906 43.18605469 -104.46210938 43.58695313 -105 44 C-105 43.01 -105 42.02 -105 41 C-104.34 41 -103.68 41 -103 41 C-103 40.34 -103 39.68 -103 39 C-102.195625 38.731875 -101.39125 38.46375 -100.5625 38.1875 C-99.2940625 37.5996875 -99.2940625 37.5996875 -98 37 C-97.67 36.01 -97.34 35.02 -97 34 C-95.515 33.505 -95.515 33.505 -94 33 C-94 32.34 -94 31.68 -94 31 C-86.85989592 24.9011611 -79.98748173 24.84014957 -70.83984375 24.88647461 C-70.06814346 24.88632858 -69.29644318 24.88618256 -68.50135803 24.8860321 C-65.98004226 24.88672232 -63.45880268 24.89447249 -60.9375 24.90234375 C-59.17773479 24.9042111 -57.41796905 24.90563351 -55.65820312 24.90663147 C-51.04854879 24.91043168 -46.43892645 24.9202404 -41.82928467 24.93133545 C-37.11666293 24.94160348 -32.40403597 24.9461406 -27.69140625 24.95117188 C-18.46092352 24.96186512 -9.23046443 24.97891125 0 25 C-0.08378906 23.69804687 -0.16757812 22.39609375 -0.25390625 21.0546875 C-0.3571234 19.32814604 -0.45996835 17.6015823 -0.5625 15.875 C-0.64661133 14.59109375 -0.64661133 14.59109375 -0.73242188 13.28125 C-0.99798352 8.67818141 -1.00515346 4.54180454 0 0 Z " fill="#312D2D" transform="translate(407,173)"/>
<path d="M0 0 C0.495 1.485 0.495 1.485 1 3 C0.34 4.32 -0.32 5.64 -1 7 C-26.08 7 -51.16 7 -77 7 C-72.65703493 4.82851747 -69.4105419 4.65570156 -64.6953125 4.5859375 C-63.45899834 4.5568203 -63.45899834 4.5568203 -62.19770813 4.52711487 C-59.50691109 4.46669294 -56.8160881 4.42045727 -54.125 4.375 C-52.27611327 4.33714434 -50.42723626 4.29881137 -48.57836914 4.26000977 C-33.05217159 3.95111798 -17.52880073 3.88283551 -2 4 C-1.34 2.68 -0.68 1.36 0 0 Z " fill="#C1A280" transform="translate(317,167)"/>
<path d="M0 0 C28.71 0 57.42 0 87 0 C81 8 81 8 78 11 C78.51207144 7.24480943 79.2175082 4.33311475 81 1 C80.19170746 1.01474869 79.38341492 1.02949738 78.55062866 1.04469299 C70.87325667 1.18366626 63.19581347 1.31658134 55.51822472 1.4429636 C51.57263109 1.50811919 47.62710289 1.57548588 43.68164062 1.64819336 C39.86266398 1.71848378 36.0436259 1.78259066 32.22447586 1.84269524 C30.77906251 1.86647487 29.33368189 1.89235443 27.88834763 1.92053413 C18.52687898 2.10128994 9.32860419 1.83241272 0 1 C0 0.67 0 0.34 0 0 Z " fill="#C8A882" transform="translate(251,139)"/>
<path d="M0 0 C0.85860626 -0.00014603 1.71721252 -0.00029205 2.60183716 -0.0004425 C5.44796246 0.00025576 8.29402281 0.00804414 11.14013672 0.01586914 C13.11025965 0.01773363 15.08038304 0.01915739 17.05050659 0.02015686 C22.24222081 0.02397963 27.43390716 0.03380788 32.62561035 0.04486084 C37.92081322 0.05508011 43.21602058 0.05965559 48.51123047 0.06469727 C58.90577398 0.07543035 69.30029678 0.09250391 79.69482422 0.11352539 C79.69482422 0.44352539 79.69482422 0.77352539 79.69482422 1.11352539 C78.62185089 1.12383286 77.54887756 1.13414032 76.44338989 1.14476013 C66.34867964 1.24236988 56.25403275 1.345092 46.15942574 1.45286465 C40.96926146 1.50811064 35.77909156 1.56153332 30.58886719 1.61083984 C25.58327083 1.65845866 20.57774441 1.71080056 15.57223129 1.76646614 C13.6592164 1.78690096 11.74618231 1.80561215 9.8331337 1.82259941 C7.1608204 1.84661849 4.48864 1.87667641 1.81640625 1.90820312 C1.01943329 1.91395859 0.22246033 1.91971405 -0.59866333 1.92564392 C-4.58200728 1.89505794 -4.58200728 1.89505794 -8.30517578 3.11352539 C-8.96517578 2.45352539 -9.62517578 1.79352539 -10.30517578 1.11352539 C-7.07607968 -0.50102266 -3.5465892 -0.01563242 0 0 Z " fill="#AE7552" transform="translate(329.30517578125,200.886474609375)"/>
<path d="M0 0 C0.33 0 0.66 0 1 0 C1.05486931 1.99968134 1.09317894 3.99981913 1.125 6 C1.14820313 7.11375 1.17140625 8.2275 1.1953125 9.375 C1.0134048 12.75120697 0.33589528 15.63999308 -0.54589844 18.88916016 C-1.35226581 22.63746783 -1.24829757 26.37005262 -1.1875 30.1875 C-1.18685547 30.96802734 -1.18621094 31.74855469 -1.18554688 32.55273438 C-1.15546151 36.49391762 -0.963589 40.1533527 0 44 C0.33 44 0.66 44 1 44 C1.33 49.61 1.66 55.22 2 61 C-7.14065509 42.71868983 -3.51257197 19.27732953 0 0 Z " fill="#A68F70" transform="translate(131,236)"/>
<path d="M0 0 C0.66 0 1.32 0 2 0 C1.42655063 2.86724686 1.1385485 3.8614515 -1 6 C-1.763125 6.268125 -2.52625 6.53625 -3.3125 6.8125 C-6.21966742 7.90379758 -6.21966742 7.90379758 -8.625 10.625 C-9.40875 11.40875 -10.1925 12.1925 -11 13 C-11.99 13 -12.98 13 -14 13 C-14.33 14.32 -14.66 15.64 -15 17 C-15.99 17 -16.98 17 -18 17 C-18.66 18.32 -19.32 19.64 -20 21 C-20.99 21 -21.98 21 -23 21 C-23.33 21.99 -23.66 22.98 -24 24 C-25.65 24.33 -27.3 24.66 -29 25 C-25.43893823 21.34678506 -21.72473432 17.96408404 -17.8125 14.6875 C-17.24950195 14.21328613 -16.68650391 13.73907227 -16.10644531 13.25048828 C-11.7363617 9.58322479 -7.30407468 5.9983816 -2.828125 2.4609375 C-1.09166198 1.12864522 -1.09166198 1.12864522 0 0 Z " fill="#4F3D33" transform="translate(438,241)"/>
<path d="M0 0 C1.32 0 2.64 0 4 0 C4 9.57 4 19.14 4 29 C3.34 29 2.68 29 2 29 C2 20.09 2 11.18 2 2 C1.34 2 0.68 2 0 2 C0 1.34 0 0.68 0 0 Z " fill="#EDE6DB" transform="translate(194,474)"/>
<path d="M0 0 C1.29421875 -0.01417969 2.5884375 -0.02835937 3.921875 -0.04296875 C7.25 0.1875 7.25 0.1875 10.25 2.1875 C5.8121439 3.29915232 1.48043614 3.30277763 -3.0625 3.25 C-3.80306641 3.24548828 -4.54363281 3.24097656 -5.30664062 3.23632812 C-7.12112899 3.22462175 -8.93557534 3.20668898 -10.75 3.1875 C-10.75 3.5175 -10.75 3.8475 -10.75 4.1875 C-12.73 4.1875 -14.71 4.1875 -16.75 4.1875 C-17.08 4.8475 -17.41 5.5075 -17.75 6.1875 C-19.8125 6.8125 -19.8125 6.8125 -21.75 7.1875 C-15.11710012 0.32587944 -9.31664757 0.04677032 0 0 Z " fill="#DBD5C9" transform="translate(240.75,457.8125)"/>
<path d="M0 0 C-1.21060988 3.63182963 -2.50158416 4.43640753 -5.5 6.75 C-6.39460938 7.44609375 -7.28921875 8.1421875 -8.2109375 8.859375 C-9.13132812 9.56578125 -10.05171875 10.2721875 -11 11 C-12.70868894 12.33287759 -14.41705159 13.66617363 -16.125 15 C-17.41610839 16.00072069 -18.70755377 17.00100775 -20 18 C-20 17.01 -20 16.02 -20 15 C-19.34 15 -18.68 15 -18 15 C-18 14.34 -18 13.68 -18 13 C-17.195625 12.731875 -16.39125 12.46375 -15.5625 12.1875 C-14.716875 11.795625 -13.87125 11.40375 -13 11 C-12.67 10.01 -12.34 9.02 -12 8 C-11.01 7.67 -10.02 7.34 -9 7 C-9 6.34 -9 5.68 -9 5 C-7.5390625 3.7109375 -7.5390625 3.7109375 -5.625 2.375 C-4.68527344 1.70597656 -4.68527344 1.70597656 -3.7265625 1.0234375 C-2 0 -2 0 0 0 Z " fill="#3B322F" transform="translate(322,199)"/>
<path d="M0 0 C0.33 0 0.66 0 1 0 C1.04898438 1.2065625 1.09796875 2.413125 1.1484375 3.65625 C1.22353532 5.27085306 1.29908003 6.88543539 1.375 8.5 C1.4059375 9.29148437 1.436875 10.08296875 1.46875 10.8984375 C1.66185824 14.82497162 2.02315316 18.47427562 3.03125 22.28125 C3.84802499 25.41661206 4.22494952 27.80161542 4.125 31 C4.10695312 31.763125 4.08890625 32.52625 4.0703125 33.3125 C4.04710937 33.869375 4.02390625 34.42625 4 35 C-0.77396046 27.83905931 -0.26146178 19.25642021 -0.125 10.9375 C-0.11597656 9.88111328 -0.10695312 8.82472656 -0.09765625 7.73632812 C-0.0743167 5.15730747 -0.04157775 2.5787801 0 0 Z " fill="#635449" transform="translate(164,253)"/>
<path d="M0 0 C0.33 0 0.66 0 1 0 C1.10957031 0.81984375 1.21914062 1.6396875 1.33203125 2.484375 C1.49058594 3.56203125 1.64914063 4.6396875 1.8125 5.75 C1.96332031 6.81734375 2.11414063 7.8846875 2.26953125 8.984375 C3.01965535 12.08114403 4.00944991 13.57861852 6 16 C6 16.66 6 17.32 6 18 C7.32 18.33 8.64 18.66 10 19 C10 19.66 10 20.32 10 21 C12.64 21 15.28 21 18 21 C18 21.33 18 21.66 18 22 C14.54346604 22.50074536 11.44105573 22.67020562 8 22 C4.52109443 19.27899886 1.97165555 15.9433111 0 12 C-0.07065617 9.95944995 -0.08421976 7.91665743 -0.0625 5.875 C-0.05347656 4.77929688 -0.04445312 3.68359375 -0.03515625 2.5546875 C-0.02355469 1.71164062 -0.01195312 0.86859375 0 0 Z " fill="#505555" transform="translate(225,480)"/>
<path d="M0 0 C5.75 1.875 5.75 1.875 8 3 C8 3.66 8 4.32 8 5 C8.66 5 9.32 5 10 5 C10 5.66 10 6.32 10 7 C10.99 7 11.98 7 13 7 C15.19721798 9.19721798 15.94313647 10.52234635 16.3125 13.625 C16 16 16 16 14 18 C11.875 17.625 11.875 17.625 10 17 C11.32 16.01 12.64 15.02 14 14 C12.63688778 9.91066335 9.78819166 8.32534775 6.4375 5.875 C4.27066566 4.27313084 2.12925247 2.65246576 0 1 C0 0.67 0 0.34 0 0 Z " fill="#3B3331" transform="translate(452,205)"/>
<path d="M0 0 C-1.11375 0.433125 -1.11375 0.433125 -2.25 0.875 C-4.88834634 1.89265955 -4.88834634 1.89265955 -6.828125 3.0078125 C-10.19857771 4.54755169 -13.70338282 4.87744351 -17.34375 5.4375 C-19.98892035 5.86788124 -19.98892035 5.86788124 -22.09375 7.125 C-24.47303499 8.21713082 -25.5851036 7.862463 -28 7 C-6.29365311 -2.40274934 -6.29365311 -2.40274934 0 0 Z " fill="#A18B73" transform="translate(232,141)"/>
<path d="M0 0 C0 0.33 0 0.66 0 1 C-10.395 1.495 -10.395 1.495 -21 2 C-21.33 2.66 -21.66 3.32 -22 4 C-23.9375 4.5625 -23.9375 4.5625 -26 5 C-26.99 5.495 -26.99 5.495 -28 6 C-28.33 6.99 -28.66 7.98 -29 9 C-29.33 7.35 -29.66 5.7 -30 4 C-20.68803438 -1.48915868 -10.40780399 -0.39389069 0 0 Z " fill="#B4B4B0" transform="translate(380,458)"/>
<path d="M0 0 C0.89847656 -0.01611328 1.79695312 -0.03222656 2.72265625 -0.04882812 C7.68869109 -0.0524958 11.07162675 0.09863292 15.125 3.3125 C14.795 4.3025 14.465 5.2925 14.125 6.3125 C13.01125 5.65765625 11.8975 5.0028125 10.75 4.328125 C5.82359854 1.86492427 1.5405888 1.8462092 -3.875 2.0625 C-4.74511719 2.08054687 -5.61523438 2.09859375 -6.51171875 2.1171875 C-8.63329907 2.16381564 -10.75430335 2.23553923 -12.875 2.3125 C-8.62694557 -0.51953629 -4.99388731 -0.0177592 0 0 Z " fill="#555B5B" transform="translate(241.875,456.6875)"/>
<path d="M0 0 C0.99 0 1.98 0 3 0 C1.45771856 4.40064304 -2.01426977 6.59595898 -5.625 9.25 C-6.54152344 9.93835938 -6.54152344 9.93835938 -7.4765625 10.640625 C-8.9790792 11.76751252 -10.48884409 12.88472437 -12 14 C-12.66 13.34 -13.32 12.68 -14 12 C-12.37982158 10.66081194 -10.75370657 9.3288031 -9.125 8 C-8.22007812 7.2575 -7.31515625 6.515 -6.3828125 5.75 C-4 4 -4 4 -2 4 C-2 3.34 -2 2.68 -2 2 C-1.34 2 -0.68 2 0 2 C0 1.34 0 0.68 0 0 Z " fill="#B47853" transform="translate(458,222)"/>
<path d="M0 0 C0.33 0.99 0.66 1.98 1 3 C-0.36328125 5.04296875 -0.36328125 5.04296875 -2.3125 7.1875 C-2.94800781 7.90292969 -3.58351562 8.61835938 -4.23828125 9.35546875 C-6 11 -6 11 -8 11 C-8 11.66 -8 12.32 -8 13 C-8.99 12.67 -9.98 12.34 -11 12 C-9.54234835 10.37438849 -8.08385614 8.74953066 -6.625 7.125 C-5.81289062 6.22007812 -5.00078125 5.31515625 -4.1640625 4.3828125 C-2.80923795 2.89103817 -1.42494565 1.42494565 0 0 Z " fill="#B79A79" transform="translate(168,172)"/>
<path d="M0 0 C0 4.06171615 -1.58522906 5.45694767 -4.19921875 8.4140625 C-6.96641222 10.85111358 -9.4073702 11.35332664 -13 12 C-8.87675353 7.74790208 -4.48717034 3.86364295 0 0 Z " fill="#A76E4B" transform="translate(318,203)"/>
<path d="M0 0 C3.27066566 -0.08706892 6.54103365 -0.14041241 9.8125 -0.1875 C10.74126953 -0.21263672 11.67003906 -0.23777344 12.62695312 -0.26367188 C13.9659668 -0.27817383 13.9659668 -0.27817383 15.33203125 -0.29296875 C16.56530151 -0.31653442 16.56530151 -0.31653442 17.82348633 -0.34057617 C20.47502434 0.07433079 21.33263592 0.95529751 23 3 C15.32153678 2.43434519 7.65656792 1.8123221 0 1 C0 0.67 0 0.34 0 0 Z " fill="#D7D2C7" transform="translate(158,441)"/>
<path d="M0 0 C0.66 0.33 1.32 0.66 2 1 C0.45333439 4.46388652 -1.61390092 7.18623827 -4 10.125 C-4.70125 10.99382812 -5.4025 11.86265625 -6.125 12.7578125 C-8 15 -8 15 -10 17 C-9.55946315 12.15409462 -7.25494123 8.51858133 -4 5 C-3.34 5 -2.68 5 -2 5 C-1.34 3.35 -0.68 1.7 0 0 Z " fill="#323232" transform="translate(161,175)"/>
<path d="M0 0 C0.33 0.99 0.66 1.98 1 3 C-0.8125 5 -0.8125 5 -3 7 C-3.99 7 -4.98 7 -6 7 C-6 7.66 -6 8.32 -6 9 C-6.66 9 -7.32 9 -8 9 C-8 7.68 -8 6.36 -8 5 C-9.2065625 4.814375 -9.2065625 4.814375 -10.4375 4.625 C-11.283125 4.41875 -12.12875 4.2125 -13 4 C-13.33 3.34 -13.66 2.68 -14 2 C-10.44219804 2.60990891 -7.3171411 3.5783681 -4 5 C-2.68 3.35 -1.36 1.7 0 0 Z " fill="#454B4C" transform="translate(191,456)"/>
<path d="M0 0 C0 0.33 0 0.66 0 1 C-5.94 1.495 -5.94 1.495 -12 2 C-12 2.66 -12 3.32 -12 4 C-18.75 6.125 -18.75 6.125 -21 5 C-13.84639381 0.6550765 -8.34642647 -0.71404789 0 0 Z " fill="#A7A8A3" transform="translate(499,457)"/>
<path d="M0 0 C0.33 0.66 0.66 1.32 1 2 C-1.18610882 6.37221763 -3.32241995 9.71644638 -7 13 C-7 8.40848794 -6.31497074 7.66817876 -3.5 4.25 C-2.8503125 3.45078125 -2.200625 2.6515625 -1.53125 1.828125 C-1.0259375 1.22484375 -0.520625 0.6215625 0 0 Z " fill="#3E3837" transform="translate(333,145)"/>
<path d="M0 0 C0.99 0.33 1.98 0.66 3 1 C1.58367866 2.10460959 0.16692736 3.20866788 -1.25 4.3125 C-2.03890625 4.92738281 -2.8278125 5.54226562 -3.640625 6.17578125 C-5.7462297 7.80379018 -7.86609343 9.40935863 -10 11 C-10.33 10.01 -10.66 9.02 -11 8 C-10.360625 7.896875 -9.72125 7.79375 -9.0625 7.6875 C-8.381875 7.460625 -7.70125 7.23375 -7 7 C-6.67 6.01 -6.34 5.02 -6 4 C-3.125 1.75 -3.125 1.75 0 0 Z " fill="#BE9C79" transform="translate(201,189)"/>
<path d="M0 0 C0.33 0 0.66 0 1 0 C1 2.31 1 4.62 1 7 C3.31 7.66 5.62 8.32 8 9 C8 9.33 8 9.66 8 10 C4.625 10.125 4.625 10.125 1 10 C-1 8 -1 8 -1.1875 4.4375 C-1 1 -1 1 0 0 Z " fill="#30373D" transform="translate(363,494)"/>
<path d="M0 0 C0.33 0 0.66 0 1 0 C1.44070796 8.66725664 1.44070796 8.66725664 -2 13 C-5 15 -5 15 -7.1875 14.625 C-7.785625 14.41875 -8.38375 14.2125 -9 14 C-6.66785852 12.79371992 -4.50357861 11.8345262 -2 11 C-1.34 7.37 -0.68 3.74 0 0 Z " fill="#393F42" transform="translate(322,462)"/>
<path d="M0 0 C4.5076467 0.53031138 7.41954788 2.25221116 11 5 C11 5.66 11 6.32 11 7 C3.62702703 4.65405405 3.62702703 4.65405405 1 3 C0.67 2.01 0.34 1.02 0 0 Z " fill="#3B3A37" transform="translate(209,341)"/>
<path d="M0 0 C3.0831351 1.19899698 6.06279492 2.47700477 9 4 C9 4.66 9 5.32 9 6 C9.99 6.33 10.98 6.66 12 7 C12 7.66 12 8.32 12 9 C12.99 9.33 13.98 9.66 15 10 C14.67 10.66 14.34 11.32 14 12 C11.66372963 10.19117843 9.33092238 8.37818954 7 6.5625 C6.33226562 6.04623047 5.66453125 5.52996094 4.9765625 4.99804688 C3.29922866 3.68869954 1.64735006 2.34687677 0 1 C0 0.67 0 0.34 0 0 Z " fill="#413531" transform="translate(426,184)"/>
<path d="M0 0 C0.33 0 0.66 0 1 0 C1.24970296 2.72868171 1.47531211 5.45586014 1.6875 8.1875 C1.76033203 8.95642578 1.83316406 9.72535156 1.90820312 10.51757812 C2.25073351 15.21225927 2.19351677 18.21481029 -1 22 C-1.66 22 -2.32 22 -3 22 C-2.68289063 21.18273437 -2.36578125 20.36546875 -2.0390625 19.5234375 C-0.84890917 15.48765441 -0.55640657 11.80490968 -0.375 7.625 C-0.33632813 6.88894531 -0.29765625 6.15289062 -0.2578125 5.39453125 C-0.16442002 3.59672594 -0.0811629 1.79839892 0 0 Z " fill="#7A7A77" transform="translate(339,459)"/>
<path d="M0 0 C-0.99 0 -1.98 0 -3 0 C-3 0.66 -3 1.32 -3 2 C-6.41831915 4.5393228 -8.75776898 5.3636198 -13 5 C-9.25316241 0.83684713 -5.67827303 -2.10306409 0 0 Z " fill="#C6C2BA" transform="translate(158,443)"/>
<path d="M0 0 C0.66 0.33 1.32 0.66 2 1 C-0.625 5.875 -0.625 5.875 -4 7 C-4.33 7.66 -4.66 8.32 -5 9 C-5.66 9 -6.32 9 -7 9 C-5.44499019 5.18315774 -2.96404505 2.80804268 0 0 Z " fill="#464B4A" transform="translate(157,457)"/>
<path d="M0 0 C-1.36911804 3.1489715 -2.8752136 5.0478487 -5.5 7.25 C-6.41265625 8.03117187 -6.41265625 8.03117187 -7.34375 8.828125 C-9 10 -9 10 -11 10 C-11 9.34 -11 8.68 -11 8 C-10.34 8 -9.68 8 -9 8 C-9 7.34 -9 6.68 -9 6 C-8.34 6 -7.68 6 -7 6 C-7 5.34 -7 4.68 -7 4 C-6.34 4 -5.68 4 -5 4 C-5 3.34 -5 2.68 -5 2 C-2 0 -2 0 0 0 Z " fill="#B7754D" transform="translate(421,254)"/>
<path d="M0 0 C-0.99 1.485 -0.99 1.485 -2 3 C-5.125 3.1875 -5.125 3.1875 -8 3 C-8.33 3.66 -8.66 4.32 -9 5 C-11.0625 5.625 -11.0625 5.625 -13 6 C-8.69305903 1.54454382 -6.32208571 -0.28098159 0 0 Z " fill="#BFBCB5" transform="translate(232,459)"/>
<path d="M0 0 C1.32 0.33 2.64 0.66 4 1 C1.03 4.96 1.03 4.96 -2 9 C-3 5 -3 5 -1.5625 2.25 C-1.046875 1.5075 -0.53125 0.765 0 0 Z " fill="#BF997A" transform="translate(332,141)"/>
<path d="M0 0 C1.21236328 0.01353516 1.21236328 0.01353516 2.44921875 0.02734375 C3.37154297 0.04474609 3.37154297 0.04474609 4.3125 0.0625 C-0.56543583 3.31445722 -4.91141379 3.17575659 -10.6875 3.0625 C-6.91890928 0.55010618 -4.42510751 -0.06413199 0 0 Z " fill="#CEAC85" transform="translate(236.6875,139.9375)"/>
<path d="M0 0 C0.66 0.33 1.32 0.66 2 1 C-2.30769231 6.78461538 -2.30769231 6.78461538 -5.8125 7.875 C-6.8953125 7.936875 -6.8953125 7.936875 -8 8 C-5.58443874 4.80800833 -3.31996462 2.25283313 0 0 Z " fill="#AF957D" transform="translate(177,164)"/>
<path d="M0 0 C-0.33 0.99 -0.66 1.98 -1 3 C-4.65257704 4.62336757 -7.19362399 5.46399077 -11 4 C-7.34730776 1.66633552 -4.38405624 0 0 0 Z " fill="#292D2E" transform="translate(215,142)"/>
<path d="M0 0 C4.875 1.875 4.875 1.875 6 3 C6.1875 5.4375 6.1875 5.4375 6 8 C5.34 8.66 4.68 9.32 4 10 C1.875 9.625 1.875 9.625 0 9 C1.32 8.01 2.64 7.02 4 6 C3.0022242 3.00667261 2.2477975 2.05233685 0 0 Z " fill="#453833" transform="translate(462,213)"/>
<path d="M0 0 C0.33 0 0.66 0 1 0 C1 3.96 1 7.92 1 12 C0.01 12.495 0.01 12.495 -1 13 C-2.51403812 8.15507803 -1.36602172 4.7408989 0 0 Z " fill="#EFE1CE" transform="translate(145,473)"/>
<path d="M0 0 C4.29 0 8.58 0 13 0 C9 2 9 2 5.9375 1.9375 C2.98228216 1.70260336 2.98228216 1.70260336 1.125 3.5 C0.75375 3.995 0.3825 4.49 0 5 C0 3.35 0 1.7 0 0 Z " fill="#EFE6DB" transform="translate(169,474)"/>
<path d="M0 0 C0.66 0.33 1.32 0.66 2 1 C0.515 3.475 0.515 3.475 -1 6 C-2.32 5.67 -3.64 5.34 -5 5 C-3.35 3.35 -1.7 1.7 0 0 Z " fill="#B69A7D" transform="translate(187,157)"/>
<path d="M0 0 C1.46015291 0.28241641 2.91809793 0.57626614 4.375 0.875 C5.18710938 1.03742188 5.99921875 1.19984375 6.8359375 1.3671875 C9 2 9 2 11 4 C9.54119891 3.85892253 8.08296449 3.71197585 6.625 3.5625 C5.40683594 3.44068359 5.40683594 3.44068359 4.1640625 3.31640625 C2 3 2 3 0 2 C0 1.34 0 0.68 0 0 Z " fill="#444138" transform="translate(208,382)"/>
<path d="M0 0 C0.66 0.33 1.32 0.66 2 1 C-1.32307692 5.8 -1.32307692 5.8 -4.75 6.8125 C-5.4925 6.874375 -6.235 6.93625 -7 7 C-4.66666667 4.66666667 -2.33333333 2.33333333 0 0 Z " fill="#4E3F37" transform="translate(452,230)"/>
<path d="M0 0 C0.33 0.99 0.66 1.98 1 3 C-0.65 4.65 -2.3 6.3 -4 8 C-4 4.09161134 -2.49432124 2.88405893 0 0 Z " fill="#52423C" transform="translate(186,205)"/>
<path d="M0 0 C0.66 0.33 1.32 0.66 2 1 C1.21654285 2.17219543 0.42297164 3.33763668 -0.375 4.5 C-0.81585938 5.1496875 -1.25671875 5.799375 -1.7109375 6.46875 C-2.13632812 6.9740625 -2.56171875 7.479375 -3 8 C-3.66 8 -4.32 8 -5 8 C-3.8141763 4.62496331 -2.72426311 2.35277269 0 0 Z " fill="#B9B8AF" transform="translate(352,484)"/>
<path d="M0 0 C0.66 0 1.32 0 2 0 C1.75 1.875 1.75 1.875 1 4 C-1.0625 5.25 -1.0625 5.25 -3 6 C-2.42655063 3.13275314 -2.1385485 2.1385485 0 0 Z " fill="#433935" transform="translate(438,241)"/>
<path d="M0 0 C0.6875 1.6875 0.6875 1.6875 1 4 C-0.3125 6.75 -0.3125 6.75 -2 9 C-2.66 9 -3.32 9 -4 9 C-2.94124926 5.59687262 -1.99097846 2.98646769 0 0 Z " fill="#A68E75" transform="translate(145,201)"/>
<path d="M0 0 C1.18851562 0.00902344 2.37703125 0.01804688 3.6015625 0.02734375 C4.51679688 0.03894531 5.43203125 0.05054688 6.375 0.0625 C6.375 0.3925 6.375 0.7225 6.375 1.0625 C5.60414063 1.12308594 4.83328125 1.18367187 4.0390625 1.24609375 C2.53472656 1.37177734 2.53472656 1.37177734 1 1.5 C-0.49660156 1.62181641 -0.49660156 1.62181641 -2.0234375 1.74609375 C-4.60427613 1.91215626 -4.60427613 1.91215626 -6.625 3.0625 C-7.285 2.4025 -7.945 1.7425 -8.625 1.0625 C-5.74084117 -0.37957941 -3.20778472 -0.03144887 0 0 Z " fill="#AA724F" transform="translate(327.625,200.9375)"/>
<path d="M0 0 C0.99 0.33 1.98 0.66 3 1 C0.06171403 3.50298434 -2.17902761 4.46930939 -6 5 C-2.25 1.125 -2.25 1.125 0 0 Z " fill="#313231" transform="translate(195,150)"/>
<path d="M0 0 C1.485 0.99 1.485 0.99 3 2 C2.67 2.66 2.34 3.32 2 4 C2.66 4 3.32 4 4 4 C4.33 4.99 4.66 5.98 5 7 C4.34 7.66 3.68 8.32 3 9 C0 2.25 0 2.25 0 0 Z " fill="#C6BFB9" transform="translate(409,494)"/>
<path d="M0 0 C0.99 0.33 1.98 0.66 3 1 C1.6875 3 1.6875 3 0 5 C-0.99 5 -1.98 5 -3 5 C-1.125 1.125 -1.125 1.125 0 0 Z " fill="#3D4243" transform="translate(488,471)"/>
<path d="M0 0 C0.66 0.33 1.32 0.66 2 1 C1.01 2.485 1.01 2.485 0 4 C-0.66 4 -1.32 4 -2 4 C-2.33 4.99 -2.66 5.98 -3 7 C-3.33 5.35 -3.66 3.7 -4 2 C-2.125 0.9375 -2.125 0.9375 0 0 Z " fill="#B0AEA8" transform="translate(354,460)"/>
<path d="M0 0 C2.64 0.33 5.28 0.66 8 1 C8 1.66 8 2.32 8 3 C5.36 2.67 2.72 2.34 0 2 C0 1.34 0 0.68 0 0 Z " fill="#3E3834" transform="translate(230,350)"/>
<path d="M0 0 C0.33 0.66 0.66 1.32 1 2 C-1.40436026 5.60654039 -2.94679607 5.85452932 -7 7 C-4.66666667 4.66666667 -2.33333333 2.33333333 0 0 Z " fill="#473B34" transform="translate(461,223)"/>
<path d="M0 0 C0.33 0.99 0.66 1.98 1 3 C-0.9375 6.1875 -0.9375 6.1875 -3 9 C-3.33 8.01 -3.66 7.02 -4 6 C-2.0625 2.8125 -2.0625 2.8125 0 0 Z " fill="#333332" transform="translate(148,193)"/>
<path d="M0 0 C0.33 0.99 0.66 1.98 1 3 C0.01 4.485 0.01 4.485 -1 6 C-1.66 6 -2.32 6 -3 6 C-3 6.66 -3 7.32 -3 8 C-3.66 7.67 -4.32 7.34 -5 7 C-3.35 4.69 -1.7 2.38 0 0 Z " fill="#A88D72" transform="translate(156,185)"/>
</svg>
