<?xml version="1.0" encoding="UTF-8"?>
<svg version="1.1" xmlns="http://www.w3.org/2000/svg" width="736" height="736">
<path d="M0 0 C2.06650149 0.00373754 4.13300476 0.006581 6.19950867 0.00857544 C11.59659861 0.01615359 16.99357818 0.03575107 22.390625 0.0579834 C27.91469836 0.07856823 33.43878983 0.08760399 38.96289062 0.09765625 C49.7708814 0.1190033 60.57879084 0.15306765 71.38671875 0.1953125 C69.81891816 3.54553241 68.2583325 5.39823282 65.38671875 7.7578125 C62.82899412 9.86887566 61.25358375 11.39501501 59.38671875 14.1953125 C58.39671875 14.1953125 57.40671875 14.1953125 56.38671875 14.1953125 C56.38671875 14.8553125 56.38671875 15.5153125 56.38671875 16.1953125 C55.39671875 16.8553125 54.40671875 17.5153125 53.38671875 18.1953125 C53.05671875 19.1853125 52.72671875 20.1753125 52.38671875 21.1953125 C50.63671875 22.703125 50.63671875 22.703125 48.38671875 24.3203125 C43.90005784 27.67274553 40.07986698 31.41013474 36.234375 35.47265625 C34.38671875 37.1953125 34.38671875 37.1953125 32.38671875 37.1953125 C31.72671875 38.5153125 31.06671875 39.8353125 30.38671875 41.1953125 C29.7574649 41.20339935 29.12821106 41.21148621 28.47988892 41.21981812 C21.89281009 41.30630169 15.30601714 41.40582112 8.71923828 41.51269531 C6.26551133 41.55082777 3.81173147 41.58570723 1.35791016 41.6171875 C-2.18215767 41.66318107 -5.72186618 41.72111788 -9.26171875 41.78125 C-10.89045425 41.79857681 -10.89045425 41.79857681 -12.55209351 41.81625366 C-21.55882218 41.9882779 -29.73894024 43.03844303 -37.98828125 46.8203125 C-41.69046187 48.51022608 -43.46207607 49.1953125 -47.61328125 49.1953125 C-47.61328125 49.8553125 -47.61328125 50.5153125 -47.61328125 51.1953125 C-48.49628906 51.59621094 -49.37929687 51.99710937 -50.2890625 52.41015625 C-73.38747687 63.21853194 -89.46693165 82.04460214 -98.3515625 105.6953125 C-98.76792969 106.8503125 -99.18429688 108.0053125 -99.61328125 109.1953125 C-100.27328125 109.1953125 -100.93328125 109.1953125 -101.61328125 109.1953125 C-107.42284236 132.65917095 -107.54650905 163.55029829 -96.38671875 185.62109375 C-95.19694924 187.53623887 -93.91454847 189.35478138 -92.61328125 191.1953125 C-91.68991554 192.79563254 -90.77372862 194.40010791 -89.86328125 196.0078125 C-77.97298298 215.74450049 -58.15461223 232.35126373 -35.61328125 238.1953125 C-34.33803014 238.68393503 -33.06736176 239.18463533 -31.80078125 239.6953125 C-22.3279888 243.2634586 -12.89172741 243.5222858 -2.85546875 243.609375 C-1.01287476 243.63584106 -1.01287476 243.63584106 0.86694336 243.6628418 C5.41507355 243.7254681 9.96341444 243.77195798 14.51171875 243.8203125 C24.70046875 243.9440625 34.88921875 244.0678125 45.38671875 244.1953125 C45.38671875 214.4953125 45.38671875 184.7953125 45.38671875 154.1953125 C25.58671875 154.1953125 5.78671875 154.1953125 -14.61328125 154.1953125 C-14.88140625 148.3584375 -15.14953125 142.5215625 -15.42578125 136.5078125 C-15.60330933 133.78785034 -15.60330933 133.78785034 -15.78442383 131.01293945 C-16.03364806 124.36032164 -16.15785741 118.60474217 -11.81542969 113.22363281 C-8.67622699 109.87963017 -5.21760913 107.01780214 -1.61328125 104.1953125 C-0.1485571 102.91089743 1.31180381 101.62142186 2.76171875 100.3203125 C3.37789062 99.79695313 3.9940625 99.27359375 4.62890625 98.734375 C7.07809799 96.58997156 9.32553431 94.26670029 11.60546875 91.9453125 C14.1056806 89.48896401 16.76352391 87.23221882 19.41796875 84.9453125 C21.31694946 83.25732964 23.10677863 81.50761516 24.88671875 79.6953125 C27.19691316 77.3435865 29.56454063 75.14491985 32.07421875 73.0078125 C35.68811487 69.89916011 39.0395995 66.58417942 42.38671875 63.1953125 C46.32342371 59.20950613 50.32575914 55.40392347 54.59375 51.76953125 C57.05806164 49.60587636 59.32408322 47.2680856 61.62109375 44.9296875 C63.39895959 43.18328831 65.2415727 41.56312011 67.13671875 39.9453125 C70.59059848 36.97524472 73.81388828 33.81079511 77.01171875 30.5703125 C88.19677284 19.24953138 88.19677284 19.24953138 94.05934143 19.10438538 C95.67835138 19.11426839 97.29733363 19.12947118 98.91625977 19.14868164 C100.74727663 19.16145975 102.57829588 19.17389995 104.40931702 19.18605042 C105.87045772 19.19792483 105.87045772 19.19792483 107.36111641 19.21003914 C113.59751146 19.25209452 119.83409378 19.24031089 126.07060337 19.24015141 C131.55120688 19.24314629 137.03067177 19.26377571 142.51098633 19.32202148 C147.81121346 19.37730672 153.10952956 19.3836209 158.40995598 19.35732841 C160.42612355 19.35609635 162.44238508 19.37251258 164.45825386 19.40724373 C175.57817499 19.92879877 175.57817499 19.92879877 185.57345581 15.97702026 C187.80960509 13.49089672 189.58413258 11.00149206 191.38671875 8.1953125 C200.39938263 1.02196778 209.1758462 0.312103 220.38671875 1.1953125 C223.87161096 1.82932136 227.25298129 2.50309427 230.38671875 4.1953125 C230.71671875 5.1853125 231.04671875 6.1753125 231.38671875 7.1953125 C233.25839008 8.26417077 233.25839008 8.26417077 235.38671875 9.1953125 C242.14172413 13.94043933 246.87361011 20.31126814 249.38671875 28.1953125 C249.60294578 30.99222322 249.72069711 33.65189846 249.69921875 36.4453125 C249.6935791 37.20457031 249.68793945 37.96382813 249.68212891 38.74609375 C249.44419447 49.73348219 245.3581219 57.53343669 238.13671875 65.7578125 C236.38671875 67.1953125 236.38671875 67.1953125 234.38671875 67.1953125 C234.05671875 68.1853125 233.72671875 69.1753125 233.38671875 70.1953125 C227.21209716 74.049617 220.28443596 74.5838885 213.19921875 74.6328125 C212.45164307 74.64272217 211.70406738 74.65263184 210.93383789 74.6628418 C203.91421879 74.55529996 197.76425057 72.71063611 192.19921875 68.3203125 C191.58691406 67.84851563 190.97460938 67.37671875 190.34375 66.890625 C188.38671875 65.1953125 188.38671875 65.1953125 186.22875977 62.63673401 C182.61038561 59.52841276 180.68259846 59.52724723 175.95703125 59.43725586 C175.22615799 59.41725021 174.49528473 59.39724457 173.74226379 59.37663269 C171.33172091 59.31906918 168.92288321 59.29944961 166.51171875 59.28515625 C164.82364362 59.26398659 163.13557394 59.24237815 161.44750977 59.22035217 C157.90677002 59.18140631 154.36662435 59.16413707 150.82568359 59.15893555 C146.31954559 59.14831383 141.81871299 59.05957027 137.31402588 58.95067501 C133.8236388 58.87950788 130.33449268 58.86356306 126.84344482 58.86209297 C125.18488528 58.8525884 123.52630492 58.82363492 121.86846924 58.77372551 C113.52095346 58.54313779 107.2188361 58.73624359 100.7109375 64.40931034 C98.13657533 66.90009792 95.76262624 69.5134854 93.38671875 72.1953125 C92.11548365 73.39803342 90.83213703 74.58866455 89.51953125 75.74609375 C84.57704368 80.28172782 79.68271108 84.83821958 74.984375 89.62890625 C72.59770808 91.96889019 70.04824149 94.11028616 67.51171875 96.28515625 C64.27521955 99.19443586 61.27949167 102.3316 58.26953125 105.47265625 C56.38671875 107.1953125 56.38671875 107.1953125 54.38671875 107.1953125 C54.24234375 107.8346875 54.09796875 108.4740625 53.94921875 109.1328125 C53.38671875 111.1953125 53.38671875 111.1953125 52.38671875 112.1953125 C63.60671875 112.5253125 74.82671875 112.8553125 86.38671875 113.1953125 C86.38671875 169.6253125 86.38671875 226.0553125 86.38671875 284.1953125 C68.58734375 284.2778125 50.78796875 284.3603125 32.44921875 284.4453125 C24.06721069 284.49993652 24.06721069 284.49993652 15.51586914 284.55566406 C8.61022949 284.57373047 8.61022949 284.57373047 5.36155701 284.5770874 C3.12727151 284.58316752 0.89299784 284.59710418 -1.34120178 284.61761475 C-15.054325 284.73704161 -27.43964137 284.13047954 -40.61328125 280.1953125 C-42.25900037 279.76794594 -43.90587475 279.34495864 -45.5546875 278.9296875 C-47.34712891 278.44242188 -47.34712891 278.44242188 -49.17578125 277.9453125 C-51.03396484 277.44257812 -51.03396484 277.44257812 -52.9296875 276.9296875 C-53.81527344 276.68734375 -54.70085937 276.445 -55.61328125 276.1953125 C-55.61328125 275.5353125 -55.61328125 274.8753125 -55.61328125 274.1953125 C-56.74765625 274.1334375 -57.88203125 274.0715625 -59.05078125 274.0078125 C-64.32697074 273.34017517 -68.14473686 270.94113523 -72.61328125 268.1953125 C-73.69996094 267.59783203 -73.69996094 267.59783203 -74.80859375 266.98828125 C-83.04126983 262.36961043 -90.37705106 256.4427417 -97.78491211 250.62744141 C-99.29720798 249.44288705 -100.8244525 248.27744483 -102.35546875 247.1171875 C-104.88493316 244.96407939 -106.85551888 242.66665617 -108.92578125 240.0703125 C-109.704375 239.09578125 -110.48296875 238.12125 -111.28515625 237.1171875 C-112.0534375 236.15296875 -112.82171875 235.18875 -113.61328125 234.1953125 C-114.2990625 233.37546875 -114.98484375 232.555625 -115.69140625 231.7109375 C-136.6440799 206.46874011 -146.80187946 175.20020964 -146.79858398 142.73974609 C-146.80076988 140.33282763 -146.8189759 137.92636898 -146.83789062 135.51953125 C-146.876347 124.91802494 -146.12551133 115.29297399 -142.61328125 105.1953125 C-142.38640625 103.9371875 -142.15953125 102.6790625 -141.92578125 101.3828125 C-138.18174849 84.14284771 -128.28609853 67.9347994 -117.61328125 54.1953125 C-116.87980469 53.24527344 -116.14632812 52.29523438 -115.390625 51.31640625 C-111.38398965 46.26515928 -107.32268542 41.73391675 -102.33984375 37.6328125 C-100.57305538 36.21880757 -100.57305538 36.21880757 -99.01171875 34.5078125 C-97.61328125 33.1953125 -97.61328125 33.1953125 -95.61328125 33.1953125 C-95.61328125 32.5353125 -95.61328125 31.8753125 -95.61328125 31.1953125 C-93.23154525 29.37274041 -90.85066087 27.6755829 -88.36328125 26.0078125 C-87.63834473 25.51748535 -86.9134082 25.0271582 -86.16650391 24.52197266 C-69.1319243 13.09931357 -69.1319243 13.09931357 -61.61328125 12.1953125 C-61.61328125 11.5353125 -61.61328125 10.8753125 -61.61328125 10.1953125 C-58.97328125 9.8653125 -56.33328125 9.5353125 -53.61328125 9.1953125 C-53.61328125 8.5353125 -53.61328125 7.8753125 -53.61328125 7.1953125 C-50.71966119 6.39475447 -47.8237487 5.6048573 -44.92578125 4.8203125 C-44.12849609 4.59859375 -43.33121094 4.376875 -42.50976562 4.1484375 C-28.25043741 0.31589079 -14.66654679 -0.07853565 0 0 Z " fill="#CD7E48" transform="translate(286.61328125,267.8046875)"/>
<path d="M0 0 C0 0.66 0 1.32 0 2 C0.969375 2.2475 1.93875 2.495 2.9375 2.75 C10.94143525 5.06129146 17.93624996 8.92639447 24.8125 13.5625 C25.59294678 14.0877124 26.37339355 14.6129248 27.17749023 15.15405273 C50.48763081 31.16251095 68.00049026 55.75688187 74.546875 83.453125 C76.21301287 92.81796891 76.08983993 102.26781221 76.125 111.75 C76.12975342 112.81557129 76.13450684 113.88114258 76.1394043 114.97900391 C76.11806161 125.11441015 75.11622715 133.70597995 71.8125 143.3125 C71.49861328 144.23530762 71.18472656 145.15811523 70.86132812 146.10888672 C60.94724879 174.59433993 40.35973751 199.60587263 13 213 C8.62447207 214.80916939 4.15454517 216.31456173 -0.34765625 217.7734375 C-3.79927056 218.81595371 -3.79927056 218.81595371 -6.0234375 220.09765625 C-9.06493172 221.48616448 -12.27333097 221.69774162 -15.5625 222.0625 C-20.85211779 222.6644833 -20.85211779 222.6644833 -26 224 C-39.12966206 224.98242404 -52.65993343 224.95843965 -65.5 221.875 C-66.68698486 221.59342041 -66.68698486 221.59342041 -67.89794922 221.30615234 C-74.9493337 219.40273844 -80.19382915 216.40308543 -87 213 C-87 260.19 -87 307.38 -87 356 C-100.2 356 -113.4 356 -127 356 C-127 288.68 -127 221.36 -127 152 C-98 152 -98 152 -93 156 C-91.84093345 157.26118695 -90.71371704 158.5526071 -89.625 159.875 C-79.500463 171.57542442 -65.45559836 179.9356634 -50 182 C-38.19970739 182.68766583 -26.83728299 182.07022246 -15.2734375 179.65625 C-12 179 -12 179 -9 179 C-8.67 178.01 -8.34 177.02 -8 176 C-6.68 176 -5.36 176 -4 176 C-4 175.34 -4 174.68 -4 174 C-2.39801383 172.89208433 -0.74017158 171.86457308 0.9375 170.875 C17.95644187 160.27089006 28.39273709 144.28978753 33.40893555 125.01171875 C34.47012558 119.60451501 34.5303938 114.245822 34.5 108.75 C34.49500488 107.56212891 34.49000977 106.37425781 34.48486328 105.15039062 C34.30135181 95.89128766 33.04611581 88.42318041 29 80 C28.54238281 79.01386719 28.08476563 78.02773438 27.61328125 77.01171875 C21.91579592 65.72601493 12.58101331 53.79050665 1 48 C1 47.34 1 46.68 1 46 C-0.0209375 45.8453125 -0.0209375 45.8453125 -1.0625 45.6875 C-4.62915989 44.85274981 -7.66222194 43.50527246 -11 42 C-11 41.34 -11 40.68 -11 40 C-11.94101562 39.86722656 -12.88203125 39.73445313 -13.8515625 39.59765625 C-15.09679687 39.42105469 -16.34203125 39.24445313 -17.625 39.0625 C-18.85476563 38.88847656 -20.08453125 38.71445313 -21.3515625 38.53515625 C-23.53220472 38.2152976 -25.70930818 37.86604098 -27.875 37.45703125 C-46.28959302 34.76389702 -64.48345364 37.94155148 -79.62988281 49.21289062 C-90.94534388 57.92138217 -90.94534388 57.92138217 -98 70 C-113.51 70 -129.02 70 -145 70 C-143.16925446 62.67701785 -140.44663213 56.52837845 -136.4375 50.1875 C-136.00421387 49.4968042 -135.57092773 48.8061084 -135.12451172 48.09448242 C-131.62293925 42.66168233 -127.72451815 37.98382578 -123.2265625 33.33203125 C-120.96068973 31.03507287 -120.96068973 31.03507287 -119.015625 28.46484375 C-104.20696222 10.3558007 -76.59484074 -1.93674837 -53.953125 -4.6796875 C-36.31984755 -6.10847085 -16.91450673 -5.63816891 0 0 Z " fill="#41604A" transform="translate(538,196)"/>
<path d="M0 0 C2.06650149 0.00373754 4.13300476 0.006581 6.19950867 0.00857544 C11.59659861 0.01615359 16.99357818 0.03575107 22.390625 0.0579834 C27.91469836 0.07856823 33.43878983 0.08760399 38.96289062 0.09765625 C49.7708814 0.1190033 60.57879084 0.15306765 71.38671875 0.1953125 C69.81891816 3.54553241 68.2583325 5.39823282 65.38671875 7.7578125 C62.82899412 9.86887566 61.25358375 11.39501501 59.38671875 14.1953125 C58.39671875 14.1953125 57.40671875 14.1953125 56.38671875 14.1953125 C56.38671875 14.8553125 56.38671875 15.5153125 56.38671875 16.1953125 C55.39671875 16.8553125 54.40671875 17.5153125 53.38671875 18.1953125 C53.05671875 19.1853125 52.72671875 20.1753125 52.38671875 21.1953125 C50.63671875 22.703125 50.63671875 22.703125 48.38671875 24.3203125 C43.90005784 27.67274553 40.07986698 31.41013474 36.234375 35.47265625 C34.38671875 37.1953125 34.38671875 37.1953125 32.38671875 37.1953125 C31.72671875 38.5153125 31.06671875 39.8353125 30.38671875 41.1953125 C29.7574649 41.20339935 29.12821106 41.21148621 28.47988892 41.21981812 C21.89281009 41.30630169 15.30601714 41.40582112 8.71923828 41.51269531 C6.26551133 41.55082777 3.81173147 41.58570723 1.35791016 41.6171875 C-2.18215767 41.66318107 -5.72186618 41.72111788 -9.26171875 41.78125 C-10.89045425 41.79857681 -10.89045425 41.79857681 -12.55209351 41.81625366 C-21.55882218 41.9882779 -29.73894024 43.03844303 -37.98828125 46.8203125 C-41.69046187 48.51022608 -43.46207607 49.1953125 -47.61328125 49.1953125 C-47.61328125 49.8553125 -47.61328125 50.5153125 -47.61328125 51.1953125 C-48.49628906 51.59621094 -49.37929687 51.99710937 -50.2890625 52.41015625 C-73.38747687 63.21853194 -89.46693165 82.04460214 -98.3515625 105.6953125 C-98.76792969 106.8503125 -99.18429688 108.0053125 -99.61328125 109.1953125 C-100.27328125 109.1953125 -100.93328125 109.1953125 -101.61328125 109.1953125 C-107.42284236 132.65917095 -107.54650905 163.55029829 -96.38671875 185.62109375 C-95.19694924 187.53623887 -93.91454847 189.35478138 -92.61328125 191.1953125 C-91.68991554 192.79563254 -90.77372862 194.40010791 -89.86328125 196.0078125 C-77.97298298 215.74450049 -58.15461223 232.35126373 -35.61328125 238.1953125 C-34.33803014 238.68393503 -33.06736176 239.18463533 -31.80078125 239.6953125 C-22.3279888 243.2634586 -12.89172741 243.5222858 -2.85546875 243.609375 C-1.01287476 243.63584106 -1.01287476 243.63584106 0.86694336 243.6628418 C5.41507355 243.7254681 9.96341444 243.77195798 14.51171875 243.8203125 C24.70046875 243.9440625 34.88921875 244.0678125 45.38671875 244.1953125 C45.38671875 214.4953125 45.38671875 184.7953125 45.38671875 154.1953125 C45.71671875 154.1953125 46.04671875 154.1953125 46.38671875 154.1953125 C46.38671875 196.7653125 46.38671875 239.3353125 46.38671875 283.1953125 C59.25671875 283.1953125 72.12671875 283.1953125 85.38671875 283.1953125 C85.38671875 227.4253125 85.38671875 171.6553125 85.38671875 114.1953125 C73.50671875 114.1953125 61.62671875 114.1953125 49.38671875 114.1953125 C50.37671875 112.2153125 50.37671875 112.2153125 51.38671875 110.1953125 C52.37671875 110.1953125 53.36671875 110.1953125 54.38671875 110.1953125 C53.72671875 110.8553125 53.06671875 111.5153125 52.38671875 112.1953125 C63.60671875 112.5253125 74.82671875 112.8553125 86.38671875 113.1953125 C86.38671875 169.6253125 86.38671875 226.0553125 86.38671875 284.1953125 C68.58734375 284.2778125 50.78796875 284.3603125 32.44921875 284.4453125 C24.06721069 284.49993652 24.06721069 284.49993652 15.51586914 284.55566406 C8.61022949 284.57373047 8.61022949 284.57373047 5.36155701 284.5770874 C3.12727151 284.58316752 0.89299784 284.59710418 -1.34120178 284.61761475 C-15.054325 284.73704161 -27.43964137 284.13047954 -40.61328125 280.1953125 C-42.25900037 279.76794594 -43.90587475 279.34495864 -45.5546875 278.9296875 C-47.34712891 278.44242188 -47.34712891 278.44242188 -49.17578125 277.9453125 C-51.03396484 277.44257812 -51.03396484 277.44257812 -52.9296875 276.9296875 C-53.81527344 276.68734375 -54.70085937 276.445 -55.61328125 276.1953125 C-55.61328125 275.5353125 -55.61328125 274.8753125 -55.61328125 274.1953125 C-56.74765625 274.1334375 -57.88203125 274.0715625 -59.05078125 274.0078125 C-64.32697074 273.34017517 -68.14473686 270.94113523 -72.61328125 268.1953125 C-73.69996094 267.59783203 -73.69996094 267.59783203 -74.80859375 266.98828125 C-83.04126983 262.36961043 -90.37705106 256.4427417 -97.78491211 250.62744141 C-99.29720798 249.44288705 -100.8244525 248.27744483 -102.35546875 247.1171875 C-104.88493316 244.96407939 -106.85551888 242.66665617 -108.92578125 240.0703125 C-109.704375 239.09578125 -110.48296875 238.12125 -111.28515625 237.1171875 C-112.0534375 236.15296875 -112.82171875 235.18875 -113.61328125 234.1953125 C-114.2990625 233.37546875 -114.98484375 232.555625 -115.69140625 231.7109375 C-136.6440799 206.46874011 -146.80187946 175.20020964 -146.79858398 142.73974609 C-146.80076988 140.33282763 -146.8189759 137.92636898 -146.83789062 135.51953125 C-146.876347 124.91802494 -146.12551133 115.29297399 -142.61328125 105.1953125 C-142.38640625 103.9371875 -142.15953125 102.6790625 -141.92578125 101.3828125 C-138.18174849 84.14284771 -128.28609853 67.9347994 -117.61328125 54.1953125 C-116.87980469 53.24527344 -116.14632812 52.29523438 -115.390625 51.31640625 C-111.38398965 46.26515928 -107.32268542 41.73391675 -102.33984375 37.6328125 C-100.57305538 36.21880757 -100.57305538 36.21880757 -99.01171875 34.5078125 C-97.61328125 33.1953125 -97.61328125 33.1953125 -95.61328125 33.1953125 C-95.61328125 32.5353125 -95.61328125 31.8753125 -95.61328125 31.1953125 C-93.23154525 29.37274041 -90.85066087 27.6755829 -88.36328125 26.0078125 C-87.63834473 25.51748535 -86.9134082 25.0271582 -86.16650391 24.52197266 C-69.1319243 13.09931357 -69.1319243 13.09931357 -61.61328125 12.1953125 C-61.61328125 11.5353125 -61.61328125 10.8753125 -61.61328125 10.1953125 C-58.97328125 9.8653125 -56.33328125 9.5353125 -53.61328125 9.1953125 C-53.61328125 8.5353125 -53.61328125 7.8753125 -53.61328125 7.1953125 C-50.71966119 6.39475447 -47.8237487 5.6048573 -44.92578125 4.8203125 C-44.12849609 4.59859375 -43.33121094 4.376875 -42.50976562 4.1484375 C-28.25043741 0.31589079 -14.66654679 -0.07853565 0 0 Z " fill="#D5AE7C" transform="translate(286.61328125,267.8046875)"/>
<path d="M0 0 C0.33 0 0.66 0 1 0 C1.98997085 17.11566787 2.09234789 34.17207109 2 51.3125 C1.77331257 70.17237632 1.77331257 70.17237632 2.52734375 89.0078125 C3.20040996 98.54291718 2.8750289 108.01656742 2.5625 117.5625 C2.50908273 119.36391217 2.45634499 121.16534462 2.40429688 122.96679688 C2.27732647 127.31147054 2.14129402 131.65576955 2 136 C1.34 136.33 0.68 136.66 0 137 C0 91.79 0 46.58 0 0 Z " fill="#F4F0E5" transform="translate(452,412)"/>
<path d="M0 0 C30.69 0 61.38 0 93 0 C92.34 1.32 91.68 2.64 91 4 C90.505 2.515 90.505 2.515 90 1 C60.3 1 30.6 1 0 1 C0 0.67 0 0.34 0 0 Z " fill="#D6B992" transform="translate(265,268)"/>
<path d="M0 0 C2.97 0.99 5.94 1.98 9 3 C9 3.99 9 4.98 9 6 C18.9 6 28.8 6 39 6 C33.70160234 8.64919883 30.25023399 9.2123985 24.375 9.25 C23.59253906 9.270625 22.81007813 9.29125 22.00390625 9.3125 C13.1061584 9.3715232 6.89474479 6.45833963 0 1 C0 0.67 0 0.34 0 0 Z " fill="#C78C60" transform="translate(476,333)"/>
<path d="M0 0 C0.99 0.66 1.98 1.32 3 2 C2.26394531 2.65226562 1.52789062 3.30453125 0.76953125 3.9765625 C-0.20628906 4.85054688 -1.18210937 5.72453125 -2.1875 6.625 C-2.69490723 7.0792334 -3.20231445 7.5334668 -3.72509766 8.00146484 C-6.36090213 10.39401663 -8.75234595 12.76731687 -10.875 15.625 C-13 18 -13 18 -15.8125 18.375 C-16.534375 18.25125 -17.25625 18.1275 -18 18 C-12.63343156 11.29178945 -6.38332373 5.71193855 0 0 Z " fill="#C48353" transform="translate(294,364)"/>
<path d="M0 0 C-1.50719507 3.67689348 -3.63470991 5.6763138 -6.625 8.25 C-11.27652546 12.32684572 -15.6821156 16.57356543 -20 21 C-20.66 20.67 -21.32 20.34 -22 20 C-4.25352113 0 -4.25352113 0 0 0 Z " fill="#EFDBC2" transform="translate(223,328)"/>
<path d="M0 0 C0.33 0 0.66 0 1 0 C1.28768518 3.47710064 1.5230873 6.9559473 1.75 10.4375 C1.87181641 11.89833008 1.87181641 11.89833008 1.99609375 13.38867188 C2.36267717 19.47802977 1.81379561 23.68689993 -1.06738281 29.10205078 C-2.20459181 31.17082262 -2.20459181 31.17082262 -2.5 34.4375 C-2.7475 35.7059375 -2.7475 35.7059375 -3 37 C-5.03125 38.16015625 -5.03125 38.16015625 -7 39 C-6.72736328 38.21689453 -6.72736328 38.21689453 -6.44921875 37.41796875 C-5.60748187 34.95319049 -4.80395538 32.47734668 -4 30 C-3.72542969 29.21496094 -3.45085938 28.42992187 -3.16796875 27.62109375 C-0.30618233 18.61281038 -0.28166149 9.37252873 0 0 Z " fill="#637863" transform="translate(573,299)"/>
<path d="M0 0 C-0.33 0.66 -0.66 1.32 -1 2 C-11.29681778 4.68407902 -21.53943271 3.93714525 -32 3 C-32 2.67 -32 2.34 -32 2 C-30.22496094 1.92652344 -30.22496094 1.92652344 -28.4140625 1.8515625 C-17.07847061 1.37379981 -17.07847061 1.37379981 -5.9453125 -0.6953125 C-3.69399759 -1.04792809 -2.15438221 -0.68592438 0 0 Z " fill="#D6D8CD" transform="translate(526,418)"/>
<path d="M0 0 C0.33 0 0.66 0 1 0 C1.02934144 3.97915085 1.04691265 7.95827337 1.0625 11.9375 C1.07087891 13.05447266 1.07925781 14.17144531 1.08789062 15.32226562 C1.10638542 21.62899084 1.01645082 27.76704683 0 34 C-0.66 34.66 -1.32 35.32 -2 36 C-2.02895976 32.87501937 -2.04678483 29.7500731 -2.0625 26.625 C-2.07087891 25.73554688 -2.07925781 24.84609375 -2.08789062 23.9296875 C-2.09111328 23.07890625 -2.09433594 22.228125 -2.09765625 21.3515625 C-2.10289307 20.56604004 -2.10812988 19.78051758 -2.11352539 18.97119141 C-2 17 -2 17 -1 15 C-0.76827173 12.45384991 -0.58105471 9.92603775 -0.4375 7.375 C-0.39431641 6.66859375 -0.35113281 5.9621875 -0.30664062 5.234375 C-0.20055249 3.48981463 -0.09977111 1.74493303 0 0 Z " fill="#5B7157" transform="translate(613,295)"/>
<path d="M0 0 C5.94131582 -0.14938166 11.46196192 0.36678797 17.3125 1.375 C18.10978516 1.50132812 18.90707031 1.62765625 19.72851562 1.7578125 C20.87803711 1.95117188 20.87803711 1.95117188 22.05078125 2.1484375 C23.08199097 2.32125244 23.08199097 2.32125244 24.1340332 2.49755859 C26 3 26 3 29 5 C25.37 5 21.74 5 18 5 C18 4.34 18 3.68 18 3 C16.7934375 3.2784375 16.7934375 3.2784375 15.5625 3.5625 C11.29922702 4.08605984 7.17477826 4.1132742 3 3 C1.23046875 1.453125 1.23046875 1.453125 0 0 Z " fill="#667866" transform="translate(509,192)"/>
<path d="M0 0 C0.33 0.99 0.66 1.98 1 3 C-0.5675518 4.7021698 -2.15459784 6.38640554 -3.75 8.0625 C-4.63171875 9.00222656 -5.5134375 9.94195312 -6.421875 10.91015625 C-9 13 -9 13 -11.328125 12.80859375 C-11.87984375 12.54175781 -12.4315625 12.27492188 -13 12 C-11.3989569 10.3719224 -9.79405264 8.74764115 -8.1875 7.125 C-7.29417969 6.22007812 -6.40085937 5.31515625 -5.48046875 4.3828125 C-3 2 -3 2 0 0 Z " fill="#C48759" transform="translate(318,342)"/>
<path d="M0 0 C0 3 0 3 -2.40625 5.69921875 C-3.4299968 6.70302243 -4.4616054 7.69885649 -5.5 8.6875 C-6.02464844 9.19861328 -6.54929687 9.70972656 -7.08984375 10.23632812 C-8.38660904 11.49772708 -9.69246117 12.74977212 -11 14 C-11.33 13.34 -11.66 12.68 -12 12 C-8.88323047 5.87777414 -6.64880187 2.33606552 0 0 Z " fill="#4D6552" transform="translate(426,220)"/>
<path d="M0 0 C0.99 0.33 1.98 0.66 3 1 C1.71451591 2.33929505 0.42141845 3.67128643 -0.875 5 C-1.59429687 5.7425 -2.31359375 6.485 -3.0546875 7.25 C-5 9 -5 9 -7 9 C-7 9.66 -7 10.32 -7 11 C-9.5 12.625 -9.5 12.625 -12 14 C-11.6875 12.0625 -11.6875 12.0625 -11 10 C-10.01 9.67 -9.02 9.34 -8 9 C-6.79117904 6.99983534 -6.79117904 6.99983534 -6 5 C-5.34 5 -4.68 5 -4 5 C-3.71125 4.360625 -3.4225 3.72125 -3.125 3.0625 C-2 1 -2 1 0 0 Z " fill="#C78B5E" transform="translate(348,366)"/>
<path d="M0 0 C0.66 0.33 1.32 0.66 2 1 C1.44570313 1.53109375 0.89140625 2.0621875 0.3203125 2.609375 C-0.40414063 3.31578125 -1.12859375 4.0221875 -1.875 4.75 C-2.59429687 5.44609375 -3.31359375 6.1421875 -4.0546875 6.859375 C-5.88328634 8.8715681 -6.84501205 10.57402095 -8 13 C-10.4375 15.3125 -10.4375 15.3125 -13 17 C-13.99 16.67 -14.98 16.34 -16 16 C-10.72 10.72 -5.44 5.44 0 0 Z " fill="#CA9162" transform="translate(335,325)"/>
<path d="M0 0 C2.97 0.99 5.94 1.98 9 3 C9 3.99 9 4.98 9 6 C10.65 6 12.3 6 14 6 C14.33 6.66 14.66 7.32 15 8 C8.55510814 7.73146284 4.73633646 5.33036476 0 1 C0 0.67 0 0.34 0 0 Z " fill="#CC986E" transform="translate(476,333)"/>
<path d="M0 0 C-1.65 0.33 -3.3 0.66 -5 1 C-5 1.66 -5 2.32 -5 3 C-10.445 5.475 -10.445 5.475 -16 8 C-16.33 7.34 -16.66 6.68 -17 6 C-14 4 -14 4 -10 4 C-10 3.34 -10 2.68 -10 2 C-3.375 -1.125 -3.375 -1.125 0 0 Z " fill="#D6BC98" transform="translate(244,316)"/>
<path d="M0 0 C0.66 0 1.32 0 2 0 C1.46324097 3.85103301 -0.11600923 5.31797587 -3.0625 7.75 C-4.16271484 8.67039062 -4.16271484 8.67039062 -5.28515625 9.609375 C-5.85105469 10.06828125 -6.41695313 10.5271875 -7 11 C-7.33 10.01 -7.66 9.02 -8 8 C-7.34 7.34 -6.68 6.68 -6 6 C-5.01 6 -4.02 6 -3 6 C-2.814375 5.071875 -2.814375 5.071875 -2.625 4.125 C-2 2 -2 2 0 0 Z " fill="#C58555" transform="translate(362,352)"/>
<path d="M0 0 C6.70126536 -0.48736475 11.06561592 0.92291196 17 4 C17 4.66 17 5.32 17 6 C14.61435923 5.42415568 12.33317216 4.77772405 10 4 C10 3.34 10 2.68 10 2 C6.7 1.67 3.4 1.34 0 1 C0 0.67 0 0.34 0 0 Z " fill="#C0794A" transform="translate(502,271)"/>
<path d="M0 0 C0.66 0 1.32 0 2 0 C2.53341184 1.57914015 3.05125763 3.16354387 3.5625 4.75 C3.85253906 5.63171875 4.14257812 6.5134375 4.44140625 7.421875 C5.01697435 10.07834316 4.89248371 11.47031106 4 14 C3.32471777 12.42032193 2.66010306 10.83608097 2 9.25 C1.62875 8.36828125 1.2575 7.4865625 0.875 6.578125 C0 4 0 4 0 0 Z " fill="#F3F0E5" transform="translate(608,264)"/>
<path d="M0 0 C-2.93163286 1.55403686 -5.83365224 2.69801632 -9 3.6875 C-9.845625 3.95949219 -10.69125 4.23148437 -11.5625 4.51171875 C-14.1232068 5.02468085 -15.55828998 4.84216387 -18 4 C-11.74827614 1.13035626 -6.90352555 -0.51137226 0 0 Z " fill="#E5CFB2" transform="translate(265,310)"/>
<path d="M0 0 C0.33 0.99 0.66 1.98 1 3 C-1.31 5.31 -3.62 7.62 -6 10 C-6.99 9.67 -7.98 9.34 -9 9 C-6 6 -3 3 0 0 Z " fill="#D6B68A" transform="translate(184,306)"/>
<path d="M0 0 C0.33 0.99 0.66 1.98 1 3 C0.0479279 4.00596297 -0.91187346 5.00461563 -1.875 6 C-2.40867187 6.556875 -2.94234375 7.11375 -3.4921875 7.6875 C-5 9 -5 9 -7 9 C-6.82374165 6.62051228 -6.30280227 5.29774151 -4.59765625 3.62109375 C-3.09350908 2.37884514 -1.54870149 1.18623944 0 0 Z " fill="#C58C5F" transform="translate(304,355)"/>
<path d="M0 0 C5.61 0 11.22 0 17 0 C17 0.99 17 1.98 17 3 C11.30948637 2.4618629 5.65134116 1.8599867 0 1 C0 0.67 0 0.34 0 0 Z " fill="#3B553E" transform="translate(424,349)"/>
<path d="M0 0 C0.66 0.33 1.32 0.66 2 1 C-0.13206212 5.67239145 -2.02502456 9.59287819 -6 13 C-6 11.68 -6 10.36 -6 9 C-5.34 9 -4.68 9 -4 9 C-4 8.34 -4 7.68 -4 7 C-3.34 7 -2.68 7 -2 7 C-1.855625 6.030625 -1.71125 5.06125 -1.5625 4.0625 C-1 1 -1 1 0 0 Z " fill="#C6895D" transform="translate(532,318)"/>
<path d="M0 0 C0.64453125 1.765625 0.64453125 1.765625 1 4 C0.07421875 5.921875 0.07421875 5.921875 -1.3125 7.75 C-1.98732422 8.67039063 -1.98732422 8.67039063 -2.67578125 9.609375 C-3.11277344 10.06828125 -3.54976563 10.5271875 -4 11 C-4.66 11 -5.32 11 -6 11 C-4.54955729 6.89041233 -2.48889248 3.56741255 0 0 Z " fill="#61745F" transform="translate(406,240)"/>
<path d="M0 0 C0.33 1.32 0.66 2.64 1 4 C-0.6875 6.3125 -0.6875 6.3125 -3 8 C-4.32 7.67 -5.64 7.34 -7 7 C-4.69 4.69 -2.38 2.38 0 0 Z " fill="#C99062" transform="translate(362,300)"/>
<path d="M0 0 C0 3.90838866 -1.50567876 5.11594107 -4 8 C-5.32 7.67 -6.64 7.34 -8 7 C-5.36 4.69 -2.72 2.38 0 0 Z " fill="#CB966A" transform="translate(371,292)"/>
<path d="M0 0 C0.33 1.32 0.66 2.64 1 4 C-1.4375 6.75 -1.4375 6.75 -4 9 C-4.66 8.34 -5.32 7.68 -6 7 C-4.02 4.69 -2.04 2.38 0 0 Z " fill="#D9D4CA" transform="translate(588,378)"/>
<path d="M0 0 C2.97 0.495 2.97 0.495 6 1 C5.360625 1.28875 4.72125 1.5775 4.0625 1.875 C1.84793921 2.82823451 1.84793921 2.82823451 1 5 C-1.06640625 5.6328125 -1.06640625 5.6328125 -3.5625 6.125 C-4.38878906 6.29257812 -5.21507812 6.46015625 -6.06640625 6.6328125 C-6.70449219 6.75398438 -7.34257813 6.87515625 -8 7 C-7.67 6.34 -7.34 5.68 -7 5 C-6.01 4.690625 -5.02 4.38125 -4 4.0625 C-2.515 3.5365625 -2.515 3.5365625 -1 3 C-0.67 2.01 -0.34 1.02 0 0 Z " fill="#B8C0B1" transform="translate(528,370)"/>
<path d="M0 0 C0.66 0 1.32 0 2 0 C0.125 7.625 0.125 7.625 -1 11 C-1.66 11 -2.32 11 -3 11 C-2.67 9.02 -2.34 7.04 -2 5 C-1.34 5 -0.68 5 0 5 C-0.2784375 4.0409375 -0.2784375 4.0409375 -0.5625 3.0625 C-0.706875 2.381875 -0.85125 1.70125 -1 1 C-0.67 0.67 -0.34 0.34 0 0 Z " fill="#546954" transform="translate(608,336)"/>
<path d="M0 0 C-1 3 -1 3 -3.9375 4.75 C-5.4534375 5.36875 -5.4534375 5.36875 -7 6 C-7.66 5.67 -8.32 5.34 -9 5 C-4.32258065 0 -4.32258065 0 0 0 Z " fill="#607164" transform="translate(556,404)"/>
<path d="M0 0 C0.66 0 1.32 0 2 0 C0.68775452 3.93673644 -0.91910327 6.22719294 -4 9 C-3.4739075 5.21213403 -2.61896089 2.82847776 0 0 Z " fill="#E5E4DA" transform="translate(561,342)"/>
<path d="M0 0 C0.33 0.66 0.66 1.32 1 2 C-1.65654657 5.73884332 -3.58110387 7.64978174 -8 9 C-7.04270084 7.87411986 -6.08412105 6.7493285 -5.125 5.625 C-4.59132813 4.99851562 -4.05765625 4.37203125 -3.5078125 3.7265625 C-2.38567993 2.44163349 -1.20628025 1.20628025 0 0 Z " fill="#EDD1B6" transform="translate(371,347)"/>
<path d="M0 0 C0.33 0.99 0.66 1.98 1 3 C-1.31 4.65 -3.62 6.3 -6 8 C-6.66 7.67 -7.32 7.34 -8 7 C-5.36 4.69 -2.72 2.38 0 0 Z " fill="#CA986E" transform="translate(318,342)"/>
<path d="M0 0 C0.66 0.33 1.32 0.66 2 1 C1.54625 1.4125 1.0925 1.825 0.625 2.25 C-1.05950374 4.06408095 -1.99265971 5.75285627 -3 8 C-4.32 7.67 -5.64 7.34 -7 7 C-4.69 4.69 -2.38 2.38 0 0 Z " fill="#CC986A" transform="translate(350,311)"/>
<path d="M0 0 C1.15957207 3.47871621 0.77456651 4.34219645 -0.4375 7.6875 C-0.72496094 8.49574219 -1.01242188 9.30398438 -1.30859375 10.13671875 C-1.65083984 11.05904297 -1.65083984 11.05904297 -2 12 C-2.33 12 -2.66 12 -3 12 C-2.14285714 3.42857143 -2.14285714 3.42857143 0 0 Z " fill="#EDD7BD" transform="translate(144,370)"/>
<path d="M0 0 C0.66 0.33 1.32 0.66 2 1 C0.55746343 4.36591866 -1.33264727 6.51047079 -4 9 C-4 5.00095031 -2.27413033 3.19799578 0 0 Z " fill="#D1CFC1" transform="translate(596,367)"/>
<path d="M0 0 C0.66 0.33 1.32 0.66 2 1 C-0.23407889 4.35111834 -1.26215824 5.81553956 -5.25 6.8125 C-6.61125 6.9053125 -6.61125 6.9053125 -8 7 C-5.4837822 4.39391727 -2.94865641 2.10618315 0 0 Z " fill="#6B7C68" transform="translate(546,362)"/>
<path d="M0 0 C4.02992782 0.55312735 8.02022924 1.1558062 12 2 C12 2.33 12 2.66 12 3 C10.56344146 3.08131463 9.1255517 3.13933559 7.6875 3.1875 C6.48673828 3.23970703 6.48673828 3.23970703 5.26171875 3.29296875 C2.52148416 2.93801608 1.70828921 2.10633718 0 0 Z " fill="#EBD6BA" transform="translate(247,548)"/>
<path d="M0 0 C0.33 0.66 0.66 1.32 1 2 C-0.1875 4.5625 -0.1875 4.5625 -2 7 C-3.32 7.33 -4.64 7.66 -6 8 C-4.02 5.36 -2.04 2.72 0 0 Z " fill="#F1D7BD" transform="translate(529,327)"/>
<path d="M0 0 C0.66 0 1.32 0 2 0 C0.75023244 3.65316671 0.32901247 4.78065836 -3 7 C-2.25 2.25 -2.25 2.25 0 0 Z " fill="#D5B58C" transform="translate(170,321)"/>
<path d="M0 0 C2 1 2 1 3 3 C-1.455 4.485 -1.455 4.485 -6 6 C-4 4 -2 2 0 0 Z " fill="#CB966C" transform="translate(481,274)"/>
<path d="M0 0 C2.97 0.495 2.97 0.495 6 1 C6.33 2.65 6.66 4.3 7 6 C5.83054208 5.19152271 4.66449539 4.37810888 3.5 3.5625 C2.8503125 3.11003906 2.200625 2.65757812 1.53125 2.19140625 C1.0259375 1.79824219 0.520625 1.40507812 0 1 C0 0.67 0 0.34 0 0 Z " fill="#D9DBCC" transform="translate(568,213)"/>
<path d="M0 0 C0.99 0.33 1.98 0.66 3 1 C-0.465 3.97 -0.465 3.97 -4 7 C-4 6.01 -4 5.02 -4 4 C-3.34 4 -2.68 4 -2 4 C-1.34 2.68 -0.68 1.36 0 0 Z " fill="#C38252" transform="translate(371,344)"/>
<path d="M0 0 C0.66 0 1.32 0 2 0 C0.60667426 3.36720387 -0.9789286 4.9859524 -4 7 C-4.66 6.67 -5.32 6.34 -6 6 C-4.71034824 4.62437146 -3.37310707 3.29233607 -2 2 C-1.34 2 -0.68 2 0 2 C0 1.34 0 0.68 0 0 Z " fill="#D8BB92" transform="translate(191,299)"/>
<path d="M0 0 C-1 3 -1 3 -2.8125 4.25 C-5.33943414 5.11637742 -6.52221994 4.88492145 -9 4 C-2.25 0 -2.25 0 0 0 Z " fill="#D7B993" transform="translate(214,285)"/>
<path d="M0 0 C-0.99 0 -1.98 0 -3 0 C-3 0.66 -3 1.32 -3 2 C-5.31 2.33 -7.62 2.66 -10 3 C-9.01 2.67 -8.02 2.34 -7 2 C-7 1.34 -7 0.68 -7 0 C-3.86650268 -1.04449911 -3.01031744 -0.93423645 0 0 Z " fill="#5A6B58" transform="translate(472,196)"/>
</svg>
