<?xml version="1.0" encoding="UTF-8"?>
<svg version="1.1" xmlns="http://www.w3.org/2000/svg" width="762" height="762">
<path d="M0 0 C251.46 0 502.92 0 762 0 C762 251.46 762 502.92 762 762 C510.54 762 259.08 762 0 762 C0 510.54 0 259.08 0 0 Z " fill="#020203" transform="translate(0,0)"/>
<path d="M0 0 C1.92482914 0.00748504 3.84966604 0.01316722 5.77450562 0.01715088 C10.77549274 0.03222946 15.77599529 0.07135179 20.77679443 0.1159668 C25.90581716 0.15730925 31.03492023 0.17524406 36.1640625 0.1953125 C46.1798973 0.23786831 56.1953767 0.30589635 66.2109375 0.390625 C66.2109375 1.050625 66.2109375 1.710625 66.2109375 2.390625 C65.07863053 3.36934778 63.90274937 4.29780637 62.7109375 5.203125 C55.8682244 11.01457815 51.66960495 18.98057517 48.09472656 27.10791016 C47.56301849 28.31382309 47.56301849 28.31382309 47.02056885 29.5440979 C46.7533905 30.15345184 46.48621216 30.76280579 46.2109375 31.390625 C45.46163971 31.39205002 44.71234192 31.39347504 43.94033813 31.39494324 C36.79355981 31.41295533 29.64748388 31.45509564 22.50101662 31.52271557 C18.82904921 31.55665237 15.15748305 31.58204251 11.48535156 31.58618164 C-16.39568846 31.62865667 -40.28343648 34.56410452 -61.34375 54.8515625 C-77.86804095 71.97856315 -83.18745521 91.94615884 -82.9375 115.27734375 C-82.50131937 135.02345554 -72.79893341 152.7327609 -58.7890625 166.390625 C-51.69064785 173.01902578 -43.73082205 177.65064431 -34.7890625 181.390625 C-34.05300781 181.7422168 -33.31695312 182.09380859 -32.55859375 182.45605469 C-21.48472925 187.03735344 -9.31250517 186.06812636 2.4609375 186.140625 C4.76694916 186.16882219 7.07294028 186.19875477 9.37890625 186.23046875 C14.98978122 186.30710903 20.59929086 186.34804801 26.2109375 186.390625 C26.2109375 170.880625 26.2109375 155.370625 26.2109375 139.390625 C13.0109375 139.390625 -0.1890625 139.390625 -13.7890625 139.390625 C-13.7890625 129.160625 -13.7890625 118.930625 -13.7890625 108.390625 C9.6409375 108.390625 33.0709375 108.390625 57.2109375 108.390625 C57.2109375 144.360625 57.2109375 180.330625 57.2109375 217.390625 C38.7721875 217.514375 38.7721875 217.514375 19.9609375 217.640625 C16.12307617 217.67704102 12.28521484 217.71345703 8.33105469 217.75097656 C-21.89595372 217.91956301 -46.93043651 214.83948318 -71.7890625 196.390625 C-72.7996875 195.64683594 -73.8103125 194.90304687 -74.8515625 194.13671875 C-81.52743965 188.95364191 -86.67929478 183.09278582 -91.7890625 176.390625 C-92.30855469 175.77058594 -92.82804687 175.15054688 -93.36328125 174.51171875 C-101.47309607 164.57997293 -106.7347212 152.44028562 -110.7890625 140.390625 C-111.07966553 139.53122314 -111.37026855 138.67182129 -111.66967773 137.78637695 C-117.34450615 120.05790391 -117.154333 97.12468703 -111.7890625 79.390625 C-111.41007813 78.12992187 -111.03109375 76.86921875 -110.640625 75.5703125 C-101.98443418 49.09025266 -81.97116308 25.727843 -57.43359375 12.70703125 C-54.08933642 11.04231231 -50.7415089 9.39746734 -47.3515625 7.828125 C-46.15660156 7.26996094 -44.96164062 6.71179688 -43.73046875 6.13671875 C-29.45416281 0.62187633 -15.11112929 -0.17593336 0 0 Z " fill="#FAFAF9" transform="translate(314.7890625,161.609375)"/>
<path d="M0 0 C11.03906826 8.51964127 19.37573352 18.14659065 26.25 30.25 C26.66765625 30.9821875 27.0853125 31.714375 27.515625 32.46875 C36.93528009 51.30806019 38.1810033 74.39772239 31.56591797 94.30908203 C22.38217676 119.02998437 6.75240048 136.56100397 -17.38989258 147.63525391 C-37.02269907 156.18003411 -57.83776722 154.88741093 -77.75 148.25 C-77.75 171.35 -77.75 194.45 -77.75 218.25 C-87.65 218.25 -97.55 218.25 -107.75 218.25 C-107.75 179.64 -107.75 141.03 -107.75 101.25 C-90.75 101.25 -90.75 101.25 -86.0625 105.75 C-85.40121094 106.6575 -84.73992187 107.565 -84.05859375 108.5 C-78.44288095 115.18944469 -69.14678275 119.4550673 -60.75 121.25 C-57.14103787 121.54391985 -53.55699452 121.57483638 -49.9375 121.5625 C-49.00357422 121.57861328 -48.06964844 121.59472656 -47.10742188 121.61132812 C-34.64028488 121.61997985 -24.72574753 117.03727772 -14.5625 110.0625 C-4.25835369 99.75835369 3.59488991 86.24905342 3.66015625 71.43359375 C3.64855469 70.54800781 3.63695312 69.66242188 3.625 68.75 C3.64240234 67.42162109 3.64240234 67.42162109 3.66015625 66.06640625 C3.6034526 53.19467671 -2.21263268 40.55206962 -11.125 31.3125 C-24.39783075 18.98934368 -37.61897625 15.50691909 -55.3125 15.8828125 C-67.23924744 16.4611039 -76.40935281 21.78560434 -84.75 30.25 C-85.16677002 31.00337646 -85.58354004 31.75675293 -86.01293945 32.53295898 C-87.71054729 35.40033752 -89.08284675 37.22513435 -91.75 39.25 C-97.59772629 40.38066207 -103.26472061 40.10193405 -109.1875 39.8125 C-110.79350771 39.76730825 -112.39963743 39.72625182 -114.00585938 39.68945312 C-117.9236053 39.59073067 -121.8354539 39.4357417 -125.75 39.25 C-118.85890529 18.05988375 -106.29757809 4.05503923 -86.75 -6.75 C-85.98300781 -7.19214844 -85.21601563 -7.63429687 -84.42578125 -8.08984375 C-57.09270435 -22.95361614 -24.7031844 -17.0366789 0 0 Z " fill="#FAFAF9" transform="translate(503.75,161.75)"/>
<path d="M0 0 C5.70012428 4.02990047 9.59258484 9.20965594 12.29296875 15.62109375 C13.53221159 25.14428425 12.29637518 32.67520609 6.97265625 40.58203125 C2.78111951 46.0104149 -2.30786983 48.48803994 -8.70703125 50.62109375 C-18.44408015 51.75519262 -24.9414683 49.02506728 -32.76953125 43.43359375 C-34.70703125 41.62109375 -34.70703125 41.62109375 -35.70703125 39.62109375 C-69.03703125 39.29109375 -102.36703125 38.96109375 -136.70703125 38.62109375 C-128.98075591 30.89481841 -120.92684077 23.66891612 -112.41015625 16.82421875 C-109.82614694 14.85873049 -109.82614694 14.85873049 -108.43997192 13.11184692 C-105.70245535 10.12580266 -103.60009385 8.76594554 -99.55285645 8.10949707 C-96.30595324 7.98987718 -93.08194731 7.96546153 -89.83388138 8.04603958 C-87.64576783 8.09856424 -85.46052973 8.11119695 -83.27182007 8.11361694 C-77.05606846 8.12847223 -70.84182203 8.22164809 -64.62695312 8.32226562 C-60.81253511 8.38129977 -56.99939728 8.40094097 -53.18455124 8.39866257 C-51.04204762 8.4099149 -48.90400462 8.46733439 -46.76235962 8.52603149 C-39.98322243 8.52577252 -35.66156589 8.34468231 -30.49365234 3.69677734 C-29.51505753 2.62851212 -29.51505753 2.62851212 -28.51669312 1.53866577 C-21.19519365 -6.21941479 -8.50891193 -4.77527172 0 0 Z " fill="#FAFAF9" transform="translate(468.70703125,207.37890625)"/>
<path d="M0 0 C8.57142857 1 8.57142857 1 12 2 C11.4721307 6.48688907 10.70509 9.73727501 9 14 C21.54 14 34.08 14 47 14 C47 17.63 47 21.26 47 25 C45.73406006 24.96745117 44.46812012 24.93490234 43.16381836 24.90136719 C38.44646028 24.79607167 33.73137923 24.77033725 29.01293945 24.76806641 C26.97493838 24.75609434 24.93694294 24.722821 22.8996582 24.66748047 C11.16262205 23.86471684 11.16262205 23.86471684 1.13720703 28.65039062 C-0.65315347 31.73072049 -1.87903063 34.62763827 -3 38 C-3.66 38.99 -4.32 39.98 -5 41 C-4.28972656 40.69320312 -3.57945312 40.38640625 -2.84765625 40.0703125 C-0.02570311 39.0096607 2.60433438 38.43433358 5.5625 37.875 C12.80496261 36.2868136 19.46204142 33.56576734 26.28344727 30.69287109 C27.11030029 30.34691895 27.93715332 30.0009668 28.7890625 29.64453125 C29.52850098 29.32846924 30.26793945 29.01240723 31.02978516 28.68676758 C33 28 33 28 36 28 C37.82421875 29.6796875 37.82421875 29.6796875 39.6875 31.875 C40.31011719 32.59429687 40.93273437 33.31359375 41.57421875 34.0546875 C43 36 43 36 43 38 C40.73117913 38.83919398 38.46022973 39.67151724 36.1875 40.5 C35.54490234 40.73847656 34.90230469 40.97695313 34.24023438 41.22265625 C31.35066261 42.27068746 29.09923939 43 26 43 C26.66 48.28 27.32 53.56 28 59 C29.258125 57.906875 30.51625 56.81375 31.8125 55.6875 C32.52019531 55.07261719 33.22789062 54.45773437 33.95703125 53.82421875 C35.70136739 52.26665665 37.36778041 50.67341125 39 49 C43.2742558 50.5830577 45.26531794 53.50568404 48 57 C43.30165217 61.91801085 38.66492467 66.22338356 33 70 C35.62075215 79.69678294 41.08288057 87.85776722 48 95 C46.67855892 97.79108116 45.19617639 100.25786389 43.375 102.75 C42.92898438 103.36359375 42.48296875 103.9771875 42.0234375 104.609375 C41.68570313 105.06828125 41.34796875 105.5271875 41 106 C30.77418745 101.40836616 24.86680621 89.00880899 21 79 C14 56.56337393 14 56.56337393 14 48 C11.03 48.495 11.03 48.495 8 49 C7.67 61.87 7.34 74.74 7 88 C11.29 87.01 15.58 86.02 20 85 C21.20272819 87.40545638 21.10071472 88.94996953 21.0625 91.625 C21.05347656 92.44226563 21.04445313 93.25953125 21.03515625 94.1015625 C21.02355469 94.72804688 21.01195312 95.35453125 21 96 C17.23007536 97.64792045 13.45890805 99.29297763 9.6875 100.9375 C8.61564453 101.40607422 7.54378906 101.87464844 6.43945312 102.35742188 C4.89741211 103.0293457 4.89741211 103.0293457 3.32421875 103.71484375 C1.9024231 104.33540649 1.9024231 104.33540649 0.4519043 104.96850586 C-2 106 -2 106 -5 107 C-6.25664978 104.09399739 -7 102.20395416 -7 99 C-7.66 99 -8.32 99 -9 99 C-8.49396008 96.83125748 -8.00016187 95.00032373 -7 93 C-6.8849233 91.45436002 -6.83054994 89.90398901 -6.80712891 88.35424805 C-6.79106598 87.38952072 -6.77500305 86.4247934 -6.75845337 85.43083191 C-6.71403487 81.01680163 -6.67294 76.60292216 -6.64990234 72.1887207 C-6.63333826 69.85984304 -6.60604258 67.53101631 -6.56787109 65.20239258 C-6.51313998 61.84689932 -6.49123353 58.49259809 -6.4765625 55.13671875 C-6.45389313 54.0969841 -6.43122375 53.05724945 -6.40786743 51.98600769 C-6.39178573 45.9990806 -6.39178573 45.9990806 -9.38427734 40.93286133 C-10.24746582 40.29501709 -11.1106543 39.65717285 -12 39 C-14.375 36.9375 -14.375 36.9375 -16 35 C-15.75 32.75 -15.75 32.75 -15 31 C-14.34 31 -13.68 31 -13 31 C-12.75121094 30.18273437 -12.50242187 29.36546875 -12.24609375 28.5234375 C-10.78882626 24.40288805 -8.9673289 20.55349117 -7.0625 16.625 C-4.41450698 11.16197915 -2.05752733 5.71463703 0 0 Z " fill="#F3F3F1" transform="translate(374,421)"/>
<path d="M0 0 C1.16796875 2.36328125 1.16796875 2.36328125 2.1875 5.3125 C2.53167969 6.27800781 2.87585938 7.24351562 3.23046875 8.23828125 C4 11 4 11 4 15 C3.01 15.495 3.01 15.495 2 16 C8.93 16.495 8.93 16.495 16 17 C16 20.96 16 24.92 16 29 C9.4 29 2.8 29 -4 29 C-4 32.96 -4 36.92 -4 41 C2.6 41 9.2 41 16 41 C16.04625731 46.74361629 16.08597717 52.48656951 16.10986328 58.23022461 C16.11983541 60.17848925 16.13341797 62.12673926 16.15087891 64.07495117 C16.41367228 94.18025115 16.41367228 94.18025115 11 102 C8.16862348 104.77556086 6.65343629 105.92339551 2.66796875 106.390625 C1.51941406 106.34421875 0.37085938 106.2978125 -0.8125 106.25 C-1.97394531 106.21390625 -3.13539063 106.1778125 -4.33203125 106.140625 C-5.21246094 106.09421875 -6.09289062 106.0478125 -7 106 C-7.66 102.37 -8.32 98.74 -9 95 C-5.7 95 -2.4 95 1 95 C3.39981837 81.09037313 3.6224951 67.08277437 4 53 C1.03 53 -1.94 53 -5 53 C-5.07347656 54.18142578 -5.07347656 54.18142578 -5.1484375 55.38671875 C-6.35020099 72.89516954 -9.25438378 90.01825225 -19 105 C-21.21875 105.89453125 -21.21875 105.89453125 -23 106 C-23.33 105.01 -23.66 104.02 -24 103 C-24.9590625 102.5359375 -24.9590625 102.5359375 -25.9375 102.0625 C-28.52620223 100.72892612 -29.0630978 99.72643496 -30 97 C-29.2421875 95.31640625 -29.2421875 95.31640625 -27.875 93.5625 C-15.7526704 75.64253451 -17.36944084 49.7682904 -17 29 C-20.63 29 -24.26 29 -28 29 C-28 24.71 -28 20.42 -28 16 C-21.73 16 -15.46 16 -9 16 C-9.474375 14.4325 -9.94875 12.865 -10.4375 11.25 C-11.36636589 8.18070403 -12.24964259 5.11799003 -13 2 C-11.39935157 1.46845258 -9.79431126 0.95011647 -8.1875 0.4375 C-7.29417969 0.14746094 -6.40085937 -0.14257812 -5.48046875 -0.44140625 C-3 -1 -3 -1 0 0 Z " fill="#F3F3F2" transform="translate(344,422)"/>
<path d="M0 0 C2.61507901 1.07298089 4.57592235 2.53179109 6.796875 4.27734375 C7.59609375 4.89480469 8.3953125 5.51226562 9.21875 6.1484375 C9.82203125 6.70660156 10.4253125 7.26476562 11.046875 7.83984375 C11.046875 8.49984375 11.046875 9.15984375 11.046875 9.83984375 C8.96578815 10.51349036 6.8819079 11.17851173 4.796875 11.83984375 C3.63671875 12.21109375 2.4765625 12.58234375 1.28125 12.96484375 C-1.953125 13.83984375 -1.953125 13.83984375 -5.953125 13.83984375 C-5.7365625 14.96003906 -5.52 16.08023437 -5.296875 17.234375 C-5.01548097 18.70700374 -4.73423889 20.17966151 -4.453125 21.65234375 C-4.31003906 22.39033203 -4.16695312 23.12832031 -4.01953125 23.88867188 C-3.44386219 26.91778766 -2.953125 29.74903975 -2.953125 32.83984375 C-1.83164062 31.8653125 -1.83164062 31.8653125 -0.6875 30.87109375 C0.29734375 30.03578125 1.2821875 29.20046875 2.296875 28.33984375 C3.27140625 27.50453125 4.2459375 26.66921875 5.25 25.80859375 C8.046875 23.83984375 8.046875 23.83984375 12.046875 23.83984375 C13.75 25.08203125 13.75 25.08203125 15.296875 26.71484375 C16.07804688 27.51535156 16.07804688 27.51535156 16.875 28.33203125 C18.046875 29.83984375 18.046875 29.83984375 18.046875 31.83984375 C15.78756362 33.61248884 13.52978555 35.27118645 11.171875 36.90234375 C10.52089844 37.36189453 9.86992188 37.82144531 9.19921875 38.29492188 C4.40489477 41.66083386 4.40489477 41.66083386 2.046875 42.83984375 C3.5806432 52.54789931 9.51687161 59.86507138 16.2890625 66.6484375 C18.046875 68.83984375 18.046875 68.83984375 18.046875 72.83984375 C16.42560825 74.87681992 14.75827969 76.87798959 13.046875 78.83984375 C12.551875 80.32484375 12.551875 80.32484375 12.046875 81.83984375 C9.02262078 81.51753094 8.03557816 80.82834482 5.86328125 78.6171875 C5.11949219 77.68003906 4.37570312 76.74289062 3.609375 75.77734375 C2.49755859 74.39869141 2.49755859 74.39869141 1.36328125 72.9921875 C-3.39499353 66.51676128 -6.88762516 60.231282 -9.578125 52.65234375 C-9.87734863 51.82009277 -10.17657227 50.9878418 -10.48486328 50.13037109 C-14.36537907 39.10613013 -16.39858618 28.5234031 -16.953125 16.83984375 C-18.933125 16.83984375 -20.913125 16.83984375 -22.953125 16.83984375 C-22.953125 32.34984375 -22.953125 47.85984375 -22.953125 63.83984375 C-17.013125 61.36484375 -17.013125 61.36484375 -10.953125 58.83984375 C-10.293125 58.83984375 -9.633125 58.83984375 -8.953125 58.83984375 C-8.623125 62.79984375 -8.293125 66.75984375 -7.953125 70.83984375 C-11.89008823 72.48697112 -15.82766582 74.13260068 -19.765625 75.77734375 C-20.88517578 76.24591797 -22.00472656 76.71449219 -23.15820312 77.19726562 C-24.76791992 77.86918945 -24.76791992 77.86918945 -26.41015625 78.5546875 C-27.39991455 78.968396 -28.38967285 79.38210449 -29.40942383 79.80834961 C-31.23324295 80.54792498 -33.08605266 81.2174863 -34.953125 81.83984375 C-38.01811761 75.58725882 -38.01811761 75.58725882 -37.703125 71.96484375 C-36.953125 69.83984375 -36.953125 69.83984375 -35.953125 68.83984375 C-35.82968473 66.96888264 -35.77520106 65.09333447 -35.74780273 63.21850586 C-35.72785751 62.01733627 -35.70791229 60.81616669 -35.68736267 59.57859802 C-35.67065018 58.27133255 -35.65393768 56.96406708 -35.63671875 55.6171875 C-35.61615542 54.27339528 -35.59515912 52.92960963 -35.57374573 51.58583069 C-35.51846081 48.04309388 -35.46908002 44.50029808 -35.42089844 40.9574585 C-35.37073013 37.34463225 -35.31501975 33.73189203 -35.25976562 30.11914062 C-35.15210563 23.02611628 -35.0506782 15.93301487 -34.953125 8.83984375 C-34.40865219 8.7271817 -33.86417938 8.61451965 -33.3032074 8.4984436 C-30.80980547 7.98136594 -28.3170122 7.46140906 -25.82421875 6.94140625 C-24.53952698 6.67565796 -24.53952698 6.67565796 -23.22888184 6.40454102 C-13.25091667 4.53119032 -13.25091667 4.53119032 -3.94921875 0.69140625 C-1.953125 -0.16015625 -1.953125 -0.16015625 0 0 Z " fill="#F3F3F2" transform="translate(523.953125,445.16015625)"/>
<path d="M0 0 C5.23875 -0.0825 10.4775 -0.165 15.875 -0.25 C17.50679199 -0.28641602 19.13858398 -0.32283203 20.81982422 -0.36035156 C30.36796052 -0.43288979 38.20762755 0.22728127 45.9375 6.3125 C51.20466831 13.17577991 52.00856622 19.47818207 51 28 C49.28674924 33.88506476 46.09523932 37.57051199 41 41 C34.77631167 43.82647854 29.77887552 44.38894099 23 44.1875 C20.03 44.125625 17.06 44.06375 14 44 C14 50.6 14 57.2 14 64 C9.38 64 4.76 64 0 64 C0 42.88 0 21.76 0 0 Z " fill="#F5F6F4" transform="translate(331,548)"/>
<path d="M0 0 C2.41911928 1.46230344 4.18070458 3.19605768 6.09375 5.265625 C4.7000218 9.70021473 2.48792765 12.13940874 -0.90625 15.265625 C-3.6908206 14.16867295 -6.31960714 13.04629264 -8.96875 11.640625 C-14.53171932 9.27910192 -21.45312306 8.87820793 -27.09375 11.14453125 C-31.23733135 13.85036132 -34.51604876 17.46161596 -35.90625 22.265625 C-36.81623257 30.1458864 -36.95380708 37.78057593 -31.90625 44.265625 C-26.57742258 49.46123173 -21.82660228 49.48149532 -14.6796875 49.43359375 C-11.13511184 49.21892227 -8.24203777 48.45168288 -4.90625 47.265625 C-4.90625 43.635625 -4.90625 40.005625 -4.90625 36.265625 C-9.52625 36.265625 -14.14625 36.265625 -18.90625 36.265625 C-18.90625 32.635625 -18.90625 29.005625 -18.90625 25.265625 C-9.66625 25.265625 -0.42625 25.265625 9.09375 25.265625 C9.279375 29.761875 9.465 34.258125 9.65625 38.890625 C9.73818604 40.29779785 9.82012207 41.7049707 9.90454102 43.15478516 C10.08265067 52.04494637 10.08265067 52.04494637 7.36669922 55.39746094 C5.00699255 57.05679805 2.76625993 58.18600688 0.09375 59.265625 C-0.65455078 59.59393311 -1.40285156 59.92224121 -2.17382812 60.26049805 C-7.52526419 62.33009129 -12.64533468 62.77624112 -18.34375 62.703125 C-19.17487305 62.69555176 -20.00599609 62.68797852 -20.86230469 62.68017578 C-29.74696234 62.44178994 -36.77931535 60.16807135 -43.375 54.0390625 C-46.17526284 50.79590095 -48.10891736 47.13628517 -49.90625 43.265625 C-50.27492187 42.50894531 -50.64359375 41.75226562 -51.0234375 40.97265625 C-53.47383071 33.4588399 -52.99434772 22.54531576 -50 15.28125 C-40.00762676 -3.1332664 -18.84681129 -7.71005917 0 0 Z " fill="#F3F3F1" transform="translate(248.90625,550.734375)"/>
<path d="M0 0 C6.66776842 4.17424345 10.48619462 8.6850312 12.890625 16.18359375 C14.20431786 24.82854032 13.02859488 32.03961548 7.890625 39.18359375 C3.13283721 44.51774063 -2.22173876 47.8495725 -9.3828125 48.46484375 C-18.14136493 48.68894317 -25.87218579 48.16634429 -32.65625 41.94140625 C-38.26997349 35.1506117 -41.07446657 27.73026559 -40.55859375 18.9375 C-39.18012886 10.48691089 -34.01260028 4.91885975 -27.37109375 -0.140625 C-19.33347941 -5.0458072 -8.12335046 -4.34749682 0 0 Z " fill="#F3F3F0" transform="translate(307.109375,564.81640625)"/>
<path d="M0 0 C21.78 0 43.56 0 66 0 C66 4.29 66 8.58 66 13 C60.06 13 54.12 13 48 13 C48.01571045 14.39758545 48.0314209 15.7951709 48.04760742 17.23510742 C48.10194909 22.42531562 48.13636575 27.6154987 48.16479492 32.8059082 C48.17987182 35.05139394 48.20033653 37.29685029 48.22631836 39.54223633 C48.26274918 42.77172099 48.27973755 46.00081594 48.29296875 49.23046875 C48.30845261 50.23272995 48.32393646 51.23499115 48.33988953 52.2676239 C48.34200491 61.04868477 48.34200491 61.04868477 45 65 C39.79809524 68.68935091 34.73916983 68.35758033 28.625 68.1875 C27.69816406 68.17396484 26.77132813 68.16042969 25.81640625 68.14648438 C23.54366002 68.11133881 21.27214153 68.06214132 19 68 C18.79503906 67.31292969 18.59007812 66.62585938 18.37890625 65.91796875 C18.10949219 65.01691406 17.84007812 64.11585938 17.5625 63.1875 C17.29566406 62.29417969 17.02882813 61.40085937 16.75390625 60.48046875 C16.19612127 58.64526945 15.60655425 56.81966274 15 55 C21.27 55 27.54 55 34 55 C34 41.14 34 27.28 34 13 C22.78 13 11.56 13 0 13 C0 8.71 0 4.42 0 0 Z " fill="#F0F0EE" transform="translate(239,460)"/>
<path d="M0 0 C2.01953125 1.4375 2.01953125 1.4375 3.8125 3 C4.41707031 3.515625 5.02164063 4.03125 5.64453125 4.5625 C7 6 7 6 7 8 C1.16378368 10.78454704 -4.61989894 12.19577158 -10.9375 13.5 C-11.95078369 13.71358154 -12.96406738 13.92716309 -14.00805664 14.1472168 C-17.00354279 14.77409083 -20.00129805 15.38871828 -23 16 C-23.825 16.17096191 -24.65 16.34192383 -25.5 16.51806641 C-27.6439141 16.95997336 -29.78976534 17.38960013 -31.9375 17.8125 C-33.12214844 18.04582031 -34.30679688 18.27914063 -35.52734375 18.51953125 C-39.42303607 19.0585303 -43.06944023 19.03120096 -47 19 C-46.97381592 20.14662109 -46.94763184 21.29324219 -46.9206543 22.47460938 C-45.61413945 85.24563744 -45.61413945 85.24563744 -61 104 C-64.77727089 102.18690997 -68.37269822 100.0926741 -72 98 C-71.03971152 95.58653161 -70.07415562 93.17697644 -69.0703125 90.78125 C-63.24074287 76.71319767 -59.75126593 63.09513183 -59.5859375 47.8671875 C-59.56657135 46.74933868 -59.5472052 45.63148987 -59.5272522 44.47976685 C-59.46795711 40.94491972 -59.42127267 37.41003913 -59.375 33.875 C-59.33677409 31.46352826 -59.29771975 29.0520695 -59.2578125 26.640625 C-59.16229732 20.76053276 -59.07710658 14.88036092 -59 9 C-58.27155884 8.93959534 -57.54311768 8.87919067 -56.79260254 8.81695557 C-51.9280234 8.39741415 -47.13020065 7.98232944 -42.34375 6.984375 C-41.39282471 6.787229 -40.44189941 6.59008301 -39.4621582 6.38696289 C-38.484646 6.17676514 -37.50713379 5.96656738 -36.5 5.75 C-35.46770264 5.53400146 -34.43540527 5.31800293 -33.37182617 5.09545898 C-25.82078178 3.48298125 -18.36206509 1.60565722 -10.9765625 -0.65136719 C-6.59291502 -1.91255122 -3.99004239 -2.36733149 0 0 Z " fill="#F5F4F3" transform="translate(529,424)"/>
<path d="M0 0 C4.60734103 4.14206767 6.8570585 8.61994711 7.22705078 14.78051758 C7.22673701 16.23522724 7.21560903 17.68996315 7.1953125 19.14453125 C7.1924826 19.91431808 7.18965271 20.68410492 7.18673706 21.47721863 C7.17559157 23.92247425 7.15049781 26.36735612 7.125 28.8125 C7.1149629 30.47590615 7.10583833 32.13931807 7.09765625 33.80273438 C7.07567073 37.86863237 7.04118014 41.93425294 7 46 C2.71 46 -1.58 46 -6 46 C-6 45.01 -6 44.02 -6 43 C-6.58265625 43.28875 -7.1653125 43.5775 -7.765625 43.875 C-14.54369795 46.94431605 -20.58223167 48.0504932 -28 47 C-32.881441 44.73361668 -35.70028068 41.86479088 -38 37 C-38.63745837 32.12953152 -38.61588088 27.7027295 -36.9375 23.0625 C-32.97487211 18.84421869 -28.99556089 16.78077031 -23.265625 16.57421875 C-21.59341069 16.59128216 -19.92129107 16.62937937 -18.25 16.6875 C-17.40050781 16.69716797 -16.55101562 16.70683594 -15.67578125 16.71679688 C-12.14808218 16.78088619 -9.37302671 16.87565776 -6 18 C-6.80784722 14.69517048 -7.46559681 12.51716438 -9.9375 10.125 C-16.85493102 7.58390289 -24.18295845 8.576163 -31 11 C-31.5345256 9.75579353 -32.05208611 8.50429064 -32.5625 7.25 C-32.85253906 6.55390625 -33.14257812 5.8578125 -33.44140625 5.140625 C-34.10248188 2.60727224 -34.09903911 1.37957091 -33 -1 C-23.73414041 -6.41013152 -8.77863445 -6.07033233 0 0 Z " fill="#F3F3F0" transform="translate(426,566)"/>
<path d="M0 0 C5.89253608 3.60663846 8.73941682 7.96320864 11.8125 14.109375 C11.8125 18.729375 11.8125 23.349375 11.8125 28.109375 C0.5925 28.109375 -10.6275 28.109375 -22.1875 28.109375 C-19.63745946 33.86797382 -19.63745946 33.86797382 -15.1875 37.109375 C-9.10507164 38.03397663 -4.28564198 37.66262547 0.8125 34.109375 C2.8125 34.046875 2.8125 34.046875 4.8125 35.109375 C6.64640742 37.0170603 8.1973811 39.00074754 9.8125 41.109375 C8.75762267 42.07609256 7.69316719 43.03236245 6.625 43.984375 C6.03332031 44.51804687 5.44164062 45.05171875 4.83203125 45.6015625 C-1.6807742 50.46412131 -9.46112871 49.63731577 -17.1875 49.109375 C-23.36902807 47.85408176 -28.76355669 43.36082766 -32.48046875 38.375 C-34.74666872 34.67708524 -35.84390578 31.4043027 -36.1875 27.109375 C-36.25066406 26.44164062 -36.31382812 25.77390625 -36.37890625 25.0859375 C-36.77785979 17.75034007 -35.05328636 11.31199819 -30.09375 5.76953125 C-21.55313658 -2.10206745 -11.09481011 -4.9002078 0 0 Z " fill="#F5F4F2" transform="translate(530.1875,563.890625)"/>
<path d="M0 0 C4.83628305 0.99043705 9.47618873 1.95698846 14 4 C12.56407335 8.11983144 10.53749031 11.25817998 7.9375 14.75 C7.22464844 15.71421875 6.51179688 16.6784375 5.77734375 17.671875 C4 20 4 20 3 21 C2.87655973 22.87096111 2.82207606 24.74650928 2.79467773 26.62133789 C2.77473251 27.82250748 2.75478729 29.02367706 2.73423767 30.26124573 C2.71752518 31.5685112 2.70081268 32.87577667 2.68359375 34.22265625 C2.66303042 35.56644847 2.64203412 36.91023412 2.62062073 38.25401306 C2.56533581 41.79674987 2.51595502 45.33954567 2.46777344 48.88238525 C2.41760513 52.4952115 2.36189475 56.10795172 2.30664062 59.72070312 C2.1989806 66.81372901 2.09806511 73.90683404 2 81 C-2.29 81 -6.58 81 -11 81 C-11 66.81 -11 52.62 -11 38 C-14.3 40.31 -17.6 42.62 -21 45 C-24.48770484 43.25614758 -25.88811501 42.35986729 -28.3125 39.5625 C-28.84488281 38.96566406 -29.37726563 38.36882812 -29.92578125 37.75390625 C-30.28027344 37.17511719 -30.63476562 36.59632813 -31 36 C-29.85919184 32.57757553 -29.117411 32.11925201 -26.25 30.125 C-23.65825348 28.26711719 -21.32048886 26.43880862 -19.125 24.125 C-18.42375 23.42375 -17.7225 22.7225 -17 22 C-16.34 22 -15.68 22 -15 22 C-14.73703125 21.41476562 -14.4740625 20.82953125 -14.203125 20.2265625 C-12.94609632 17.90024319 -11.56160982 16.29269508 -9.75 14.375 C-5.7895162 9.97446245 -2.88195608 5.15162845 0 0 Z " fill="#F7F7F5" transform="translate(225,447)"/>
<path d="M0 0 C3.79919302 2.26125721 5.58028012 4.38047766 8.30078125 8.0078125 C5.99078125 10.6478125 3.68078125 13.2878125 1.30078125 16.0078125 C-1.67115725 14.88329523 -4.03362562 13.78487459 -6.69921875 12.0078125 C-10.11047667 11.40650602 -13.29239341 11.36665558 -16.69921875 12.0078125 C-19.56811977 14.1190128 -21.1123331 16.83404119 -22.69921875 20.0078125 C-23.09417315 25.83338994 -22.66276393 29.79606063 -19.69921875 35.0078125 C-16.32413949 37.99716842 -13.18522921 38.52304774 -8.69140625 38.37890625 C-5.49332438 37.78318512 -3.26705378 35.9187595 -0.69921875 34.0078125 C2.30078125 34.0078125 2.30078125 34.0078125 3.90625 35.5390625 C4.68935547 36.51359375 4.68935547 36.51359375 5.48828125 37.5078125 C6.01808594 38.1575 6.54789062 38.8071875 7.09375 39.4765625 C7.49207031 39.981875 7.89039063 40.4871875 8.30078125 41.0078125 C6.44945184 45.59205674 3.77712049 46.97894283 -0.58203125 49.01953125 C-7.94155555 51.35281402 -16.45083792 51.27087049 -23.69921875 48.5078125 C-29.07289837 45.65336264 -33.09603835 41.11766076 -35.8671875 35.7421875 C-36.93971321 32.21745512 -37.08275602 28.84798383 -37.07421875 25.1953125 C-37.07260742 24.48334717 -37.07099609 23.77138184 -37.06933594 23.0378418 C-36.93791775 17.41327216 -35.99257171 13.5217788 -32.69921875 9.0078125 C-32.16296875 8.1209375 -31.62671875 7.2340625 -31.07421875 6.3203125 C-22.98879565 -1.5523363 -10.64579092 -3.91321403 0 0 Z " fill="#F5F4F3" transform="translate(479.69921875,562.9921875)"/>
<path d="M0 0 C18.48 0 36.96 0 56 0 C56 3.96 56 7.92 56 12 C37.52 12 19.04 12 0 12 C0 8.04 0 4.08 0 0 Z " fill="#F9F9F8" transform="translate(244,428)"/>
<path d="M0 0 C3.08002555 1.27218447 4.59345012 2.55139324 6.8125 5 C8.98516212 10.48883063 9.02333458 16.54399702 6.75 22 C4.20599117 24.90743866 2.26317504 26.77409686 -1.62109375 27.46875 C-9.2468119 27.55336268 -9.2468119 27.55336268 -13.0625 24.75 C-16.47838288 19.90165011 -17.54870425 16.47990714 -17.4609375 10.546875 C-16.6951155 6.31538397 -14.21271539 3.72165267 -11 1 C-7.54820431 -0.72589785 -3.78133961 -0.36043965 0 0 Z " fill="#050607" transform="translate(298,574)"/>
<path d="M0 0 C4.85963179 0.60745397 8.7405518 2.72758967 13 5 C8.2411563 15.46513647 -4.64040864 28.02525647 -15 33 C-17.16796875 32.83984375 -17.16796875 32.83984375 -19 32 C-20.38232443 30.37373596 -21.71937515 28.7074998 -23 27 C-23.66 26.67 -24.32 26.34 -25 26 C-23.4373353 21.74995016 -20.22645059 19.43730811 -16.8125 16.6875 C-8.3497707 10.2548537 -8.3497707 10.2548537 -2 2 C-1.34 2 -0.68 2 0 2 C0 1.34 0 0.68 0 0 Z " fill="#F0F1EE" transform="translate(221,422)"/>
<path d="M0 0 C2.97 0 5.94 0 9 0 C9.05907207 4.22910589 9.09395041 8.45810289 9.125 12.6875 C9.14175781 13.86634766 9.15851563 15.04519531 9.17578125 16.25976562 C9.2808689 35.4382622 9.2808689 35.4382622 6 42 C2.7 42 -0.6 42 -4 42 C-4.33 42.66 -4.66 43.32 -5 44 C-5.33 43.34 -5.66 42.68 -6 42 C-6.45375 42.66 -6.9075 43.32 -7.375 44 C-7.91125 44.66 -8.4475 45.32 -9 46 C-9.66 46 -10.32 46 -11 46 C-10.33333333 44 -9.66666667 42 -9 40 C-8.75894531 39.26523437 -8.51789063 38.53046875 -8.26953125 37.7734375 C-8.01558594 37.00257813 -7.76164062 36.23171875 -7.5 35.4375 C-7.2628125 34.71433594 -7.025625 33.99117188 -6.78125 33.24609375 C-6 31 -6 31 -5.01806641 28.74560547 C-3.90901486 25.75462377 -3.39584087 22.97852325 -2.9296875 19.82421875 C-2.75566406 18.66728516 -2.58164062 17.51035156 -2.40234375 16.31835938 C-2.22832031 15.12017578 -2.05429687 13.92199219 -1.875 12.6875 C-1.69324219 11.46998047 -1.51148438 10.25246094 -1.32421875 8.99804688 C-0.87737061 5.99946069 -0.4361669 3.00015528 0 0 Z " fill="#0E0E0E" transform="translate(339,475)"/>
<path d="M0 0 C3.57770548 1.38297859 6.74845193 2.95616979 10 5 C9.34950129 10.77795914 7.33219456 15.86844567 5.25 21.25 C4.91484375 22.14074219 4.5796875 23.03148437 4.234375 23.94921875 C1.85180342 30.16736958 -0.91987313 36.09775069 -4 42 C-7.14364834 41.28839233 -9.15995402 40.38003448 -11.75 38.4375 C-12.36359375 37.98246094 -12.9771875 37.52742187 -13.609375 37.05859375 C-14.29773438 36.53458984 -14.29773438 36.53458984 -15 36 C-14.37408105 30.8361687 -12.01211224 26.54493383 -9.75 21.9375 C-6.25720769 14.7082322 -2.96487429 7.46433175 0 0 Z " fill="#F2F2F1" transform="translate(451,484)"/>
<path d="M0 0 C1.98 0 3.96 0 6 0 C6.25523437 1.4540625 6.25523437 1.4540625 6.515625 2.9375 C9.31419028 18.56692582 13.11014373 33.23609362 19 48 C18.01 48.495 18.01 48.495 17 49 C16.34444881 51.52733235 16.34444881 51.52733235 16 54 C15.67 54 15.34 54 15 54 C14.01751476 49.9472484 13.91840426 46.16138263 14 42 C13.49210938 42.27714844 12.98421875 42.55429687 12.4609375 42.83984375 C11.42839844 43.38318359 11.42839844 43.38318359 10.375 43.9375 C9.36566406 44.47697266 9.36566406 44.47697266 8.3359375 45.02734375 C6 46 6 46 0 47 C0 31.49 0 15.98 0 0 Z " fill="#0F100F" transform="translate(501,462)"/>
<path d="M0 0 C2.51625 -0.0825 5.0325 -0.165 7.625 -0.25 C8.79603271 -0.30462402 8.79603271 -0.30462402 9.99072266 -0.36035156 C15.1007707 -0.4407839 17.951248 0.63642141 22 4 C23.53214888 7.06429776 23.22938548 9.6165642 23 13 C21.17788983 17.21962355 19.11357743 19.03822598 15 21 C12.28489407 21.2110186 9.8804924 21.28721867 7.1875 21.1875 C4.815625 21.125625 2.44375 21.06375 0 21 C0 14.07 0 7.14 0 0 Z " fill="#171819" transform="translate(345,560)"/>
<path d="M0 0 C2.03955741 0.06022984 4.0792846 0.11497637 6.11914062 0.1640625 C11.10446254 0.29596232 16.08162066 0.50274703 21.0625 0.75 C21.0625 1.08 21.0625 1.41 21.0625 1.75 C17.1025 1.75 13.1425 1.75 9.0625 1.75 C9.0625 2.41 9.0625 3.07 9.0625 3.75 C-3.86814756 9.54787125 -16.80280992 14.78113465 -30.9375 16.75 C-30.51223022 15.95190918 -30.51223022 15.95190918 -30.07836914 15.13769531 C-28.8462678 12.69818146 -28.8462678 12.69818146 -27.98217773 9.76074219 C-22.78190442 -3.10942098 -11.87012337 -0.60671851 0 0 Z " fill="#090A0A" transform="translate(399.9375,445.25)"/>
<path d="M0 0 C7.68921896 0.40469573 14.08185941 5.44548628 20 10 C19.39305845 13.15330554 18.3583335 15.18888867 16.4375 17.75 C15.98246094 18.36359375 15.52742188 18.9771875 15.05859375 19.609375 C14.70925781 20.06828125 14.35992187 20.5271875 14 21 C13.29875 20.55269531 12.5975 20.10539062 11.875 19.64453125 C6.26592074 16.07026743 0.6460982 12.5154951 -5 9 C-3.47639094 5.89978679 -1.80178638 2.94837771 0 0 Z " fill="#F0F1EE" transform="translate(439,454)"/>
<path d="M0 0 C3.20475868 0.96373319 5.55247877 2.40718096 8.33984375 4.25390625 C9.28085937 4.87136719 10.221875 5.48882812 11.19140625 6.125 C12.02414062 6.68316406 12.856875 7.24132812 13.71484375 7.81640625 C14.70484375 8.47640625 15.69484375 9.13640625 16.71484375 9.81640625 C16.1079022 12.96971179 15.07317725 15.00529492 13.15234375 17.56640625 C12.69730469 18.18 12.24226563 18.79359375 11.7734375 19.42578125 C11.42410156 19.8846875 11.07476562 20.34359375 10.71484375 20.81640625 C6.86890569 19.0828923 3.52073177 16.67773673 0.08984375 14.25390625 C-3.96652646 11.3222394 -3.96652646 11.3222394 -8.28515625 8.81640625 C-6.88664456 4.62087117 -5.12017851 -0.41136477 0 0 Z " fill="#EFEFEF" transform="translate(447.28515625,424.18359375)"/>
<path d="M0 0 C0.95003906 0.00644531 1.90007812 0.01289062 2.87890625 0.01953125 C5.4375 0.1875 5.4375 0.1875 8.4375 1.1875 C7.82477783 7.682355 7.82477783 7.682355 6 10.0625 C3.08287936 12.16282686 1.05636788 12.37483272 -2.5 12.4375 C-3.37527344 12.46328125 -4.25054687 12.4890625 -5.15234375 12.515625 C-7.5625 12.1875 -7.5625 12.1875 -9.3828125 10.89453125 C-10.5625 9.1875 -10.5625 9.1875 -10.5 5.625 C-9.5625 2.1875 -9.5625 2.1875 -7.8515625 0.984375 C-5.11259172 0.03087664 -2.89634896 -0.04334672 0 0 Z " fill="#0D0D0F" transform="translate(411.5625,590.8125)"/>
<path d="M0 0 C3.43498707 2.13732529 5.63601629 4.15604592 7 8 C7 8.99 7 9.98 7 11 C0.07 11 -6.86 11 -14 11 C-13 5 -13 5 -10.375 2.125 C-6.42220098 -0.36379938 -4.58413736 -0.75013157 0 0 Z " fill="#0E1011" transform="translate(522,573)"/>
<path d="M0 0 C0.8250398 3.82518454 1.32812083 6.20560221 -0.1875 9.875 C-2.14079774 12.16507321 -3.05577584 12.69542509 -6 13 C-6.33 14.32 -6.66 15.64 -7 17 C-13.6 17 -20.2 17 -27 17 C-27 20.63 -27 24.26 -27 28 C-23.7 28 -20.4 28 -17 28 C-17 28.33 -17 28.66 -17 29 C-20.63 29 -24.26 29 -28 29 C-28 24.71 -28 20.42 -28 16 C-21.73 16 -15.46 16 -9 16 C-9.474375 14.4325 -9.94875 12.865 -10.4375 11.25 C-11.36636589 8.18070403 -12.24964259 5.11799003 -13 2 C-11.39935157 1.46845258 -9.79431126 0.95011647 -8.1875 0.4375 C-7.29417969 0.14746094 -6.40085937 -0.14257812 -5.48046875 -0.44140625 C-3 -1 -3 -1 0 0 Z " fill="#CBCCC9" transform="translate(344,422)"/>
<path d="M0 0 C2 3.75 2 3.75 2 6 C1.01 6.495 1.01 6.495 0 7 C0.33 7.66 0.66 8.32 1 9 C1.66 9 2.32 9 3 9 C3 8.34 3 7.68 3 7 C3.99 7 4.98 7 6 7 C4.2753198 14.95773497 1.53173728 21.23905863 -3 28 C-3.99 27.01 -4.98 26.02 -6 25 C-6.680625 25.99 -6.680625 25.99 -7.375 27 C-7.91125 27.66 -8.4475 28.32 -9 29 C-9.66 29 -10.32 29 -11 29 C-9.25969591 23.48751847 -7.1047844 18.16673929 -4.9375 12.8125 C-4.21667325 11.02765641 -3.49658843 9.24251296 -2.77734375 7.45703125 C-2.46015381 6.67303955 -2.14296387 5.88904785 -1.81616211 5.08129883 C-1.15950088 3.40674393 -0.56880032 1.70640097 0 0 Z " fill="#111111" transform="translate(459,495)"/>
<path d="M0 0 C4.455 0.99 4.455 0.99 9 2 C5.375 5 5.375 5 2 5 C2 26.45 2 47.9 2 70 C1.34 70 0.68 70 0 70 C0 46.9 0 23.8 0 0 Z " fill="#4B4B4C" transform="translate(426,310)"/>
<path d="M0 0 C0.33 0 0.66 0 1 0 C1 4.29 1 8.58 1 13 C2.65 13 4.3 13 6 13 C6.33 12.34 6.66 11.68 7 11 C7 30.8 7 50.6 7 71 C6.01 71 5.02 71 4 71 C4.99 70.505 4.99 70.505 6 70 C5.67 53.83 5.34 37.66 5 21 C4.67 21.66 4.34 22.32 4 23 C3.34 23 2.68 23 2 23 C1.67 26.63 1.34 30.26 1 34 C0.67 34 0.34 34 0 34 C0 22.78 0 11.56 0 0 Z " fill="#222323" transform="translate(482,443)"/>
<path d="M0 0 C0.66 0.33 1.32 0.66 2 1 C2.625 3.0625 2.625 3.0625 3 5 C3.66 5 4.32 5 5 5 C5.33 4.34 5.66 3.68 6 3 C6.99 2.34 7.98 1.68 9 1 C9.66 1.33 10.32 1.66 11 2 C10.39305845 5.15330554 9.3583335 7.18888867 7.4375 9.75 C6.98246094 10.36359375 6.52742188 10.9771875 6.05859375 11.609375 C5.70925781 12.06828125 5.35992187 12.5271875 5 13 C3.18381144 11.88096454 1.37214474 10.75458716 -0.4375 9.625 C-1.95150391 8.68527344 -1.95150391 8.68527344 -3.49609375 7.7265625 C-6 6 -6 6 -7 4 C-6.34 3.01 -5.68 2.02 -5 1 C-3.35 1.33 -1.7 1.66 0 2 C0 1.34 0 0.68 0 0 Z " fill="#EFEEEC" transform="translate(448,462)"/>
<path d="M0 0 C1.4540625 0.0309375 1.4540625 0.0309375 2.9375 0.0625 C3.2675 2.7025 3.5975 5.3425 3.9375 8.0625 C3.6075 6.7425 3.2775 5.4225 2.9375 4.0625 C0.9575 5.0525 0.9575 5.0525 -1.0625 6.0625 C-1.3925 16.9525 -1.7225 27.8425 -2.0625 39.0625 C-1.4025 39.3925 -0.7425 39.7225 -0.0625 40.0625 C-1.3825 40.0625 -2.7025 40.0625 -4.0625 40.0625 C-4.08714775 34.52661467 -4.10533496 28.990761 -4.11743164 23.45483398 C-4.12247244 21.5700627 -4.12930498 19.68529535 -4.13793945 17.80053711 C-4.15001617 15.09748364 -4.15573068 12.39448169 -4.16015625 9.69140625 C-4.16531754 8.84349014 -4.17047882 7.99557404 -4.17579651 7.1219635 C-4.17599195 5.10178932 -4.12456211 3.08172066 -4.0625 1.0625 C-3.0625 0.0625 -3.0625 0.0625 0 0 Z " fill="#313230" transform="translate(385.0625,468.9375)"/>
<path d="M0 0 C0.33 0 0.66 0 1 0 C1.04898437 1.22976563 1.09796875 2.45953125 1.1484375 3.7265625 C1.22351029 5.35939566 1.29905615 6.99220712 1.375 8.625 C1.4059375 9.43324219 1.436875 10.24148438 1.46875 11.07421875 C1.6952946 15.71838314 2.2592668 19.62693856 4 24 C3.34 24 2.68 24 2 24 C2.01047363 24.59949463 2.02094727 25.19898926 2.03173828 25.81665039 C2.07362837 28.5652233 2.09943003 31.31372874 2.125 34.0625 C2.15013672 35.47692383 2.15013672 35.47692383 2.17578125 36.91992188 C2.21372771 42.36523938 1.81252643 46.85499388 0 52 C-0.99 52 -1.98 52 -3 52 C-2.67657623 51.2756929 -2.35315247 50.5513858 -2.01992798 49.80513 C-1.01083228 47.02979225 -0.7285396 45.04803173 -0.68115234 42.11791992 C-0.66128265 41.17732224 -0.64141296 40.23672455 -0.62094116 39.2676239 C-0.60938995 38.2653627 -0.59783875 37.2631015 -0.5859375 36.23046875 C-0.56657135 35.19432938 -0.5472052 34.15819 -0.5272522 33.09065247 C-0.46759643 29.78968471 -0.42112669 26.48868181 -0.375 23.1875 C-0.33680737 20.94594855 -0.29775489 18.70441158 -0.2578125 16.46289062 C-0.16190642 10.97538914 -0.07681801 5.48780009 0 0 Z " fill="#333433" transform="translate(287,473)"/>
<path d="M0 0 C1.04501941 3.39631308 1 6.46501595 1 10 C1.33 11.65 1.66 13.3 2 15 C5.96 15 9.92 15 14 15 C14 15.33 14 15.66 14 16 C9.71 16 5.42 16 1 16 C1 15.01 1 14.02 1 13 C-0.98 13.66 -2.96 14.32 -5 15 C-5 12.69 -5 10.38 -5 8 C-7.64 8 -10.28 8 -13 8 C-13 7.67 -13 7.34 -13 7 C-9.04 6.34 -5.08 5.68 -1 5 C-0.67 3.35 -0.34 1.7 0 0 Z " fill="#E6E4E0" transform="translate(419,596)"/>
<path d="M0 0 C0.99 0.33 1.98 0.66 3 1 C3.33 3.31 3.66 5.62 4 8 C3.01 8.495 3.01 8.495 2 9 C8.93 9.495 8.93 9.495 16 10 C16 13.3 16 16.6 16 20 C15.67 20 15.34 20 15 20 C15 17.03 15 14.06 15 11 C9.72 11 4.44 11 -1 11 C-1 10.34 -1 9.68 -1 9 C-1.66 8.67 -2.32 8.34 -3 8 C-1.125 1.125 -1.125 1.125 0 0 Z " fill="#E9EBE9" transform="translate(344,429)"/>
<path d="M0 0 C8.25 0.33 16.5 0.66 25 1 C24.34 2.32 23.68 3.64 23 5 C20.72942623 5.05398987 18.45848712 5.09278742 16.1875 5.125 C14.29064453 5.15980469 14.29064453 5.15980469 12.35546875 5.1953125 C9 5 9 5 6 3 C5.67 3.33 5.34 3.66 5 4 C3.68 4 2.36 4 1 4 C0.67 2.68 0.34 1.36 0 0 Z " fill="#11080D" transform="translate(441,314)"/>
<path d="M0 0 C4.2742558 1.5830577 6.26531794 4.50568404 9 8 C4.375 12 4.375 12 1 12 C-0.60339848 8.88228073 -1.18974141 7.60988311 -0.125 4.1875 C0.24625 3.465625 0.6175 2.74375 1 2 C0.34 1.67 -0.32 1.34 -1 1 C-0.67 0.67 -0.34 0.34 0 0 Z " fill="#E9E9E7" transform="translate(413,470)"/>
<path d="M0 0 C0.33 0 0.66 0 1 0 C1.19785783 3.56144099 1.11103658 6.04454879 -1 9 C-3.125 9.75 -3.125 9.75 -5 10 C-5 9.34 -5 8.68 -5 8 C-15.89 8 -26.78 8 -38 8 C-38 7.67 -38 7.34 -38 7 C-26.78 7 -15.56 7 -4 7 C-3.34 5.68 -2.68 4.36 -2 3 C-1.34 2.01 -0.68 1.02 0 0 Z " fill="#393736" transform="translate(416,194)"/>
<path d="M0 0 C1.65 1.32 3.3 2.64 5 4 C3.6062718 8.43458973 1.39417765 10.87378374 -2 14 C-4.91517292 12.92598892 -6.77810176 12.22189824 -9 10 C-8.34 10 -7.68 10 -7 10 C-6.67 9.01 -6.34 8.02 -6 7 C-5.67 7.99 -5.34 8.98 -5 10 C-3.35 9.34 -1.7 8.68 0 8 C0 5.36 0 2.72 0 0 Z " fill="#E3E3DE" transform="translate(250,552)"/>
<path d="M0 0 C0 0.66 0 1.32 0 2 C-0.99 2.33 -1.98 2.66 -3 3 C-3 3.66 -3 4.32 -3 5 C-2.34 5.66 -1.68 6.32 -1 7 C-1.99 7.33 -2.98 7.66 -4 8 C-4 8.66 -4 9.32 -4 10 C-4.99 10 -5.98 10 -7 10 C-7.99 7.03 -8.98 4.06 -10 1 C-6.41220825 0.10305206 -3.65381163 -0.08304117 0 0 Z " fill="#F5F4F2" transform="translate(341,423)"/>
<path d="M0 0 C3.36179774 1.44077046 5.59156268 3.24750021 8 6 C8 6.66 8 7.32 8 8 C5.36 8.66 2.72 9.32 0 10 C0 8.68 0 7.36 0 6 C0.66 6 1.32 6 2 6 C2 5.34 2 4.68 2 4 C1.01 4 0.02 4 -1 4 C-0.67 2.68 -0.34 1.36 0 0 Z " fill="#ECECE9" transform="translate(409,451)"/>
<path d="M0 0 C0.53625 0.2475 1.0725 0.495 1.625 0.75 C0.92375 1.430625 0.2225 2.11125 -0.5 2.8125 C-3.65434337 5.95780513 -6.51434304 9.3388386 -9.375 12.75 C-10.035 11.76 -10.695 10.77 -11.375 9.75 C-9.30816147 4.69772805 -6.18612372 -0.65117092 0 0 Z " fill="#ECEAE9" transform="translate(424.375,184.25)"/>
<path d="M0 0 C0.66 0.33 1.32 0.66 2 1 C1.67 2.32 1.34 3.64 1 5 C1.66 5 2.32 5 3 5 C3.33 4.34 3.66 3.68 4 3 C4.33 3.99 4.66 4.98 5 6 C3.68 6.99 2.36 7.98 1 9 C-1.62187494 7.95125002 -2.79371361 7.35068687 -4.25 4.875 C-4.4975 4.25625 -4.745 3.6375 -5 3 C-4.01 2.67 -3.02 2.34 -2 2 C-1.34 2.33 -0.68 2.66 0 3 C0 2.01 0 1.02 0 0 Z " fill="#EAEAE8" transform="translate(203,483)"/>
<path d="M0 0 C2 1 2 1 3 3 C1.0429132 3.67031719 -0.91571113 4.33614683 -2.875 5 C-3.96554687 5.37125 -5.05609375 5.7425 -6.1796875 6.125 C-9 7 -9 7 -11 7 C-10.67 5.35 -10.34 3.7 -10 2 C-9.04287109 1.90912109 -9.04287109 1.90912109 -8.06640625 1.81640625 C-6.82697266 1.69072266 -6.82697266 1.69072266 -5.5625 1.5625 C-4.73878906 1.48128906 -3.91507812 1.40007812 -3.06640625 1.31640625 C-1.01337975 1.21069185 -1.01337975 1.21069185 0 0 Z " fill="#121112" transform="translate(434,145)"/>
<path d="M0 0 C1.66832577 2.50248865 2.62381674 4.41149187 3.625 7.1875 C3.88539063 7.90292969 4.14578125 8.61835938 4.4140625 9.35546875 C4.60742188 9.89816406 4.80078125 10.44085938 5 11 C4.01 11.495 4.01 11.495 3 12 C2.34444881 14.52733235 2.34444881 14.52733235 2 17 C1.67 17 1.34 17 1 17 C0.01751476 12.9472484 -0.08159574 9.16138263 0 5 C-0.66 5 -1.32 5 -2 5 C-2 4.01 -2 3.02 -2 2 C-1.34 2 -0.68 2 0 2 C0 1.34 0 0.68 0 0 Z " fill="#1C1E1C" transform="translate(515,499)"/>
<path d="M0 0 C0.66 0.33 1.32 0.66 2 1 C1.47731534 3.76276177 0.89130413 6.3260876 0 9 C0.99 9.66 1.98 10.32 3 11 C2.01 11 1.02 11 0 11 C0 12.32 0 13.64 0 15 C-0.66 15 -1.32 15 -2 15 C-2.33 13.68 -2.66 12.36 -3 11 C-3.99 12.485 -3.99 12.485 -5 14 C-5.66 13.67 -6.32 13.34 -7 13 C-4.69 9.37 -2.38 5.74 0 2 C-0.99 1.67 -1.98 1.34 -3 1 C-2.01 0.67 -1.02 0.34 0 0 Z " fill="#151616" transform="translate(239,449)"/>
<path d="M0 0 C2.33944736 0.28730055 4.6739143 0.61936779 7 1 C6.34 2.32 5.68 3.64 5 5 C4.19304687 4.84660156 3.38609375 4.69320312 2.5546875 4.53515625 C-1.59047179 3.9111048 -5.6922296 3.65372796 -9.875 3.4375 C-10.65875 3.39431641 -11.4425 3.35113281 -12.25 3.30664062 C-14.16650649 3.20146649 -16.08323333 3.10032075 -18 3 C-18 2.67 -18 2.34 -18 2 C-16.17662109 1.90912109 -16.17662109 1.90912109 -14.31640625 1.81640625 C-12.73175772 1.73201668 -11.14712298 1.6473679 -9.5625 1.5625 C-8.76005859 1.52318359 -7.95761719 1.48386719 -7.13085938 1.44335938 C-3.24760439 1.5945704 -3.24760439 1.5945704 0 0 Z " fill="#CDCBC9" transform="translate(466,174)"/>
<path d="M0 0 C0 0.99 0 1.98 0 3 C-2.573329 4.2866645 -4.50223038 4.16824551 -7.375 4.1875 C-8.80972656 4.20876953 -8.80972656 4.20876953 -10.2734375 4.23046875 C-13.03010017 3.99745572 -14.64947395 3.40920164 -17 2 C-14.10765685 1.17361624 -12.11257569 1 -9 1 C-9 0.67 -9 0.34 -9 0 C-3.375 -1.125 -3.375 -1.125 0 0 Z " fill="#1E1C20" transform="translate(239,597)"/>
<path d="M0 0 C1 3 1 3 0 6 C-0.680625 6.391875 -1.36125 6.78375 -2.0625 7.1875 C-6.33048779 9.82093927 -9.54693112 13.39269975 -13 17 C-13.66 16.34 -14.32 15.68 -15 15 C-14.33613281 14.41992188 -13.67226562 13.83984375 -12.98828125 13.2421875 C-8.26794615 9.06624141 -3.84575655 4.99948351 0 0 Z M-15 17 C-14.67 17.66 -14.34 18.32 -14 19 C-14.66 18.67 -15.32 18.34 -16 18 C-15.67 17.67 -15.34 17.34 -15 17 Z " fill="#1B1D1B" transform="translate(229,433)"/>
<path d="M0 0 C0.99 0.33 1.98 0.66 3 1 C2.67 1.99 2.34 2.98 2 4 C1.34 4 0.68 4 0 4 C0 4.99 0 5.98 0 7 C-1.98 7.33 -3.96 7.66 -6 8 C-6 7.01 -6 6.02 -6 5 C-3.1875 2.25 -3.1875 2.25 0 0 Z " fill="#EBEBE8" transform="translate(509,506)"/>
<path d="M0 0 C0.66 0.33 1.32 0.66 2 1 C-0.26244585 6.93892036 -3.89929786 9.58337766 -9 13 C-9 8.86218946 -7.28490393 7.79080004 -4.5 4.8125 C-3.6646875 3.91144531 -2.829375 3.01039063 -1.96875 2.08203125 C-0.99421875 1.05142578 -0.99421875 1.05142578 0 0 Z " fill="#282525" transform="translate(379,164)"/>
<path d="M0 0 C0.66 0.33 1.32 0.66 2 1 C1.319375 1.7425 0.63875 2.485 -0.0625 3.25 C-2.28353676 5.75949064 -2.28353676 5.75949064 -1.75 8.3125 C-1.5025 8.869375 -1.255 9.42625 -1 10 C-3.31 10.33 -5.62 10.66 -8 11 C-6.60366572 6.55711819 -4.39598172 4.13475236 -1 1 C-0.67 0.67 -0.34 0.34 0 0 Z " fill="#1F2120" transform="translate(221,562)"/>
<path d="M0 0 C0.33 0.99 0.66 1.98 1 3 C1.66 3.33 2.32 3.66 3 4 C2.01 5.32 1.02 6.64 0 8 C-3.16115776 6.63016497 -3.9927092 6.0109362 -6 3 C-5.34 3 -4.68 3 -4 3 C-3.67 2.34 -3.34 1.68 -3 1 C-2.01 1.33 -1.02 1.66 0 2 C0 1.34 0 0.68 0 0 Z " fill="#E8E7E5" transform="translate(415,519)"/>
<path d="M0 0 C1.32 0.99 2.64 1.98 4 3 C3.67 3.61875 3.34 4.2375 3 4.875 C1.85806765 6.91018344 1.85806765 6.91018344 2 9 C1.36525925 10.34882408 0.70151152 11.6846659 0 13 C-1.25069801 10.49860398 -1.13302467 8.72607309 -1.125 5.9375 C-1.12757813 5.03902344 -1.13015625 4.14054688 -1.1328125 3.21484375 C-1 1 -1 1 0 0 Z " fill="#1C1D1C" transform="translate(282,581)"/>
<path d="M0 0 C0.66 0.33 1.32 0.66 2 1 C1.3503125 1.5878125 1.3503125 1.5878125 0.6875 2.1875 C-1.14164898 4.00305796 -1.14164898 4.00305796 -2.4375 6.625 C-4 9 -4 9 -6.1875 9.8125 C-6.785625 9.874375 -7.38375 9.93625 -8 10 C-8 7 -8 7 -6.25 5.17578125 C-5.5075 4.56089844 -4.765 3.94601562 -4 3.3125 C-3.2575 2.68988281 -2.515 2.06726563 -1.75 1.42578125 C-1.1725 0.95527344 -0.595 0.48476563 0 0 Z " fill="#E6E7E5" transform="translate(507,564)"/>
<path d="M0 0 C0.66 1.32 1.32 2.64 2 4 C1.01 5.485 1.01 5.485 0 7 C-0.66 7 -1.32 7 -2 7 C-2.33 7.66 -2.66 8.32 -3 9 C-3.99 8.01 -4.98 7.02 -6 6 C-4.75453595 2.26360784 -3.36595047 1.81243487 0 0 Z " fill="#DEDDDB" transform="translate(200,477)"/>
<path d="M0 0 C2.16874252 0.50603992 3.99967627 0.99983813 6 2 C6.33 1.34 6.66 0.68 7 0 C7.99 0 8.98 0 10 0 C9.34 2.64 8.68 5.28 8 8 C6.85073734 7.04578192 5.70569459 6.08647955 4.5625 5.125 C3.92441406 4.59132813 3.28632813 4.05765625 2.62890625 3.5078125 C1 2 1 2 0 0 Z " fill="#202221" transform="translate(248,320)"/>
<path d="M0 0 C2.64 0.33 5.28 0.66 8 1 C4.375 4 4.375 4 1 4 C1 7.96 1 11.92 1 16 C0.67 16 0.34 16 0 16 C0 10.72 0 5.44 0 0 Z " fill="#1B191A" transform="translate(427,311)"/>
<path d="M0 0 C3 1.25 3 1.25 5 4.25 C3.22950311 4.30410687 1.45853151 4.34284119 -0.3125 4.375 C-1.79169922 4.40980469 -1.79169922 4.40980469 -3.30078125 4.4453125 C-6 4.25 -6 4.25 -9 2.25 C-6.69 2.58 -4.38 2.91 -2 3.25 C-2 2.59 -2 1.93 -2 1.25 C-2.99 0.92 -3.98 0.59 -5 0.25 C-3 -0.75 -3 -0.75 0 0 Z " fill="#CDCBCB" transform="translate(455,253.75)"/>
<path d="M0 0 C2.97 0 5.94 0 9 0 C9 0.33 9 0.66 9 1 C7.35 1 5.7 1 4 1 C4.33 2.32 4.66 3.64 5 5 C4.34 5 3.68 5 3 5 C3 6.98 3 8.96 3 11 C0.87953208 7.46588679 0.46800711 4.05606165 0 0 Z " fill="#C6C8C6" transform="translate(335,517)"/>
<path d="M0 0 C2.475 0.99 2.475 0.99 5 2 C5 2.99 5 3.98 5 5 C4.01 5 3.02 5 2 5 C1.67 5.99 1.34 6.98 1 8 C0.01 7.67 -0.98 7.34 -2 7 C-1.34 4.69 -0.68 2.38 0 0 Z " fill="#E2E2E1" transform="translate(451,484)"/>
<path d="M0 0 C2 0 2 0 3.6875 1.1875 C5 3 5 3 4.6875 5.6875 C4.460625 6.450625 4.23375 7.21375 4 8 C2.68 8.33 1.36 8.66 0 9 C-1.125 3.375 -1.125 3.375 0 0 Z " fill="#F8F8F4" transform="translate(446,425)"/>
<path d="M0 0 C0.66 0.66 1.32 1.32 2 2 C-0.31 4.97 -2.62 7.94 -5 11 C-6.07061422 6.7175431 -6.05807526 5.72413618 -4 2 C-1.875 0.6875 -1.875 0.6875 0 0 Z " fill="#141615" transform="translate(224,199)"/>
<path d="M0 0 C6.27 0 12.54 0 19 0 C19 0.33 19 0.66 19 1 C13.72 1 8.44 1 3 1 C3 2.32 3 3.64 3 5 C3.66 5.33 4.32 5.66 5 6 C4.34 6.66 3.68 7.32 3 8 C0 2.25 0 2.25 0 0 Z " fill="#C3C4BF" transform="translate(254,515)"/>
<path d="M0 0 C0 4.33174693 -2.65822583 6.22353653 -5.5 9.1875 C-6.28697266 10.02571289 -6.28697266 10.02571289 -7.08984375 10.88085938 C-8.38661613 12.26015364 -9.69246259 13.63090644 -11 15 C-11.66 14.67 -12.32 14.34 -13 14 C-11.02108364 11.85393535 -9.04187901 9.70813786 -7.0625 7.5625 C-6.49853516 6.95083984 -5.93457031 6.33917969 -5.35351562 5.70898438 C-4.81533203 5.12568359 -4.27714844 4.54238281 -3.72265625 3.94140625 C-3.22515869 3.40201416 -2.72766113 2.86262207 -2.21508789 2.30688477 C-1.48918929 1.52614632 -0.75381738 0.75381738 0 0 Z " fill="#2F2F2D" transform="translate(258,211)"/>
<path d="M0 0 C1.4391134 0.28359887 2.87625518 0.57721399 4.3125 0.875 C5.11300781 1.03742187 5.91351563 1.19984375 6.73828125 1.3671875 C9 2 9 2 12 4 C4.65882353 5.34588235 4.65882353 5.34588235 1.5 3.6875 C0 2 0 2 0 0 Z " fill="#181818" transform="translate(284,596)"/>
<path d="M0 0 C0.66 0.33 1.32 0.66 2 1 C1.360625 1.556875 0.72125 2.11375 0.0625 2.6875 C-2.19680987 5.22066561 -2.63149047 6.68341424 -3 10 C-2.01 10.33 -1.02 10.66 0 11 C-0.99 11.66 -1.98 12.32 -3 13 C-4.625 10.25 -4.625 10.25 -6 7 C-5.09475964 3.47962081 -2.9519056 1.96793706 0 0 Z " fill="#2A2A2C" transform="translate(412,486)"/>
<path d="M0 0 C6.27 0.33 12.54 0.66 19 1 C19 1.33 19 1.66 19 2 C14.38 2 9.76 2 5 2 C5 2.66 5 3.32 5 4 C3.68 4 2.36 4 1 4 C0.67 2.68 0.34 1.36 0 0 Z " fill="#3C3D3E" transform="translate(441,314)"/>
<path d="M0 0 C-2.64 2.64 -5.28 5.28 -8 8 C-9 5 -9 5 -8 2 C-4.83397003 -1.05685652 -4.53778383 -1.13444596 0 0 Z " fill="#EDEDEE" transform="translate(259,211)"/>
<path d="M0 0 C2.375 -0.125 2.375 -0.125 5 0 C5.66 0.66 6.32 1.32 7 2 C6.625 5.625 6.625 5.625 6 9 C3.75972706 6.11964908 1.83827868 3.15133488 0 0 Z " fill="#212122" transform="translate(474,212)"/>
<path d="M0 0 C0 4.07300169 -1.58452534 5.77936711 -4 9 C-6.25 10.875 -6.25 10.875 -8 12 C-8.66 11.67 -9.32 11.34 -10 11 C-8.52116808 9.35386588 -7.04192523 7.70810092 -5.5625 6.0625 C-4.73878906 5.14597656 -3.91507813 4.22945312 -3.06640625 3.28515625 C-1 1 -1 1 0 0 Z " fill="#D0D1D0" transform="translate(235,190)"/>
<path d="M0 0 C-0.185625 0.94875 -0.37125 1.8975 -0.5625 2.875 C-1.28686632 5.89868793 -1.28686632 5.89868793 0 8 C-3.65316671 6.75023244 -4.78065836 6.32901247 -7 3 C-2.25 0 -2.25 0 0 0 Z " fill="#EAE9E6" transform="translate(509,603)"/>
<path d="M0 0 C-2.57784846 2.64752004 -4.91648098 4.94432065 -8 7 C-8.33 5.68 -8.66 4.36 -9 3 C-5.92807025 0.26939578 -4.09590633 -0.34132553 0 0 Z " fill="#1F1E20" transform="translate(344,235)"/>
<path d="M0 0 C0.33 0 0.66 0 1 0 C1.19785783 3.56144099 1.11103658 6.04454879 -1 9 C-3.125 9.75 -3.125 9.75 -5 10 C-3.85017555 6.10828647 -2.70784225 3.06103907 0 0 Z " fill="#201D1F" transform="translate(416,194)"/>
<path d="M0 0 C0.66 0 1.32 0 2 0 C1.54738642 1.43931117 1.08767021 2.87638999 0.625 4.3125 C0.36976563 5.11300781 0.11453125 5.91351563 -0.1484375 6.73828125 C-1 9 -1 9 -3 12 C-4.125 5.25 -4.125 5.25 -3 3 C-2.01 3 -1.02 3 0 3 C0 2.01 0 1.02 0 0 Z " fill="#1A161A" transform="translate(380,190)"/>
<path d="M0 0 C0.33 0.99 0.66 1.98 1 3 C-0.40445835 5.2636564 -2.1967913 7.0208685 -4 9 C-4.144375 8.401875 -4.28875 7.80375 -4.4375 7.1875 C-4.8872439 5.43849596 -5.42892341 3.71322977 -6 2 C-2.25 0 -2.25 0 0 0 Z " fill="#141112" transform="translate(231,191)"/>
<path d="M0 0 C0.99 0.33 1.98 0.66 3 1 C2.67 2.32 2.34 3.64 2 5 C-0.49064888 5.68707555 -2.37886292 6 -5 6 C-5 5.34 -5 4.68 -5 4 C-4.34 4 -3.68 4 -3 4 C-2.67 3.34 -2.34 2.68 -2 2 C-1.34 1.34 -0.68 0.68 0 0 Z " fill="#E6E5E2" transform="translate(456,463)"/>
<path d="M0 0 C-0.99 0.495 -0.99 0.495 -2 1 C-1.67 1.99 -1.34 2.98 -1 4 C-3.64 4.33 -6.28 4.66 -9 5 C-8.34 4.01 -7.68 3.02 -7 2 C-7.33 1.34 -7.66 0.68 -8 0 C-4.94736336 -0.98120464 -3.05263664 -0.98120464 0 0 Z " fill="#242323" transform="translate(474,314)"/>
<path d="M0 0 C0.66 0.33 1.32 0.66 2 1 C0.68 3.64 -0.64 6.28 -2 9 C-2.99 9 -3.98 9 -5 9 C-3.90931332 5.22454612 -3.0916909 2.52956528 0 0 Z " fill="#EEEEEB" transform="translate(240,230)"/>
<path d="M0 0 C0.66 0.33 1.32 0.66 2 1 C0.515 3.475 0.515 3.475 -1 6 C-3.97 5.505 -3.97 5.505 -7 5 C-4.63707344 2.47411298 -3.33537489 1.11179163 0 0 Z " fill="#DDDCDA" transform="translate(260,173)"/>
<path d="M0 0 C0.66 0 1.32 0 2 0 C2.268125 0.639375 2.53625 1.27875 2.8125 1.9375 C3.88667752 4.33131686 3.88667752 4.33131686 7 5 C6.34 6.98 5.68 8.96 5 11 C2.77174356 8.77174356 2.30760631 7.34238372 1.375 4.375 C1.11460937 3.55773437 0.85421875 2.74046875 0.5859375 1.8984375 C0.39257812 1.27195312 0.19921875 0.64546875 0 0 Z " fill="#DFDFDA" transform="translate(515,498)"/>
<path d="M0 0 C1.65 0 3.3 0 5 0 C2.19195732 2.96404505 -0.18315774 5.44499019 -4 7 C-4 6.01 -4 5.02 -4 4 C-3.34 4 -2.68 4 -2 4 C-1.34 2.68 -0.68 1.36 0 0 Z " fill="#242A27" transform="translate(525,471)"/>
<path d="M0 0 C3.3 0 6.6 0 10 0 C9.67 1.65 9.34 3.3 9 5 C8.01 5 7.02 5 6 5 C6 4.01 6 3.02 6 2 C3.03 1.505 3.03 1.505 0 1 C0 0.67 0 0.34 0 0 Z " fill="#0C0C0B" transform="translate(316,451)"/>
<path d="M0 0 C0.99 0.495 0.99 0.495 2 1 C2 1.66 2 2.32 2 3 C2.99 2.67 3.98 2.34 5 2 C6.07637127 5.87493656 5.94566951 7.52452927 4 11 C3.32880451 9.5437455 2.66318193 8.08492133 2 6.625 C1.62875 5.81289063 1.2575 5.00078125 0.875 4.1640625 C0 2 0 2 0 0 Z " fill="#DFDEDD" transform="translate(206,306)"/>
<path d="M0 0 C0 0.66 0 1.32 0 2 C-2.1875 4.1875 -2.1875 4.1875 -5 6 C-7.8125 5.75 -7.8125 5.75 -10 5 C-3.63636364 0 -3.63636364 0 0 0 Z " fill="#272628" transform="translate(497,304)"/>
<path d="M0 0 C0.66 0.33 1.32 0.66 2 1 C-1.3 4.3 -4.6 7.6 -8 11 C-8.66 10.34 -9.32 9.68 -10 9 C-6.7 6.03 -3.4 3.06 0 0 Z " fill="#D8D8D8" transform="translate(348,231)"/>
<path d="M0 0 C0.6875 1.75 0.6875 1.75 1 4 C-0.125 6.125 -0.125 6.125 -2 8 C-4.69921875 8.390625 -4.69921875 8.390625 -7.6875 8.25 C-8.68136719 8.21390625 -9.67523438 8.1778125 -10.69921875 8.140625 C-11.83810547 8.07101562 -11.83810547 8.07101562 -13 8 C-13 7.67 -13 7.34 -13 7 C-9.04 6.34 -5.08 5.68 -1 5 C-0.67 3.35 -0.34 1.7 0 0 Z " fill="#B8B9BB" transform="translate(419,596)"/>
<path d="M0 0 C0.66 1.32 1.32 2.64 2 4 C1.51917969 4.39832031 1.03835938 4.79664063 0.54296875 5.20703125 C-1.37391825 7.43450247 -1.47741643 8.78834669 -1.6875 11.6875 C-1.75324219 12.49574219 -1.81898438 13.30398438 -1.88671875 14.13671875 C-1.92410156 14.75160156 -1.96148437 15.36648438 -2 16 C-2.33 16 -2.66 16 -3 16 C-3.55353075 4.29384966 -3.55353075 4.29384966 0 0 Z " fill="#CACCCB" transform="translate(391,587)"/>
<path d="M0 0 C2.475 0.495 2.475 0.495 5 1 C5.625 2.8125 5.625 2.8125 6 5 C5.01 6.485 5.01 6.485 4 8 C2.68 5.36 1.36 2.72 0 0 Z " fill="#201D20" transform="translate(239,306)"/>
<path d="M0 0 C1.32 0.66 2.64 1.32 4 2 C-1.75 7 -1.75 7 -4 7 C-3.67 5.35 -3.34 3.7 -3 2 C-2.01 2 -1.02 2 0 2 C0 1.34 0 0.68 0 0 Z " fill="#19181A" transform="translate(239,183)"/>
<path d="M0 0 C1.65 1.32 3.3 2.64 5 4 C4.67 4.99 4.34 5.98 4 7 C2.68 7 1.36 7 0 7 C0 4.69 0 2.38 0 0 Z " fill="#EDECE8" transform="translate(250,552)"/>
<path d="M0 0 C0.33 0.66 0.66 1.32 1 2 C1.66 2 2.32 2 3 2 C3 2.66 3 3.32 3 4 C2.34 4 1.68 4 1 4 C0.01 5.98 -0.98 7.96 -2 10 C-2.66 10 -3.32 10 -4 10 C-2.8905928 6.51329166 -1.73662334 3.22515763 0 0 Z " fill="#2C2C2D" transform="translate(452,514)"/>
<path d="M0 0 C0.33 0 0.66 0 1 0 C1.33 2.31 1.66 4.62 2 7 C1.34 7 0.68 7 0 7 C0.226875 7.763125 0.45375 8.52625 0.6875 9.3125 C0.790625 10.199375 0.89375 11.08625 1 12 C-0.48046875 13.66796875 -0.48046875 13.66796875 -2 15 C-1.03644647 4.44191344 -1.03644647 4.44191344 0 0 Z " fill="#D8D8D6" transform="translate(469,484)"/>
<path d="M0 0 C2.31 0 4.62 0 7 0 C7.33 0.66 7.66 1.32 8 2 C5.36 2.99 2.72 3.98 0 5 C0 3.35 0 1.7 0 0 Z " fill="#EAE9E6" transform="translate(274,196)"/>
<path d="M0 0 C1.9375 0.25 1.9375 0.25 4 1 C4.66 1.99 5.32 2.98 6 4 C5.34 4.66 4.68 5.32 4 6 C1.875 5.625 1.875 5.625 0 5 C0.33 4.01 0.66 3.02 1 2 C0.34 1.67 -0.32 1.34 -1 1 C-0.67 0.67 -0.34 0.34 0 0 Z " fill="#E4E5E0" transform="translate(531,598)"/>
<path d="M0 0 C1.32 0 2.64 0 4 0 C4.6875 2.3125 4.6875 2.3125 5 5 C3.5625 6.8125 3.5625 6.8125 2 8 C2 6.68 2 5.36 2 4 C1.01 4.495 1.01 4.495 0 5 C0 3.35 0 1.7 0 0 Z " fill="#0B0C0B" transform="translate(483,443)"/>
<path d="M0 0 C0.99 0 1.98 0 3 0 C1.50902342 3.7952131 -0.75700849 5.61042731 -4 8 C-3.67 6.35 -3.34 4.7 -3 3 C-2.01 2.67 -1.02 2.34 0 2 C0 1.34 0 0.68 0 0 Z " fill="#E1E3DF" transform="translate(223,436)"/>
<path d="M0 0 C0.99 0.33 1.98 0.66 3 1 C3.33 1.99 3.66 2.98 4 4 C-0.625 6.125 -0.625 6.125 -4 5 C-3.34 5 -2.68 5 -2 5 C-2 3.68 -2 2.36 -2 1 C-1.34 0.67 -0.68 0.34 0 0 Z " fill="#E9E8E8" transform="translate(464,251)"/>
<path d="M0 0 C0.66 0.33 1.32 0.66 2 1 C-0.97 3.64 -3.94 6.28 -7 9 C-7.66 8.67 -8.32 8.34 -9 8 C-6.03 5.36 -3.06 2.72 0 0 Z " fill="#DCDADB" transform="translate(365,217)"/>
<path d="M0 0 C0 0.66 0 1.32 0 2 C2.64 2 5.28 2 8 2 C8 2.33 8 2.66 8 3 C3.71 3 -0.58 3 -5 3 C-5.33 3.66 -5.66 4.32 -6 5 C-6 4.01 -6 3.02 -6 2 C-2.25 0 -2.25 0 0 0 Z " fill="#EEEDEB" transform="translate(513,589)"/>
<path d="M0 0 C0.33 0 0.66 0 1 0 C1.27573092 2.10094974 1.51978976 4.20607635 1.75 6.3125 C1.88921875 7.48425781 2.0284375 8.65601563 2.171875 9.86328125 C2.11515625 10.89839844 2.0584375 11.93351563 2 13 C0.68 13.99 -0.64 14.98 -2 16 C-1.34 10.72 -0.68 5.44 0 0 Z " fill="#434344" transform="translate(382,565)"/>
<path d="M0 0 C0.33 1.32 0.66 2.64 1 4 C-1.97 6.475 -1.97 6.475 -5 9 C-5.66 8.67 -6.32 8.34 -7 8 C-4.69 5.36 -2.38 2.72 0 0 Z " fill="#2B2E2A" transform="translate(543,516)"/>
<path d="M0 0 C0.66 0.66 1.32 1.32 2 2 C1.01 3.98 0.02 5.96 -1 8 C-2.65 6.35 -4.3 4.7 -6 3 C-4.02 2.67 -2.04 2.34 0 2 C0 1.34 0 0.68 0 0 Z " fill="#CBCACA" transform="translate(369,457)"/>
<path d="M0 0 C0.66 0.99 1.32 1.98 2 3 C1.34 3 0.68 3 0 3 C0 4.32 0 5.64 0 7 C-3 9 -3 9 -5 9 C-3.50163895 5.88801935 -1.80066242 2.9465385 0 0 Z " fill="#2B2D2D" transform="translate(374,453)"/>
<path d="M0 0 C0.99 1.485 0.99 1.485 2 3 C2.66 3 3.32 3 4 3 C3.39816251 5.02045442 2.72693904 7.02111039 2 9 C1.01 9.495 1.01 9.495 0 10 C0 6.7 0 3.4 0 0 Z " fill="#151715" transform="translate(361,439)"/>
<path d="M0 0 C0.94875 0.350625 1.8975 0.70125 2.875 1.0625 C2.875 2.0525 2.875 3.0425 2.875 4.0625 C-2.875 2.3125 -2.875 2.3125 -5.125 0.0625 C-3.125 -0.9375 -3.125 -0.9375 0 0 Z " fill="#E0DFDF" transform="translate(260.125,364.9375)"/>
<path d="M0 0 C-1.6875 1.5625 -1.6875 1.5625 -4 3 C-6.75 2.6875 -6.75 2.6875 -9 2 C-9 1.34 -9 0.68 -9 0 C-5.62182575 -0.84454356 -3.32534757 -1.10844919 0 0 Z " fill="#0B0B09" transform="translate(481,277)"/>
<path d="M0 0 C2 3 2 3 1.875 5.0625 C1 7 1 7 -3 9 C-2.01 6.03 -1.02 3.06 0 0 Z " fill="#2A2A29" transform="translate(533,259)"/>
<path d="M0 0 C0.33 1.32 0.66 2.64 1 4 C-0.65 4.66 -2.3 5.32 -4 6 C-4.66 5.34 -5.32 4.68 -6 4 C-4.02 2.68 -2.04 1.36 0 0 Z " fill="#221F1E" transform="translate(268,204)"/>
<path d="M0 0 C-2.81870287 2.81870287 -5.09056945 2.7303841 -9 3 C-11.4375 2.0625 -11.4375 2.0625 -13 1 C-8.59085217 -0.10228696 -4.51617599 -0.07654536 0 0 Z M-11 3 C-9 4 -9 4 -9 4 Z " fill="#D5D2D2" transform="translate(450,146)"/>
<path d="M0 0 C0.66 0.33 1.32 0.66 2 1 C-0.64 3.64 -3.28 6.28 -6 9 C-6 6 -6 6 -3.5625 3.375 C-2.716875 2.59125 -1.87125 1.8075 -1 1 C-0.67 0.67 -0.34 0.34 0 0 Z " fill="#CED2CF" transform="translate(454,565)"/>
<path d="M0 0 C0.99 0.33 1.98 0.66 3 1 C2.4409112 4.24271506 1.5867822 5.93057424 -1 8 C-1.66 8 -2.32 8 -3 8 C-2.5359375 7.13375 -2.5359375 7.13375 -2.0625 6.25 C-1.07416636 4.15705816 -0.4831387 2.25464725 0 0 Z " fill="#2C302B" transform="translate(421,515)"/>
<path d="M0 0 C0.66 0.33 1.32 0.66 2 1 C1.50168276 4.68754757 0.89932357 6.60490662 -2 9 C-2.66 8.67 -3.32 8.34 -4 8 C-2.68 6.02 -1.36 4.04 0 2 C-0.99 1.67 -1.98 1.34 -3 1 C-2.01 0.67 -1.02 0.34 0 0 Z " fill="#272928" transform="translate(239,449)"/>
<path d="M0 0 C1.32 0.33 2.64 0.66 4 1 C4.625 3.3125 4.625 3.3125 5 6 C4.01 7.485 4.01 7.485 3 9 C2.01 6.03 1.02 3.06 0 0 Z " fill="#D2D4D4" transform="translate(331,424)"/>
<path d="M0 0 C0.66 0.99 1.32 1.98 2 3 C0.02 5.31 -1.96 7.62 -4 10 C-4.33 9.34 -4.66 8.68 -5 8 C-4.00390625 6.0546875 -4.00390625 6.0546875 -2.5625 3.875 C-2.08941406 3.15054688 -1.61632812 2.42609375 -1.12890625 1.6796875 C-0.75636719 1.12539062 -0.38382813 0.57109375 0 0 Z " fill="#D2D1D0" transform="translate(218,210)"/>
<path d="M0 0 C0.33 0 0.66 0 1 0 C1 1.65 1 3.3 1 5 C-2.3 5 -5.6 5 -9 5 C-9 4.67 -9 4.34 -9 4 C-6.03 3.34 -3.06 2.68 0 2 C0 1.34 0 0.68 0 0 Z " fill="#181515" transform="translate(334,433)"/>
<path d="M0 0 C1.04449911 3.13349732 0.93423645 3.98968256 0 7 C-1.98 7 -3.96 7 -6 7 C-4.02 4.69 -2.04 2.38 0 0 Z " fill="#D5D4D5" transform="translate(493,267)"/>
<path d="M0 0 C0.66 0 1.32 0 2 0 C0.7508258 3.45925163 -0.67527795 6.14693203 -3 9 C-3 7 -3 5 -3 3 C-2.01 3 -1.02 3 0 3 C0 2.01 0 1.02 0 0 Z " fill="#1D1D1D" transform="translate(502,251)"/>
<path d="M0 0 C3 4 3 4 2.6875 7.75 C2.460625 8.8225 2.23375 9.895 2 11 C1.34 10.67 0.68 10.34 0 10 C0 6.7 0 3.4 0 0 Z " fill="#F0EFEE" transform="translate(476,215)"/>
<path d="M0 0 C0.33 0.99 0.66 1.98 1 3 C-1.64 3.33 -4.28 3.66 -7 4 C-4.83989616 0.75984424 -3.8842653 0 0 0 Z " fill="#E6E5E2" transform="translate(297,191)"/>
<path d="M0 0 C0.33 1.32 0.66 2.64 1 4 C1.33 4.66 1.66 5.32 2 6 C0 8 0 8 -3 9 C-2.01 6.03 -1.02 3.06 0 0 Z " fill="#30302E" transform="translate(319,594)"/>
<path d="M0 0 C1.32 0 2.64 0 4 0 C3.6875 1.875 3.6875 1.875 3 4 C2.01 4.66 1.02 5.32 0 6 C0 4 0 2 0 0 Z " fill="#17171A" transform="translate(301,593)"/>
<path d="M0 0 C2 4 2 4 2 6 C1.01 6.495 1.01 6.495 0 7 C-0.33 7.99 -0.66 8.98 -1 10 C-1.66 10 -2.32 10 -3 10 C-2.01 6.7 -1.02 3.4 0 0 Z " fill="#3A3938" transform="translate(459,495)"/>
<path d="M0 0 C1.98 0.99 1.98 0.99 4 2 C4 4.97 4 7.94 4 11 C2.16163081 7.32326162 1.06348187 3.95007553 0 0 Z " fill="#D0CECE" transform="translate(503,208)"/>
<path d="M0 0 C0.33 0.66 0.66 1.32 1 2 C0.36729133 3.34977849 -0.30062468 4.68352881 -1 6 C-1 6.66 -1 7.32 -1 8 C-2.32 8 -3.64 8 -5 8 C-3.62845496 5.04590299 -2.01136276 2.55991624 0 0 Z " fill="#D0D1D1" transform="translate(224,202)"/>
<path d="M0 0 C2 3 2 3 2 6 C1.34 6 0.68 6 0 6 C-0.33 6.66 -0.66 7.32 -1 8 C-1.66 8 -2.32 8 -3 8 C-1.125 2.25 -1.125 2.25 0 0 Z " fill="#312F2E" transform="translate(365,182)"/>
<path d="M0 0 C-1.32 1.32 -2.64 2.64 -4 4 C-4.99 3.01 -5.98 2.02 -7 1 C-3.375 -1.125 -3.375 -1.125 0 0 Z " fill="#E0DFDC" transform="translate(456,471)"/>
<path d="M0 0 C0.99 0 1.98 0 3 0 C2.67 2.31 2.34 4.62 2 7 C1.67 6.01 1.34 5.02 1 4 C0.34 4 -0.32 4 -1 4 C-0.67 2.68 -0.34 1.36 0 0 Z " fill="#DDDCDB" transform="translate(383,423)"/>
<path d="M0 0 C1.32 0.33 2.64 0.66 4 1 C3.34 2.65 2.68 4.3 2 6 C0.68 5.34 -0.64 4.68 -2 4 C-1.34 3.34 -0.68 2.68 0 2 C0 1.34 0 0.68 0 0 Z " fill="#0C0E0C" transform="translate(452,421)"/>
<path d="M0 0 C1.98 0 3.96 0 6 0 C5.34 1.32 4.68 2.64 4 4 C2.35 3.67 0.7 3.34 -1 3 C-0.67 2.01 -0.34 1.02 0 0 Z " fill="#171218" transform="translate(460,315)"/>
<path d="M0 0 C0.88492145 2.47778006 1.11637742 3.66056586 0.25 6.1875 C-1 8 -1 8 -4 9 C-2.80100302 5.9168649 -1.52299523 2.93720508 0 0 Z " fill="#3C3B3B" transform="translate(529,268)"/>
<path d="M0 0 C2.1875 0.3125 2.1875 0.3125 4 1 C2.35 2.32 0.7 3.64 -1 5 C-1.66 4.34 -2.32 3.68 -3 3 C-1.75 1.4375 -1.75 1.4375 0 0 Z " fill="#EAE5E4" transform="translate(376,163)"/>
</svg>
