<?xml version="1.0" encoding="UTF-8"?>
<svg version="1.1" xmlns="http://www.w3.org/2000/svg" width="685" height="685">
<path d="M0 0 C226.05 0 452.1 0 685 0 C685 226.05 685 452.1 685 685 C458.95 685 232.9 685 0 685 C0 458.95 0 232.9 0 0 Z " fill="#FDFDFD" transform="translate(0,0)"/>
<path d="M0 0 C0.85977448 -0.00014603 1.71954895 -0.00029205 2.6053772 -0.0004425 C5.40800626 0.00024644 8.21056634 0.00799044 11.01318359 0.01586914 C12.9718726 0.01773695 14.93056207 0.01915914 16.88925171 0.02015686 C22.01508908 0.02395349 27.14089758 0.03375905 32.26672363 0.04486084 C37.50902923 0.05513668 42.75133955 0.05966764 47.99365234 0.06469727 C58.25798786 0.07538418 68.52230207 0.09242587 78.78662109 0.11352539 C78.45662109 1.10352539 78.12662109 2.09352539 77.78662109 3.11352539 C77.12662109 3.11352539 76.46662109 3.11352539 75.78662109 3.11352539 C75.5278418 3.71342285 75.2690625 4.31332031 75.00244141 4.93139648 C73.68016894 7.30458349 72.46645869 8.3734649 70.33349609 10.02758789 C67.17608549 12.67478129 64.64715218 15.45593947 62.16099548 18.74237061 C46.71540753 39.08339776 46.71540753 39.08339776 34.44921875 41.38012695 C23.97829581 42.6954286 13.41387924 42.12845248 2.91423035 41.43902588 C-3.42041517 41.04279444 -9.0572761 41.45962621 -15.21337891 43.11352539 C-17.09089844 43.50411133 -17.09089844 43.50411133 -19.00634766 43.90258789 C-45.10237226 50.32899671 -67.09038032 67.39391897 -81.21337891 90.11352539 C-83.80834928 94.65788815 -86.04445337 99.10998154 -87.40087891 104.17602539 C-87.66900391 105.14540039 -87.93712891 106.11477539 -88.21337891 107.11352539 C-89.20337891 107.60852539 -89.20337891 107.60852539 -90.21337891 108.11352539 C-99.18318766 130.01426281 -95.50694537 158.07729379 -87.65087891 179.80102539 C-76.13728886 206.37750768 -54.64707527 226.83655224 -27.71337891 237.48852539 C-10.08197283 242.94989834 7.48697762 242.65364763 25.78662109 242.80102539 C35.68662109 242.90415039 45.58662109 243.00727539 55.78662109 243.11352539 C55.78662109 213.41352539 55.78662109 183.71352539 55.78662109 153.11352539 C35.98662109 153.11352539 16.18662109 153.11352539 -4.21337891 153.11352539 C-6.23553738 117.59936721 -6.23553738 117.59936721 -1.07275391 110.73852539 C2.15864986 107.49153993 5.8108952 104.95530522 9.68310547 102.52709961 C12.9878163 100.30631552 15.57681347 97.50680032 18.28662109 94.61352539 C21.93413623 90.89568078 25.69379932 87.39242389 29.66162109 84.01977539 C32.48056042 81.491021 35.12600946 78.80706538 37.78662109 76.11352539 C41.61650122 72.23624576 45.50713411 68.55108933 49.66162109 65.01977539 C52.98919607 62.0347449 56.10439716 58.8391763 59.22412109 55.63891602 C61.84034725 52.97647934 64.51436846 50.46344556 67.35693359 48.04321289 C73.44489914 42.77818034 79.00817028 36.96016832 84.66162109 31.23852539 C86.9061473 28.96742926 89.1539636 26.69966364 91.40380859 24.43383789 C91.91523407 23.91411407 92.42665955 23.39439026 92.95358276 22.85891724 C97.62109344 18.15891693 97.62109344 18.15891693 101.87442017 17.99327087 C103.215758 17.99036166 104.55711451 17.99305241 105.8984375 18 C106.99615227 17.99978096 106.99615227 17.99978096 108.11604309 17.9995575 C110.54011985 18.00025536 112.96412022 18.00804185 115.38818359 18.01586914 C117.06684324 18.01773377 118.74550343 18.01915746 120.42416382 18.02015686 C124.84649147 18.02397851 129.26878638 18.0338058 133.69110107 18.04486084 C138.20210324 18.05508253 142.71311069 18.05965611 147.22412109 18.06469727 C156.07830216 18.07542837 164.93245891 18.09250058 173.78662109 18.11352539 C174.07996338 17.49405029 174.37330566 16.8745752 174.67553711 16.23632812 C178.21021628 9.48307929 185.91520295 4.79857416 192.75927734 1.95727539 C203.30844028 -0.98287841 212.82327138 1.18416062 222.34912109 5.86352539 C230.85519189 11.14043968 236.86914827 17.31380898 239.78662109 27.11352539 C241.20046033 37.30291849 240.42661539 47.8335368 235.78662109 57.11352539 C235.12662109 57.11352539 234.46662109 57.11352539 233.78662109 57.11352539 C233.55974609 57.67040039 233.33287109 58.22727539 233.09912109 58.80102539 C228.80083903 66.37418903 220.42152686 71.15346341 212.26708984 73.60961914 C203.08975543 75.47399101 193.25334272 74.67765571 185.30615234 69.49633789 C182.28512333 67.19976445 179.48849998 64.93859094 177.02461243 62.04226685 C174.19567678 59.60423888 172.67028395 59.55706965 168.97094727 59.43725586 C167.7983989 59.3923703 166.62585052 59.34748474 165.41777039 59.30123901 C163.51787102 59.26632858 163.51787102 59.26632858 161.57958984 59.23071289 C160.266866 59.20316925 158.95414215 59.17562561 157.60163879 59.14724731 C154.81667913 59.09621871 152.03215373 59.06484902 149.24682617 59.04272461 C146.41525372 59.01637011 143.59005009 58.94734199 140.76049805 58.83764648 C122.60186075 57.58224606 122.60186075 57.58224606 106.69540405 64.80104065 C104.31462775 67.21352239 102.15378343 69.71635942 100.10116577 72.41271973 C98.36580696 74.65799001 96.38135267 76.56916389 94.32177734 78.51586914 C93.16206261 79.69212623 92.00440336 80.87041457 90.84912109 82.05102539 C86.64001552 86.30788155 82.41906654 90.43550824 77.82958984 94.28540039 C74.32771495 97.41900929 71.07843367 100.81871718 67.82104492 104.20410156 C66.51237927 105.54353421 65.15315645 106.83318688 63.78662109 108.11352539 C63.12662109 108.11352539 62.46662109 108.11352539 61.78662109 108.11352539 C61.78662109 108.77352539 61.78662109 109.43352539 61.78662109 110.11352539 C60.79662109 111.10352539 59.80662109 112.09352539 58.78662109 113.11352539 C70.99662109 113.11352539 83.20662109 113.11352539 95.78662109 113.11352539 C95.78662109 169.54352539 95.78662109 225.97352539 95.78662109 284.11352539 C78.68849609 284.15477539 61.59037109 284.19602539 43.97412109 284.23852539 C38.59252686 284.2567334 33.21093262 284.27494141 27.66625977 284.29370117 C21.05090332 284.30273438 21.05090332 284.30273438 17.94551086 284.30441284 C15.79515249 284.30746666 13.64479735 284.3144645 11.49446106 284.32467651 C8.2209384 284.33943381 4.94762348 284.34133344 1.67407227 284.34057617 C0.7299734 284.34777239 -0.21412546 284.35496861 -1.18683338 284.36238289 C-11.8459532 284.32963736 -21.96746393 281.87603158 -32.21337891 279.11352539 C-33.23173828 278.84926758 -34.25009766 278.58500977 -35.29931641 278.31274414 C-48.10327766 274.72447352 -60.10441024 268.36449564 -71.21337891 261.11352539 C-72.72351563 260.16026367 -72.72351563 260.16026367 -74.26416016 259.18774414 C-82.08767478 254.05097705 -88.71982128 247.96947023 -95.33837891 241.36352539 C-96.56512329 240.139198 -96.56512329 240.139198 -97.81665039 238.89013672 C-101.79612998 234.83598744 -105.18299505 230.90786402 -108.21337891 226.11352539 C-108.87337891 225.78352539 -109.53337891 225.45352539 -110.21337891 225.11352539 C-111.07996206 223.72928035 -111.88445654 222.305641 -112.65087891 220.86352539 C-114.05525212 218.25006162 -115.4668939 215.70265627 -117.02587891 213.17602539 C-118.21337891 211.11352539 -118.21337891 211.11352539 -118.21337891 209.11352539 C-118.87337891 209.11352539 -119.53337891 209.11352539 -120.21337891 209.11352539 C-121.38651916 206.34527351 -122.55208106 203.57424053 -123.71337891 200.80102539 C-124.04724609 200.0153418 -124.38111328 199.2296582 -124.72509766 198.42016602 C-125.04091797 197.6628418 -125.35673828 196.90551758 -125.68212891 196.12524414 C-126.12202148 195.08049927 -126.12202148 195.08049927 -126.57080078 194.01464844 C-127.21337891 192.11352539 -127.21337891 192.11352539 -127.21337891 189.11352539 C-127.87337891 189.11352539 -128.53337891 189.11352539 -129.21337891 189.11352539 C-130.20185481 185.136613 -131.17744292 181.15664347 -132.15087891 177.17602539 C-132.42867188 176.05905273 -132.70646484 174.94208008 -132.99267578 173.79125977 C-135.75504819 162.44223576 -136.39509378 151.98119676 -136.40087891 140.30102539 C-136.413125 139.01131836 -136.42537109 137.72161133 -136.43798828 136.39282227 C-136.45585509 124.61859244 -134.7038725 113.88537641 -131.40087891 102.61352539 C-131.1344458 101.70062744 -130.8680127 100.78772949 -130.59350586 99.84716797 C-120.31145737 65.32294126 -96.03605985 34.90286685 -64.33374023 17.58349609 C-43.99053866 6.91113673 -23.18136584 -0.10591195 0 0 Z " fill="#040506" transform="translate(256.21337890625,242.886474609375)"/>
<path d="M0 0 C1.7644043 -0.01160156 1.7644043 -0.01160156 3.56445312 -0.0234375 C14.35698098 0.00042657 24.52476964 1.38687706 34.75 4.875 C35.50990234 5.13224854 36.26980469 5.38949707 37.05273438 5.65454102 C65.12136463 15.55405896 87.92421235 36.21780053 101.9375 62.25 C109.72122971 78.90223348 113.30136301 96.47498682 113.1875 114.75 C113.19523438 115.99136719 113.20296875 117.23273438 113.2109375 118.51171875 C113.1893314 128.76381338 111.92479992 138.07000278 108.5625 147.75 C108.34553467 148.37801514 108.12856934 149.00603027 107.9050293 149.65307617 C107.25663985 151.52132098 106.59722631 153.38572836 105.9375 155.25 C105.55980469 156.34957031 105.18210937 157.44914063 104.79296875 158.58203125 C102.20236895 165.98513105 102.20236895 165.98513105 99.9375 168.25 C99.64875 169.03375 99.36 169.8175 99.0625 170.625 C97.9375 173.25 97.9375 173.25 96.12890625 175.02734375 C93.57218572 177.62052376 91.74668459 180.39337431 89.75 183.4375 C75.16156083 205.02234295 50.30702632 220.75413752 24.9375 226.25 C16.01740725 227.92965323 7.32154415 228.6376512 -1.75 228.625 C-2.9666333 228.62338867 -4.1832666 228.62177734 -5.43676758 228.62011719 C-19.3602638 228.43209884 -30.29851994 225.92288003 -43.0625 220.25 C-43.0625 266.78 -43.0625 313.31 -43.0625 361.25 C-56.2625 361.25 -69.4625 361.25 -83.0625 361.25 C-83.0625 293.93 -83.0625 226.61 -83.0625 157.25 C-59.0625 157.25 -59.0625 157.25 -52.0625 163.375 C-49.375 166.98046875 -49.375 166.98046875 -48.1796875 168.71630859 C-43.25509556 175.47686073 -34.38120897 178.82918874 -27.0625 182.25 C-26.41152344 182.57097656 -25.76054687 182.89195312 -25.08984375 183.22265625 C-11.27193819 189.72327849 6.68287631 188.63490996 20.9375 184.25 C37.43396197 177.77264282 51.42251852 167.77089528 60.45703125 152.41015625 C60.94558594 151.69730469 61.43414063 150.98445312 61.9375 150.25 C62.5975 150.25 63.2575 150.25 63.9375 150.25 C64.06253906 149.52554688 64.18757812 148.80109375 64.31640625 148.0546875 C64.92383105 145.31172518 65.78168826 142.95769113 66.875 140.375 C73.72806983 124.16735957 73.34619943 103.60684397 66.9375 87.25 C63.11910677 77.91468691 57.45049378 69.03001878 49.9375 62.25 C49.14859375 61.47269531 49.14859375 61.47269531 48.34375 60.6796875 C34.33822947 47.4456575 15.51847342 40.64968281 -3.59863281 40.83325195 C-22.76958323 41.51360903 -38.41184903 49.98890041 -52.51318359 62.52490234 C-54.20328516 64.26859362 -54.20328516 64.26859362 -55.42822266 66.80712891 C-57.37596073 70.14686939 -58.86689505 72.02599098 -62.0625 74.25 C-69.35941758 75.96482743 -77.13905089 75.18509048 -84.5625 74.875 C-86.64572692 74.82479786 -88.72906962 74.77917773 -90.8125 74.73828125 C-95.89870507 74.62849106 -100.97932751 74.45619459 -106.0625 74.25 C-104.811498 66.05092419 -102.10346266 59.69316612 -97.4375 52.875 C-96.99801025 52.2257959 -96.55852051 51.5765918 -96.10571289 50.90771484 C-92.20156528 45.25024111 -87.85440003 40.17856741 -83.0625 35.25 C-82.05509766 34.14978516 -82.05509766 34.14978516 -81.02734375 33.02734375 C-68.84520493 20.11655363 -52.59806923 9.26092208 -35.2734375 4.8203125 C-32.94927038 4.2537428 -32.94927038 4.2537428 -30.29907227 3.28369141 C-20.46999536 0.14449614 -10.23198412 -0.06750072 0 0 Z " fill="#040506" transform="translate(461.0625,165.75)"/>
<path d="M0 0 C0 3.82607935 -1.46322704 4.8141718 -4.06384277 7.42938232 C-4.65121216 8.00440491 -5.23858154 8.57942749 -5.84375 9.171875 C-6.44626587 9.7725177 -7.04878174 10.3731604 -7.66955566 10.99200439 C-8.95069714 12.26641259 -10.23543649 13.5372124 -11.5234375 14.8046875 C-13.47117644 16.72163215 -15.40838494 18.64869664 -17.34375 20.578125 C-22.84408272 26.04323311 -28.34896638 31.43984997 -34.25537109 36.46923828 C-37.51976912 39.33346661 -40.52507469 42.46159662 -43.5625 45.5625 C-47.22355255 49.29958687 -50.90654624 53.00612733 -54.77734375 56.52734375 C-55.59900024 57.27939087 -55.59900024 57.27939087 -56.43725586 58.04663086 C-56.95296143 58.36124268 -57.46866699 58.67585449 -58 59 C-58.99 58.67 -59.98 58.34 -61 58 C-60.35933594 57.43152344 -59.71867187 56.86304688 -59.05859375 56.27734375 C-55.078067 52.72393761 -51.11422759 49.18363321 -47.375 45.375 C-45.10696301 43.06486488 -42.77643502 40.91215715 -40.3125 38.8125 C-36.18057176 35.2582394 -32.36568985 31.42681255 -28.5637207 27.52661133 C-25.85816745 24.77331032 -23.08181912 22.17194341 -20.15625 19.65234375 C-15.7294683 15.82317758 -11.61226605 11.72426555 -7.5 7.5625 C-6.77296875 6.83095703 -6.0459375 6.09941406 -5.296875 5.34570312 C-3.52890501 3.56610176 -1.76333622 1.78419082 0 0 Z " fill="#252627" transform="translate(344,271)"/>
<path d="M0 0 C0 3 0 3 -2.09545898 5.11865234 C-3.05266846 5.93285645 -4.00987793 6.74706055 -4.99609375 7.5859375 C-18.87638678 19.01315327 -18.87638678 19.01315327 -24.97485352 35.12158203 C-24.92123593 39.16357702 -24.62290143 43.00270542 -24 47 C-24.33 47 -24.66 47 -25 47 C-27.53490223 28.29778387 -27.53490223 28.29778387 -23.57470703 21.58349609 C-19.90390022 17.28070806 -15.52802376 13.88116027 -10.99658203 10.52783203 C-8.23556132 8.41503335 -5.9108204 6.0661931 -3.5 3.5625 C-2.8090625 2.86253906 -2.118125 2.16257812 -1.40625 1.44140625 C-0.71015625 0.72791016 -0.71015625 0.72791016 0 0 Z " fill="#252525" transform="translate(277,335)"/>
<path d="M0 0 C0.66 0.33 1.32 0.66 2 1 C1.05640625 1.87140625 0.1128125 2.7428125 -0.859375 3.640625 C-9.08257398 11.26055281 -17.13886661 19.00711577 -25 27 C-25.66 26.67 -26.32 26.34 -27 26 C-18.61577361 16.56166391 -9.94112241 7.83887789 0 0 Z " fill="#292A29" transform="translate(177,270)"/>
<path d="M0 0 C0.66 0.33 1.32 0.66 2 1 C-2.58483382 6.66852182 -7.69020902 11.58711097 -13.06982422 16.47851562 C-17.86217991 20.84151849 -22.4699377 25.36458741 -27 30 C-27.66 29.67 -28.32 29.34 -29 29 C-19.33333333 19.33333333 -9.66666667 9.66666667 0 0 Z " fill="#D5D6D9" transform="translate(332,246)"/>
<path d="M0 0 C0.66 0.33 1.32 0.66 2 1 C1.525625 1.4125 1.05125 1.825 0.5625 2.25 C-1.16266518 4.182185 -1.56584875 5.48192275 -2 8 C-2.66 8 -3.32 8 -4 8 C-4.33 8.99 -4.66 9.98 -5 11 C-5.66 10.34 -6.32 9.68 -7 9 C-9.97 11.97 -12.94 14.94 -16 18 C-16.66 17.67 -17.32 17.34 -18 17 C-12.49535464 10.53236704 -6.92082668 4.9411103 0 0 Z " fill="#D5D3D5" transform="translate(420,218)"/>
<path d="M0 0 C0.33 0 0.66 0 1 0 C1 1.98 1 3.96 1 6 C-5.11090483 6.09945415 -10.97403427 6.0712828 -17 5 C-13.2632157 2.50881047 -11.25548181 2.7934774 -6.8125 2.875 C-5.54019531 2.89304687 -4.26789063 2.91109375 -2.95703125 2.9296875 C-1.49330078 2.96449219 -1.49330078 2.96449219 0 3 C0 2.01 0 1.02 0 0 Z " fill="#0B0C0E" transform="translate(416,520)"/>
<path d="M0 0 C5.94 0 11.88 0 18 0 C18.33 0.66 18.66 1.32 19 2 C9.595 2.495 9.595 2.495 0 3 C0 2.01 0 1.02 0 0 Z " fill="#0B0C0F" transform="translate(379,523)"/>
<path d="M0 0 C0 3 0 3 -1.2421875 4.60546875 C-1.78101563 5.12753906 -2.31984375 5.64960938 -2.875 6.1875 C-3.40867187 6.71730469 -3.94234375 7.24710937 -4.4921875 7.79296875 C-6 9 -6 9 -8 9 C-8.28875 9.61875 -8.5775 10.2375 -8.875 10.875 C-10 13 -10 13 -12 15 C-12.99 14.67 -13.98 14.34 -15 14 C-13.25311063 12.22600373 -11.50266549 10.45577447 -9.75 8.6875 C-9.25886719 8.18798828 -8.76773437 7.68847656 -8.26171875 7.17382812 C-5.64859804 4.54328661 -3.04342089 2.12314838 0 0 Z " fill="#D1D3D5" transform="translate(368,304)"/>
<path d="M0 0 C0.66 0.66 1.32 1.32 2 2 C0.72920407 5.8123878 -0.60677884 6.027197 -4 8 C-5.36984198 9.29579647 -6.7151049 10.61992749 -8 12 C-8.66 11.67 -9.32 11.34 -10 11 C-6.7 7.37 -3.4 3.74 0 0 Z " fill="#D2D3D0" transform="translate(190,313)"/>
<path d="M0 0 C2.33944736 0.28730055 4.6739143 0.61936779 7 1 C3.8745041 3.64465038 0.91211733 4.84414715 -3 6 C-1.125 1.125 -1.125 1.125 0 0 Z " fill="#EAEBEC" transform="translate(194,255)"/>
<path d="M0 0 C0 0.99 0 1.98 0 3 C-4.455 4.485 -4.455 4.485 -9 6 C-8.67 4.68 -8.34 3.36 -8 2 C-5.10888212 0.47835901 -3.28176588 0 0 0 Z " fill="#ECEDEC" transform="translate(210,250)"/>
<path d="M0 0 C0.99 0.33 1.98 0.66 3 1 C0.69 3.31 -1.62 5.62 -4 8 C-4.66 6.68 -5.32 5.36 -6 4 C-5.34 3.01 -4.68 2.02 -4 1 C-2.68 1.33 -1.36 1.66 0 2 C0 1.34 0 0.68 0 0 Z " fill="#D8D8D9" transform="translate(327,285)"/>
<path d="M0 0 C-0.66 1.98 -1.32 3.96 -2 6 C-3.32 5.01 -4.64 4.02 -6 3 C-6.33 3.99 -6.66 4.98 -7 6 C-7.99 5.34 -8.98 4.68 -10 4 C-8.71086513 3.32845067 -7.41859796 2.66291141 -6.125 2 C-5.40570313 1.62875 -4.68640625 1.2575 -3.9453125 0.875 C-2 0 -2 0 0 0 Z " fill="#262729" transform="translate(416,175)"/>
<path d="M0 0 C1.98 0 3.96 0 6 0 C4.94921875 1.48828125 4.94921875 1.48828125 3 3 C-0.35546875 3.29296875 -0.35546875 3.29296875 -4.1875 3.1875 C-5.45980469 3.16042969 -6.73210937 3.13335937 -8.04296875 3.10546875 C-9.01878906 3.07066406 -9.99460937 3.03585937 -11 3 C-11 2.67 -11 2.34 -11 2 C-5.555 1.505 -5.555 1.505 0 1 C0 0.67 0 0.34 0 0 Z " fill="#212221" transform="translate(456,391)"/>
<path d="M0 0 C0.99 0.33 1.98 0.66 3 1 C0.36 3.64 -2.28 6.28 -5 9 C-5.33 8.01 -5.66 7.02 -6 6 C-5.34 6 -4.68 6 -4 6 C-3.71125 5.38125 -3.4225 4.7625 -3.125 4.125 C-2 2 -2 2 0 0 Z " fill="#DCDCDA" transform="translate(272,337)"/>
<path d="M0 0 C0.33 0.66 0.66 1.32 1 2 C-0.375 3.5 -0.375 3.5 -2 5 C-2.66 5 -3.32 5 -4 5 C-4 5.66 -4 6.32 -4 7 C-3.34 7.33 -2.68 7.66 -2 8 C-2.99 8.33 -3.98 8.66 -5 9 C-5 8.34 -5 7.68 -5 7 C-5.66 6.67 -6.32 6.34 -7 6 C-4.69 4.02 -2.38 2.04 0 0 Z " fill="#D4D7D5" transform="translate(198,306)"/>
<path d="M0 0 C2.72426311 2.35277269 3.8141763 4.62496331 5 8 C3.35 8 1.7 8 0 8 C-0.33 7.01 -0.66 6.02 -1 5 C-0.34 5 0.32 5 1 5 C0.67 3.35 0.34 1.7 0 0 Z " fill="#393839" transform="translate(171,430)"/>
<path d="M0 0 C1.32 0.66 2.64 1.32 4 2 C0.535 4.97 0.535 4.97 -3 8 C-3 7.01 -3 6.02 -3 5 C-2.34 5 -1.68 5 -1 5 C-0.67 3.35 -0.34 1.7 0 0 Z " fill="#1F2024" transform="translate(307,266)"/>
<path d="M0 0 C0 2 0 4 0 6 C-2.31 6.66 -4.62 7.32 -7 8 C-6.02133662 6.85373678 -5.04205413 5.70800212 -4.0625 4.5625 C-3.51722656 3.92441406 -2.97195313 3.28632813 -2.41015625 2.62890625 C-1.63204305 1.73008851 -0.84063472 0.84063472 0 0 Z " fill="#E5E5E8" transform="translate(302,276)"/>
<path d="M0 0 C0.66 0.33 1.32 0.66 2 1 C1.67 1.99 1.34 2.98 1 4 C-1.97 4 -4.94 4 -8 4 C-5.31143836 2.20762558 -3.0466145 1.01553817 0 0 Z " fill="#C0C1C0" transform="translate(229,288)"/>
<path d="M0 0 C0 3.90838866 -1.50567876 5.11594107 -4 8 C-4.99 7.67 -5.98 7.34 -7 7 C-4.69 4.69 -2.38 2.38 0 0 Z " fill="#252728" transform="translate(380,199)"/>
<path d="M0 0 C0.33 0.99 0.66 1.98 1 3 C-0.65 4.32 -2.3 5.64 -4 7 C-4.66 6.67 -5.32 6.34 -6 6 C-4.02 4.02 -2.04 2.04 0 0 Z " fill="#D6D9DB" transform="translate(352,319)"/>
</svg>
