<svg xmlns="http://www.w3.org/2000/svg" viewBox="0 0 64 64" role="img" aria-label="Travel Planner">
  <defs>
    <linearGradient id="g" x1="0" y1="0" x2="1" y2="1">
      <stop offset="0%" stop-color="#bf5a2b"/>
      <stop offset="100%" stop-color="#296f61"/>
    </linearGradient>
  </defs>
  <rect width="64" height="64" rx="16" fill="#f6efe3"/>
  <path d="M15 20h34a3 3 0 0 1 3 3v18a3 3 0 0 1-3 3H15a3 3 0 0 1-3-3V23a3 3 0 0 1 3-3Z" fill="url(#g)"/>
  <path d="M20 26h24v3H20zm0 6h18v3H20zm0 6h12v3H20z" fill="#fff6eb"/>
  <circle cx="46" cy="38" r="7" fill="#fff6eb"/>
  <path d="M46 33l1.8 3.6 4 .6-2.9 2.8.7 4-3.6-1.9-3.6 1.9.7-4-2.9-2.8 4-.6Z" fill="#bf5a2b"/>
</svg>
